<svg xmlns="http://www.w3.org/2000/svg" width="456" height="130.485" viewBox="0 0 456 130.485">
  <g id="グループ_2672" data-name="グループ 2672" transform="translate(-549 -506.5)">
    <text id="レビュー総数_275件" data-name="レビュー総数
275件" transform="translate(593 605.5)" fill="#969696" font-size="12" font-family="HiraginoSans-W4, Hiragino Sans"><tspan x="-35.82" y="0">レビュー総数</tspan><tspan y="0" font-family="HelveticaNeue-Medium, Helvetica Neue" font-weight="500"></tspan><tspan font-family="HelveticaNeue-Medium, Helvetica Neue" font-weight="500"><tspan x="-16.008" y="20">275</tspan><tspan y="20" font-family="HiraginoSans-W4, Hiragino Sans" font-weight="400">件</tspan></tspan></text>
    <text id="_3.5" data-name="3.5" transform="translate(549 569.5)" fill="#fecc00" font-size="65" font-family="HelveticaNeue-Bold, Helvetica Neue" font-weight="700"><tspan x="0" y="0">3.5</tspan></text>
    <g id="グループ_865" data-name="グループ 865" transform="translate(685 623.289)">
      <path id="パス_943" data-name="パス 943" d="M1138.969,238.71l-4.969.724,3.591,3.508-.849,4.955,4.454-2.339,4.44,2.339-.863-4.955,3.6-3.508-4.969-.724-2.213-4.51Z" transform="translate(-1066.91 -234.2)" fill="#ccc"/>
      <path id="パス_944" data-name="パス 944" d="M1141.2,245.558l-4.454,2.338.849-4.955L1134,239.434l4.969-.724,2.227-4.51Z" transform="translate(-1066.91 -234.2)" fill="#b3b3b3"/>
      <path id="パス_945" data-name="パス 945" d="M784.136,247.9l-4.44-2.338-4.454,2.338.849-4.955-3.591-3.508,4.983-.724,2.227-4.51,2.213,4.51,4.969.724-3.605,3.508Z" transform="translate(-755.728 -234.2)" fill="#ccc"/>
      <path id="パス_946" data-name="パス 946" d="M779.7,245.558l-4.454,2.338.849-4.955-3.591-3.508,4.983-.724,2.227-4.51Z" transform="translate(-755.728 -234.2)" fill="#b3b3b3"/>
      <path id="パス_947" data-name="パス 947" d="M904.636,247.9l-4.44-2.338-4.454,2.338.849-4.955L893,239.434l4.969-.724,2.227-4.51,2.213,4.51,4.969.724-3.605,3.508Z" transform="translate(-859.455 -234.2)" fill="#ccc"/>
      <path id="パス_948" data-name="パス 948" d="M900.2,245.558l-4.454,2.338.849-4.955L893,239.434l4.969-.724,2.227-4.51Z" transform="translate(-859.455 -234.2)" fill="#b3b3b3"/>
      <path id="パス_949" data-name="パス 949" d="M1025.136,247.9l-4.44-2.338-4.454,2.338.849-4.955-3.591-3.508,4.969-.724,2.227-4.51,2.213,4.51,4.969.724-3.6,3.508Z" transform="translate(-963.183 -234.2)" fill="#ccc"/>
      <path id="パス_950" data-name="パス 950" d="M1020.7,245.558l-4.454,2.338.849-4.955-3.591-3.508,4.969-.724,2.227-4.51Z" transform="translate(-963.183 -234.2)" fill="#b3b3b3"/>
      <path id="パス_951" data-name="パス 951" d="M663.636,247.9l-4.44-2.338-4.454,2.338.849-4.955L652,239.434l4.969-.724,2.227-4.51,2.213,4.51,4.969.724-3.605,3.508Z" transform="translate(-652 -234.2)" fill="#fd5"/>
      <path id="パス_952" data-name="パス 952" d="M659.2,245.558l-4.454,2.338.849-4.955L652,239.434l4.969-.724,2.227-4.51Z" transform="translate(-652 -234.2)" fill="#fc0"/>
    </g>
    <g id="グループ_863" data-name="グループ 863" transform="translate(685 596.289)">
      <path id="パス_963" data-name="パス 963" d="M1138.969,4.61,1134,5.334l3.591,3.508-.849,4.955,4.454-2.339,4.44,2.339-.863-4.955,3.6-3.508-4.969-.724L1141.2.1Z" transform="translate(-1066.91 -0.087)" fill="#ccc"/>
      <path id="パス_964" data-name="パス 964" d="M1141.2,0l-2.227,4.51L1134,5.233l3.591,3.508-.849,4.955,4.454-2.339Z" transform="translate(-1066.91 0)" fill="#b3b3b3"/>
      <path id="パス_965" data-name="パス 965" d="M779.7,0l-2.227,4.51-4.969.724,3.591,3.508-.849,4.955,4.454-2.339,4.44,2.352-.863-4.969,3.605-3.508-4.969-.724Z" transform="translate(-755.726 0)" fill="#fd5"/>
      <path id="パス_966" data-name="パス 966" d="M779.7,0l-2.227,4.51-4.969.724,3.591,3.508-.849,4.955,4.454-2.339Z" transform="translate(-755.726 0)" fill="#fc0"/>
      <path id="パス_967" data-name="パス 967" d="M900.2,0l-2.227,4.51L893,5.233l3.591,3.508-.849,4.955,4.454-2.339,4.44,2.352-.863-4.969,3.605-3.508-4.969-.724Z" transform="translate(-859.455 0)" fill="#ccc"/>
      <path id="パス_968" data-name="パス 968" d="M900.2,0l-2.227,4.51L893,5.233l3.591,3.508-.849,4.955,4.454-2.339Z" transform="translate(-859.455 0)" fill="#b3b3b3"/>
      <path id="パス_969" data-name="パス 969" d="M1018.469,4.61l-4.969.724,3.591,3.508-.849,4.955,4.454-2.339,4.44,2.339-.863-4.955,3.605-3.508-4.969-.724L1020.7.1Z" transform="translate(-963.183 -0.087)" fill="#ccc"/>
      <path id="パス_970" data-name="パス 970" d="M1020.7,0l-2.227,4.51-4.969.724,3.591,3.508-.849,4.955,4.454-2.339Z" transform="translate(-963.182 0)" fill="#b3b3b3"/>
      <path id="パス_971" data-name="パス 971" d="M659.2,0l-2.227,4.51L652,5.233l3.591,3.508-.849,4.955,4.454-2.339,4.44,2.352-.863-4.969,3.605-3.508-4.969-.724Z" transform="translate(-651.999 0)" fill="#fd5"/>
      <path id="パス_972" data-name="パス 972" d="M659.2,0l-2.227,4.51L652,5.233l3.591,3.508-.849,4.955,4.454-2.339Z" transform="translate(-651.999 0)" fill="#fc0"/>
    </g>
    <g id="グループ_861" data-name="グループ 861" transform="translate(685 570.289)">
      <path id="パス_983" data-name="パス 983" d="M493.636,481.9l-4.44-2.338-4.454,2.338.849-4.955L482,473.434l4.969-.724,2.227-4.51,2.213,4.51,4.969.724-3.605,3.508Z" transform="translate(-414.91 -468.186)" fill="#ccc"/>
      <path id="パス_984" data-name="パス 984" d="M489.2,479.458l-4.454,2.338.849-4.955L482,473.333l4.969-.724,2.227-4.51Z" transform="translate(-414.91 -468.1)" fill="#b3b3b3"/>
      <path id="パス_985" data-name="パス 985" d="M132.236,481.9l-4.44-2.338-4.454,2.338.849-4.955-3.591-3.508,4.969-.724,2.227-4.51,2.213,4.51,4.969.724-3.605,3.508Z" transform="translate(-103.814 -468.186)" fill="#fd5"/>
      <path id="パス_986" data-name="パス 986" d="M127.7,479.458l-4.454,2.338.849-4.955-3.591-3.508,4.969-.724,2.227-4.51Z" transform="translate(-103.727 -468.1)" fill="#fc0"/>
      <path id="パス_987" data-name="パス 987" d="M252.636,481.9l-4.44-2.338-4.454,2.338.849-4.955L241,473.434l4.969-.724,2.227-4.51,2.213,4.51,4.969.724-3.605,3.508Z" transform="translate(-207.456 -468.186)" fill="#fd5"/>
      <path id="パス_988" data-name="パス 988" d="M248.2,479.458l-4.454,2.338.849-4.955L241,473.333l4.969-.724,2.227-4.51Z" transform="translate(-207.456 -468.1)" fill="#fc0"/>
      <path id="パス_989" data-name="パス 989" d="M373.136,481.9l-4.44-2.338-4.454,2.338.849-4.955-3.591-3.508,4.969-.724,2.227-4.51,2.213,4.51,4.969.724-3.605,3.508Z" transform="translate(-311.183 -468.186)" fill="#ccc"/>
      <path id="パス_990" data-name="パス 990" d="M368.7,479.458l-4.454,2.338.849-4.955-3.591-3.508,4.969-.724,2.227-4.51Z" transform="translate(-311.183 -468.1)" fill="#b3b3b3"/>
      <path id="パス_991" data-name="パス 991" d="M5.069,472.71.1,473.434l3.591,3.508L2.842,481.9,7.3,479.558l4.44,2.339-.863-4.955,3.605-3.508L9.51,472.71,7.3,468.2Z" transform="translate(-0.087 -468.186)" fill="#fd5"/>
      <path id="パス_992" data-name="パス 992" d="M4.969,472.609,0,473.333l3.591,3.508L2.742,481.8,7.2,479.457V468.1Z" transform="translate(0 -468.099)" fill="#fc0"/>
    </g>
    <g id="グループ_859" data-name="グループ 859" transform="translate(685 543.289)">
      <path id="パス_1003" data-name="パス 1003" d="M493.636,247.9l-4.44-2.338-4.454,2.338.849-4.955L482,239.434l4.969-.724,2.227-4.51,2.213,4.51,4.969.724-3.605,3.508Z" transform="translate(-414.91 -234.2)" fill="#ccc"/>
      <path id="パス_1004" data-name="パス 1004" d="M489.2,245.558l-4.454,2.338.849-4.955L482,239.434l4.969-.724,2.227-4.51Z" transform="translate(-414.91 -234.2)" fill="#b3b3b3"/>
      <path id="パス_1005" data-name="パス 1005" d="M132.236,247.9l-4.44-2.338-4.454,2.338.849-4.955-3.591-3.508,4.969-.724,2.227-4.51,2.213,4.51,4.969.724-3.605,3.508Z" transform="translate(-103.814 -234.2)" fill="#fd5"/>
      <path id="パス_1006" data-name="パス 1006" d="M127.7,245.558l-4.454,2.338.849-4.955-3.591-3.508,4.983-.724,2.227-4.51Z" transform="translate(-103.727 -234.2)" fill="#fc0"/>
      <path id="パス_1007" data-name="パス 1007" d="M252.636,247.9l-4.44-2.338-4.454,2.338.849-4.955L241,239.434l4.969-.724,2.227-4.51,2.213,4.51,4.969.724-3.605,3.508Z" transform="translate(-207.456 -234.2)" fill="#fd5"/>
      <path id="パス_1008" data-name="パス 1008" d="M248.2,245.558l-4.454,2.338.849-4.955L241,239.434l4.969-.724,2.227-4.51Z" transform="translate(-207.456 -234.2)" fill="#fc0"/>
      <path id="パス_1009" data-name="パス 1009" d="M373.136,247.9l-4.44-2.338-4.454,2.338.849-4.955-3.591-3.508,4.983-.724,2.227-4.51,2.213,4.51,4.969.724-3.605,3.508Z" transform="translate(-311.183 -234.2)" fill="#fd5"/>
      <path id="パス_1010" data-name="パス 1010" d="M368.7,245.558l-4.454,2.338.849-4.955-3.591-3.508,4.983-.724,2.227-4.51Z" transform="translate(-311.183 -234.2)" fill="#fc0"/>
      <path id="パス_1011" data-name="パス 1011" d="M5.069,238.71.1,239.434l3.591,3.508L2.842,247.9,7.3,245.558l4.44,2.339-.863-4.955,3.605-3.508L9.51,238.71,7.3,234.2Z" transform="translate(-0.087 -234.2)" fill="#fd5"/>
      <path id="パス_1012" data-name="パス 1012" d="M4.969,238.71,0,239.434l3.591,3.508L2.742,247.9,7.2,245.558V234.2Z" transform="translate(0 -234.2)" fill="#fc0"/>
    </g>
    <g id="グループ_857" data-name="グループ 857" transform="translate(685 517.289)">
      <path id="パス_1023" data-name="パス 1023" d="M489.2,0l-2.227,4.51L482,5.233l3.591,3.508-.849,4.955,4.454-2.339,4.44,2.352-.863-4.969,3.605-3.508-4.969-.724Z" transform="translate(-414.91 0)" fill="#fd5"/>
      <path id="パス_1024" data-name="パス 1024" d="M489.2,0l-2.227,4.51L482,5.233l3.591,3.508-.849,4.955,4.454-2.339Z" transform="translate(-414.91 0)" fill="#fc0"/>
      <path id="パス_1025" data-name="パス 1025" d="M127.7,0l-2.227,4.51-4.969.724,3.591,3.508-.849,4.955,4.454-2.339,4.454,2.352-.877-4.969,3.605-3.508-4.969-.724Z" transform="translate(-103.727 0)" fill="#fd5"/>
      <path id="パス_1026" data-name="パス 1026" d="M127.7,0l-2.227,4.51-4.969.724,3.591,3.508-.849,4.955,4.454-2.339Z" transform="translate(-103.727 0)" fill="#fc0"/>
      <path id="パス_1027" data-name="パス 1027" d="M248.2,0l-2.227,4.51L241,5.233l3.591,3.508-.849,4.955,4.454-2.339,4.44,2.352-.863-4.969,3.605-3.508-4.969-.724Z" transform="translate(-207.454 0)" fill="#fd5"/>
      <path id="パス_1028" data-name="パス 1028" d="M248.2,0l-2.227,4.51L241,5.233l3.591,3.508-.849,4.955,4.454-2.339Z" transform="translate(-207.454 0)" fill="#fc0"/>
      <path id="パス_1029" data-name="パス 1029" d="M368.7,0l-2.227,4.51-4.969.724,3.591,3.508-.849,4.955,4.454-2.339,4.44,2.352-.863-4.969,3.605-3.508-4.969-.724Z" transform="translate(-311.183 0)" fill="#fd5"/>
      <path id="パス_1030" data-name="パス 1030" d="M368.7,0l-2.227,4.51-4.969.724,3.591,3.508-.849,4.955,4.454-2.339Z" transform="translate(-311.183 0)" fill="#fc0"/>
      <path id="パス_1031" data-name="パス 1031" d="M7.2,0,4.969,4.509,0,5.233,3.591,8.741,2.742,13.7,7.2,11.358,11.65,13.71l-.877-4.969,3.605-3.508L9.409,4.509Z" transform="translate(0 0)" fill="#fd5"/>
      <path id="パス_1032" data-name="パス 1032" d="M7.2,0,4.969,4.509,0,5.233,3.591,8.741,2.742,13.7,7.2,11.358Z" transform="translate(0 0)" fill="#fc0"/>
    </g>
    <rect id="長方形_1520" data-name="長方形 1520" width="187" height="4" rx="2" transform="translate(777 524)" fill="#f2f0ee"/>
    <rect id="長方形_1521" data-name="長方形 1521" width="187" height="4" rx="2" transform="translate(777 550)" fill="#f2f0ee"/>
    <rect id="長方形_1522" data-name="長方形 1522" width="187" height="4" rx="2" transform="translate(777 577)" fill="#f2f0ee"/>
    <rect id="長方形_1523" data-name="長方形 1523" width="187" height="4" rx="2" transform="translate(777 603)" fill="#f2f0ee"/>
    <rect id="長方形_1524" data-name="長方形 1524" width="187" height="4" rx="2" transform="translate(777 629)" fill="#f2f0ee"/>
    <rect id="長方形_1525" data-name="長方形 1525" width="32" height="4" rx="2" transform="translate(777 524)" fill="#fecc00"/>
    <rect id="長方形_1526" data-name="長方形 1526" width="87" height="4" rx="2" transform="translate(777 577)" fill="#fecc00"/>
    <rect id="長方形_1527" data-name="長方形 1527" width="48" height="4" rx="2" transform="translate(777 550)" fill="#fecc00"/>
    <line id="線_26" data-name="線 26" x2="90" transform="translate(549.5 584)" fill="none" stroke="#e0e1e3" stroke-width="1"/>
    <text id="_250件_20件_5件" data-name="250件
20件
5件" transform="translate(970 530)" fill="#969696" font-size="13" font-family="HelveticaNeue-Medium, Helvetica Neue" font-weight="500"><tspan x="0" y="0">250</tspan><tspan y="0" font-family="HiraginoSans-W4, Hiragino Sans" font-weight="400">件</tspan><tspan y="0"></tspan><tspan x="0" y="26">20</tspan><tspan y="26" font-family="HiraginoSans-W4, Hiragino Sans" font-weight="400">件</tspan><tspan y="26"></tspan><tspan x="0" y="52">5</tspan><tspan y="52" font-family="HiraginoSans-W4, Hiragino Sans" font-weight="400">件</tspan></text>
  </g>
</svg>
