<svg xmlns="http://www.w3.org/2000/svg" xmlns:xlink="http://www.w3.org/1999/xlink" width="140" height="100" viewBox="0 0 140 100">
  <defs>
    <clipPath id="clip-path">
      <rect id="長方形_128" data-name="長方形 128" width="140" height="100" transform="translate(375.593 619)" fill="#fff" stroke="#707070" stroke-width="1"/>
    </clipPath>
  </defs>
  <g id="マスクグループ_13" data-name="マスクグループ 13" transform="translate(-375.593 -619)" clip-path="url(#clip-path)">
    <g id="icons" transform="translate(396.581 619)">
      <g id="グループ_122" data-name="グループ 122">
        <path id="パス_312" data-name="パス 312" d="M43.1,13.224A1.255,1.255,0,0,1,41.878,12a9.551,9.551,0,0,0-19.1,0c0,5.224-.571,1.224-1.224,1.224A1.255,1.255,0,0,1,20.327,12,11.9,11.9,0,0,1,32.245,0a12.019,12.019,0,0,1,12,12c0,6.612-.571,1.224-1.224,1.224Z" fill="#263357"/>
        <path id="パス_313" data-name="パス 313" d="M74.939,93.469H93.061A27.37,27.37,0,0,0,65.714,66.531h-.327c10.531,1.633,12.98,21.224,9.469,26.939Z" fill="#61c4f2"/>
        <path id="パス_314" data-name="パス 314" d="M1.224,100h0A1.206,1.206,0,0,1,.082,98.694C.9,85.306,9.8,74.531,21.714,72.49a1.472,1.472,0,0,1,.98.245s3.673,2.776,10.449,2.776,1.224.571,1.224,1.224a1.255,1.255,0,0,1-1.224,1.224c-6.286,0-10.2-2.122-11.51-3.02C11.1,77.061,3.265,86.776,2.531,98.776a1.186,1.186,0,0,1-1.224,1.143Z" fill="#263357"/>
        <path id="パス_315" data-name="パス 315" d="M93.388,94.612a1.186,1.186,0,0,1-1.224-1.143A27.471,27.471,0,0,0,64.9,67.347c-14.449,0-23.02,8.327-26.286,20.163a1.141,1.141,0,0,1-1.469.816,1.113,1.113,0,0,1-.816-1.469A30,30,0,0,1,64.98,64.9c13.224,0,28.816,12.49,29.714,28.49a1.32,1.32,0,0,1-1.143,1.306h0Z" fill="#263357"/>
        <path id="パス_316" data-name="パス 316" d="M93.469,100H36.327a1.133,1.133,0,0,1-.98-.571l-3.265-4.9a1.11,1.11,0,0,1,0-1.224,1.274,1.274,0,0,1,1.061-.653H96.735a1.094,1.094,0,0,1,1.061.653,1.3,1.3,0,0,1,0,1.224l-3.265,4.9a1.245,1.245,0,0,1-.98.571ZM36.98,97.551H92.816L94.449,95.1h-59.1l1.633,2.449Z" fill="#263357"/>
        <path id="パス_317" data-name="パス 317" d="M68.163,67.347a1.255,1.255,0,0,1-1.224-1.224c0-2.2-1.061-3.673-2.041-3.673s-2.041,1.469-2.041,3.673-.571,1.224-1.224,1.224a1.255,1.255,0,0,1-1.224-1.224c0-3.429,1.959-6.122,4.49-6.122s4.49,2.694,4.49,6.122S68.816,67.347,68.163,67.347Z" fill="#263357"/>
        <path id="パス_318" data-name="パス 318" d="M19.429,31.02A10.469,10.469,0,0,1,8.98,20.571v-.653A10.469,10.469,0,0,1,19.429,9.469h2.2a1.224,1.224,0,0,1,0,2.449h-2.2a8.013,8.013,0,0,0-8,8v.653a8.013,8.013,0,0,0,8,8c4.408,0,1.224.571,1.224,1.224A1.255,1.255,0,0,1,19.429,31.02Z" fill="#263357"/>
        <path id="パス_319" data-name="パス 319" d="M45.878,31.02a1.224,1.224,0,0,1,0-2.449,8.013,8.013,0,0,0,8-8v-.653a8.013,8.013,0,0,0-8-8h-2.2a1.224,1.224,0,0,1,0-2.449h2.2A10.469,10.469,0,0,1,56.327,19.918v.653A10.469,10.469,0,0,1,45.878,31.02Z" fill="#263357"/>
        <path id="パス_320" data-name="パス 320" d="M52.653,43.673H13.469a1.255,1.255,0,0,1-1.224-1.224v-4.9a1.255,1.255,0,0,1,1.224-1.224h4.9a1.224,1.224,0,0,1,0,2.449H14.694v2.449H51.429V38.776H25.714a1.224,1.224,0,0,1,0-2.449H52.653a1.255,1.255,0,0,1,1.224,1.224v4.9A1.255,1.255,0,0,1,52.653,43.673Z" fill="#263357"/>
        <path id="パス_321" data-name="パス 321" d="M89.714,74.612a.88.88,0,0,1-.571-.163,1.248,1.248,0,0,1-.571-1.633c.245-.49.49-1.061.735-1.551a1.243,1.243,0,1,1,2.286.98,10.159,10.159,0,0,1-.816,1.633,1.274,1.274,0,0,1-1.061.653Zm2.776-7.265h-.327a1.193,1.193,0,0,1-.816-1.551l.49-1.714a1.218,1.218,0,1,1,2.367.571c-.163.571-.327,1.224-.49,1.8a1.2,1.2,0,0,1-1.143.9Zm1.551-7.592h-.163a1.179,1.179,0,0,1-1.061-1.388,12.178,12.178,0,0,1,.163-1.714,1.206,1.206,0,0,1,1.306-1.143,1.262,1.262,0,0,1,1.143,1.306,12.227,12.227,0,0,1-.163,1.8,1.122,1.122,0,0,1-1.224,1.061ZM94.2,52a1.186,1.186,0,0,1-1.224-1.143,6.112,6.112,0,0,0-.163-1.714,1.19,1.19,0,0,1,2.367-.245,13.349,13.349,0,0,0,.163,1.8A1.32,1.32,0,0,1,94.2,52Zm-1.143-7.673a1.3,1.3,0,0,1-1.224-.98c-.163-.571-.245-1.143-.408-1.714a1.189,1.189,0,0,1,2.286-.653c.163.571.327,1.224.49,1.8a1.217,1.217,0,0,1-.9,1.469h-.245ZM90.612,36.98a1.231,1.231,0,0,1-1.143-.735c-.245-.571-.49-1.061-.735-1.551a1.223,1.223,0,1,1,2.2-1.061l.735,1.714a1.258,1.258,0,0,1-.653,1.633c-.163,0-.327.082-.49.082Zm-3.673-6.857a1.19,1.19,0,0,1-1.061-.571l-.98-1.469a1.234,1.234,0,1,1,2.041-1.388c.327.49.735.98,1.061,1.551a1.209,1.209,0,0,1-.327,1.714.982.982,0,0,1-.653.163ZM82.2,24a1.311,1.311,0,0,1-.9-.408l-1.224-1.224A1.212,1.212,0,0,1,81.8,20.653L83.1,21.959a1.258,1.258,0,0,1,0,1.714,1.17,1.17,0,0,1-.816.327ZM76.49,18.776a1.317,1.317,0,0,1-.735-.245c-.49-.327-.9-.735-1.388-1.061a1.234,1.234,0,1,1,1.388-2.041c.49.327.98.735,1.469,1.061a1.193,1.193,0,0,1,.245,1.714,1.164,1.164,0,0,1-.98.49Zm-6.531-4.163a.777.777,0,0,1-.571-.163,14.185,14.185,0,0,1-1.551-.816,1.223,1.223,0,0,1,1.061-2.2c.571.245,1.143.571,1.633.816a1.215,1.215,0,0,1,.49,1.633,1.274,1.274,0,0,1-1.061.653Zm-7.184-3.02h-.408c-.571-.163-1.143-.327-1.633-.49a1.113,1.113,0,0,1-.816-1.469,1.141,1.141,0,0,1,1.469-.816c.571.163,1.143.327,1.8.49A1.293,1.293,0,0,1,64,10.857a1.228,1.228,0,0,1-1.143.816ZM55.184,9.878H55.02a12.384,12.384,0,0,1-1.714-.245,1.145,1.145,0,0,1-1.061-1.306,1.145,1.145,0,0,1,1.306-1.061,11.921,11.921,0,0,1,1.8.245A1.268,1.268,0,0,1,56.408,8.9a1.171,1.171,0,0,1-1.224,1.061Z" fill="#263357"/>
        <path id="パス_322" data-name="パス 322" d="M79.429,37.959v-.408a6.7,6.7,0,0,0-5.959-6.122c-2.122-.245-4,1.061-5.388,2.449-1.306-1.388-3.265-2.694-5.388-2.449a6.676,6.676,0,0,0-5.959,5.714v.816a6.266,6.266,0,0,0,2.449,4.9l8.9,7.1,8.98-7.1a6.266,6.266,0,0,0,2.449-4.9Z" fill="#f86464"/>
        <path id="パス_323" data-name="パス 323" d="M84.9,54.939v-.163a3.063,3.063,0,0,0-2.776-2.857,3.347,3.347,0,0,0-2.531,1.143,3.347,3.347,0,0,0-2.531-1.143,3.123,3.123,0,0,0-2.776,2.694v.408a2.861,2.861,0,0,0,1.143,2.286l4.163,3.347,4.245-3.347A2.861,2.861,0,0,0,84.98,55.02Z" fill="#f86464"/>
        <path id="パス_324" data-name="パス 324" d="M51.184,65.633a1.177,1.177,0,0,1-1.061-.653c-.49-.98-2.776-8.327-2.776-10.286s.571-1.224,1.224-1.224A1.255,1.255,0,0,1,49.8,54.694c0,1.388,2.122,8.327,2.531,9.143a1.3,1.3,0,0,1-.49,1.633,1.514,1.514,0,0,1-.571.163Z" fill="#263357"/>
        <path id="パス_325" data-name="パス 325" d="M19.184,69.8H19.02c-.816-.082-1.633-.245-2.367-.327a16.364,16.364,0,0,1-5.061-1.061,1.3,1.3,0,0,1-.653-.816,1.368,1.368,0,0,1,.245-.98A22.589,22.589,0,0,0,14.2,60.9a22.3,22.3,0,0,0,1.306-7.02v-.163a1.186,1.186,0,0,1,1.224-1.143A1.255,1.255,0,0,1,17.959,53.8h0v.163a24.592,24.592,0,0,1-1.388,7.755,25.586,25.586,0,0,1-2.449,4.98c.816.163,1.8.245,2.857.408.735.082,1.551.163,2.367.327a1.268,1.268,0,0,1,1.061,1.388,1.236,1.236,0,0,1-1.224,1.061Z" fill="#263357"/>
        <path id="パス_326" data-name="パス 326" d="M16.9,55.51a1.28,1.28,0,0,1-1.143-.735,25.413,25.413,0,0,1-1.714-11.1,1.227,1.227,0,0,1,2.449.163,27.352,27.352,0,0,0,.245,5.8,20.527,20.527,0,0,1,4.735-8,1.212,1.212,0,0,1,1.714,1.714c-3.347,3.347-4.816,8.571-5.143,11.184a1.141,1.141,0,0,1-1.061,1.061h-.163Z" fill="#263357"/>
        <path id="パス_327" data-name="パス 327" d="M48.571,55.1a.677.677,0,0,1-.653-.245,1.209,1.209,0,0,1-.327-1.714c1.306-1.959,2.041-5.388,2.041-9.224s.571-1.224,1.224-1.224a1.255,1.255,0,0,1,1.224,1.224c0,2.041-.245,7.184-2.449,10.531a1.382,1.382,0,0,1-.98.571Z" fill="#263357"/>
        <path id="パス_328" data-name="パス 328" d="M48.571,51.837h-.163c-7.265-.816-14.122-5.469-17.878-7.918l-.653-.408a1.234,1.234,0,0,1,1.388-2.041l.653.408c3.51,2.367,10.122,6.776,16.816,7.51A1.179,1.179,0,0,1,49.8,50.776a1.122,1.122,0,0,1-1.224,1.061Z" fill="#263357"/>
        <path id="パス_329" data-name="パス 329" d="M17.551,100a1.255,1.255,0,0,1-1.224-1.224V89.8a1.224,1.224,0,0,1,2.449,0v8.98A1.255,1.255,0,0,1,17.551,100Z" fill="#263357"/>
        <path id="パス_330" data-name="パス 330" d="M51.02,37.143A1.255,1.255,0,0,1,49.8,35.918V29.388a1.224,1.224,0,1,1,2.449,0v6.531A1.255,1.255,0,0,1,51.02,37.143Z" fill="#263357"/>
        <path id="パス_331" data-name="パス 331" d="M15.1,37.959a1.255,1.255,0,0,1-1.224-1.224V29.388a1.224,1.224,0,0,1,2.449,0v7.347A1.255,1.255,0,0,1,15.1,37.959Z" fill="#263357"/>
        <path id="パス_332" data-name="パス 332" d="M33.143,69.224c-8.082,0-15.1-7.592-16.735-17.959a1.235,1.235,0,0,1,2.449-.327c1.388,9.224,7.429,15.918,14.286,15.918s12.9-6.694,14.286-15.918a1.235,1.235,0,0,1,2.449.327C48.327,61.714,41.306,69.224,33.143,69.224Z" fill="#263357"/>
        <path id="パス_333" data-name="パス 333" d="M28.98,51.02H25.714a1.224,1.224,0,1,1,0-2.449H28.98a1.224,1.224,0,1,1,0,2.449Z" fill="#263357"/>
        <path id="パス_334" data-name="パス 334" d="M41.224,51.02H37.959a1.224,1.224,0,1,1,0-2.449h3.265a1.224,1.224,0,1,1,0,2.449Z" fill="#263357"/>
        <path id="パス_335" data-name="パス 335" d="M33.143,63.1a8.083,8.083,0,0,1-4.816-1.714A1.224,1.224,0,0,1,29.8,59.429a5.186,5.186,0,0,0,6.694,0,1.224,1.224,0,0,1,1.469,1.959A7.9,7.9,0,0,1,33.143,63.1Z" fill="#263357"/>
      </g>
    </g>
  </g>
</svg>
