<svg xmlns="http://www.w3.org/2000/svg" xmlns:xlink="http://www.w3.org/1999/xlink" width="140" height="100" viewBox="0 0 140 100">
  <defs>
    <clipPath id="clip-path">
      <rect id="長方形_127" data-name="長方形 127" width="140" height="100" transform="translate(655.593 619)" fill="#fff" stroke="#707070" stroke-width="1"/>
    </clipPath>
  </defs>
  <g id="マスクグループ_14" data-name="マスクグループ 14" transform="translate(-655.593 -619)" clip-path="url(#clip-path)">
    <g id="Illustration" transform="translate(673.725 619)">
      <g id="グループ_130" data-name="グループ 130">
        <g id="グループ_123" data-name="グループ 123">
          <line id="線_44" data-name="線 44" y2="3.574" transform="translate(42.298 27.524)" fill="none" stroke="#65a8ff" stroke-linecap="round" stroke-linejoin="round" stroke-width="0.715"/>
          <line id="線_45" data-name="線 45" y2="3.574" transform="translate(42.298 35.149)" fill="none" stroke="#65a8ff" stroke-linecap="round" stroke-linejoin="round" stroke-width="0.715"/>
          <line id="線_46" data-name="線 46" x2="3.574" transform="translate(36.579 33.243)" fill="none" stroke="#65a8ff" stroke-linecap="round" stroke-linejoin="round" stroke-width="0.715"/>
          <line id="線_47" data-name="線 47" x2="3.574" transform="translate(44.205 33.243)" fill="none" stroke="#65a8ff" stroke-linecap="round" stroke-linejoin="round" stroke-width="0.715"/>
        </g>
        <g id="グループ_124" data-name="グループ 124">
          <circle id="楕円形_22" data-name="楕円形 22" cx="2.502" cy="2.502" r="2.502" transform="translate(51.473 46.23)" fill="#f84242"/>
          <rect id="長方形_130" data-name="長方形 130" width="14.775" height="5.004" transform="translate(14.298 46.23)" fill="#f84242"/>
          <path id="パス_336" data-name="パス 336" d="M46.969,77.757a14.556,14.556,0,0,0-.167-2.049l-.453-.429c-2.955,0-2.955,2.478-5.886,2.478s-2.955-2.478-5.886-2.478-2.931,2.478-5.886,2.478-2.955-2.478-5.886-2.478l-.405.143a12.709,12.709,0,0,0-.214,2.335,12.392,12.392,0,0,0,24.783,0Z" fill="#65a8ff"/>
          <line id="線_48" data-name="線 48" x2="66.247" transform="translate(0.477 99.371)" fill="none" stroke="#000" stroke-linecap="round" stroke-linejoin="round" stroke-width="0.953"/>
          <path id="パス_337" data-name="パス 337" d="M58.789,99.323a2.451,2.451,0,0,0,2.454-2.454V44.157A2.451,2.451,0,0,0,58.789,41.7H8.65A2.451,2.451,0,0,0,6.2,44.157V96.869A2.451,2.451,0,0,0,8.65,99.323" fill="none" stroke="#000" stroke-linecap="round" stroke-linejoin="round" stroke-width="0.953"/>
          <line id="線_49" data-name="線 49" x2="54.332" transform="translate(6.434 53.141)" fill="none" stroke="#000" stroke-linecap="round" stroke-linejoin="round" stroke-width="0.953"/>
          <circle id="楕円形_23" data-name="楕円形 23" cx="17.038" cy="17.038" r="17.038" transform="translate(16.681 59.098)" fill="none" stroke="#000" stroke-linecap="round" stroke-linejoin="round" stroke-width="0.953"/>
          <circle id="楕円形_24" data-name="楕円形 24" cx="12.392" cy="12.392" r="12.392" transform="translate(21.209 63.626)" fill="none" stroke="#000" stroke-linecap="round" stroke-linejoin="round" stroke-width="0.953"/>
          <path id="パス_338" data-name="パス 338" d="M21.852,73.587c2.955,0,2.955,2.478,5.886,2.478s2.931-2.478,5.886-2.478,2.955,2.478,5.886,2.478,2.955-2.478,5.886-2.478" fill="none" stroke="#000" stroke-linecap="round" stroke-linejoin="round" stroke-width="0.953"/>
          <line id="線_50" data-name="線 50" x2="5.481" transform="translate(40.749 47.898)" fill="none" stroke="#000" stroke-linejoin="round" stroke-width="0.953" stroke-dasharray="0 0 3 3"/>
          <circle id="楕円形_25" data-name="楕円形 25" cx="2.502" cy="2.502" r="2.502" transform="translate(49.805 45.039)" fill="none" stroke="#000" stroke-linecap="round" stroke-linejoin="round" stroke-width="0.953"/>
          <rect id="長方形_131" data-name="長方形 131" width="14.775" height="5.004" transform="translate(12.63 45.039)" fill="none" stroke="#000" stroke-linecap="round" stroke-linejoin="round" stroke-width="0.953"/>
        </g>
        <g id="グループ_125" data-name="グループ 125">
          <path id="パス_339" data-name="パス 339" d="M78.52,23.949H64.46v3a9.529,9.529,0,0,1-9.532,9.532v3.67" fill="none" stroke="#f84242" stroke-linecap="round" stroke-linejoin="round" stroke-width="0.715"/>
          <path id="パス_340" data-name="パス 340" d="M72.086,19.183V15.847h-1.43v-5.6A2.024,2.024,0,0,0,68.63,8.221H63.6a2.024,2.024,0,0,0-2.026,2.026v5.6h-1.43v3.336" fill="none" stroke="#f84242" stroke-linecap="round" stroke-linejoin="round" stroke-width="0.715"/>
          <line id="線_51" data-name="線 51" x2="9.055" transform="translate(61.6 15.847)" fill="none" stroke="#f84242" stroke-linecap="round" stroke-linejoin="round" stroke-width="0.715"/>
          <path id="パス_341" data-name="パス 341" d="M80.164,25.9a12.854,12.854,0,0,0-11.3-6.72H63.507A12.875,12.875,0,0,0,50.639,32.051v6.672" fill="none" stroke="#65a8ff" stroke-linecap="round" stroke-linejoin="round" stroke-width="0.715"/>
          <path id="パス_342" data-name="パス 342" d="M54.928,33.457a6.438,6.438,0,0,0,6.434-6.434V23.568A6.438,6.438,0,0,0,54.928,30Z" fill="none" stroke="#65a8ff" stroke-linecap="round" stroke-linejoin="round" stroke-width="0.715"/>
          <path id="パス_343" data-name="パス 343" d="M90.2,20.851l.906-5h6.005V14.179h3.1V10.128h-3.1V8.7H83.286a6.916,6.916,0,0,0-6.911,6.911h5.91l1.049,5.243" fill="none" stroke="#f84242" stroke-linecap="round" stroke-linejoin="round" stroke-width="0.715"/>
          <line id="線_52" data-name="線 52" y2="3.574" transform="translate(97.107 10.366)" fill="none" stroke="#f84242" stroke-linecap="round" stroke-linejoin="round" stroke-width="0.715"/>
          <path id="パス_344" data-name="パス 344" d="M91.459,16.014l4,6.506h2.5l-2-6.506" fill="none" stroke="#f84242" stroke-linecap="round" stroke-linejoin="round" stroke-width="0.715"/>
          <line id="線_53" data-name="線 53" x2="20.494" transform="translate(76.375 36.102)" fill="none" stroke="#65a8ff" stroke-linecap="round" stroke-linejoin="round" stroke-width="0.715"/>
          <line id="線_54" data-name="線 54" y2="14.06" transform="translate(86.86 21.447)" fill="none" stroke="#65a8ff" stroke-linejoin="round" stroke-width="0.715" stroke-dasharray="0 0 3 3"/>
          <line id="線_55" data-name="線 55" x2="13.345" transform="translate(62.554 52.545)" fill="none" stroke="#65a8ff" stroke-linecap="round" stroke-linejoin="round" stroke-width="0.715"/>
          <path id="パス_345" data-name="パス 345" d="M79.044,56.834a2.919,2.919,0,0,1-2.907-2.907V35.7a12.675,12.675,0,0,1,6.911-11.343v-3.5H90.2v3.5a12.666,12.666,0,0,1,6.911,11.319V53.927A2.919,2.919,0,0,1,94.2,56.834H81.141" fill="none" stroke="#65a8ff" stroke-linecap="round" stroke-linejoin="round" stroke-width="0.715"/>
        </g>
        <line id="線_56" data-name="線 56" x2="6.434" transform="translate(62.554 83.524)" fill="none" stroke="#65a8ff" stroke-linecap="round" stroke-linejoin="round" stroke-width="0.715"/>
        <g id="グループ_126" data-name="グループ 126">
          <path id="パス_346" data-name="パス 346" d="M62.315,69.226H78.9a3.694,3.694,0,1,0-.071-7.387H62.315" fill="none" stroke="#65a8ff" stroke-linecap="round" stroke-linejoin="round" stroke-width="0.715"/>
          <path id="パス_347" data-name="パス 347" d="M83.31,75.66a3.565,3.565,0,0,0,1.263-2.955,3.72,3.72,0,0,0-3.765-3.479H63.745" fill="none" stroke="#65a8ff" stroke-linecap="round" stroke-linejoin="round" stroke-width="0.715"/>
          <line id="線_57" data-name="線 57" x2="12.63" transform="translate(62.554 76.613)" fill="none" stroke="#65a8ff" stroke-linecap="round" stroke-linejoin="round" stroke-width="0.715"/>
        </g>
        <g id="グループ_127" data-name="グループ 127">
          <path id="パス_348" data-name="パス 348" d="M60.123,6.958,51.377,1.716A9.64,9.64,0,0,0,46.468.357H17.515a9.446,9.446,0,0,0-4.861,1.334L8.174,4.337" fill="none" stroke="#65a8ff" stroke-linecap="round" stroke-linejoin="round" stroke-width="0.715"/>
          <path id="パス_349" data-name="パス 349" d="M40.868,1.072V3.241a8.97,8.97,0,0,1-9.008,9.008,8.8,8.8,0,0,1-8.626-8.817V1.072" fill="none" stroke="#65a8ff" stroke-linecap="round" stroke-linejoin="round" stroke-width="0.715"/>
        </g>
        <g id="グループ_128" data-name="グループ 128">
          <path id="パス_350" data-name="パス 350" d="M47.779,21.8H14.894V35.388H33.719" fill="none" stroke="#f84242" stroke-linecap="round" stroke-linejoin="round" stroke-width="0.715"/>
          <path id="パス_351" data-name="パス 351" d="M14.894,38.724V19.04l-6.41,3.765L.548,8.936,12.63,1.716A9.64,9.64,0,0,1,17.539.357H46.492a9.446,9.446,0,0,1,4.861,1.334l4.48,2.645" fill="none" stroke="#65a8ff" stroke-linecap="round" stroke-linejoin="round" stroke-width="0.715"/>
          <path id="パス_352" data-name="パス 352" d="M23,1.072V3.241A8.97,8.97,0,0,0,32,12.249,8.8,8.8,0,0,0,40.63,3.432V1.072" fill="none" stroke="#65a8ff" stroke-linecap="round" stroke-linejoin="round" stroke-width="0.715"/>
        </g>
        <g id="グループ_129" data-name="グループ 129">
          <path id="パス_353" data-name="パス 353" d="M86.836,89.648a10.537,10.537,0,0,1-1.382-4.957c0-4.766,4.17-8.65,4.17-8.65s4.17,3.86,4.17,8.65-.906,4.266-1.883,5.815" fill="none" stroke="#f84242" stroke-linecap="round" stroke-linejoin="round" stroke-width="0.715"/>
          <path id="パス_354" data-name="パス 354" d="M92.77,80.045a15.893,15.893,0,0,1,4.218-2.264s2.145,5.266.119,9.6a10.492,10.492,0,0,1-4.289,4.552" fill="none" stroke="#f84242" stroke-linecap="round" stroke-linejoin="round" stroke-width="0.715"/>
          <path id="パス_355" data-name="パス 355" d="M98.084,82.523a16.121,16.121,0,0,1,4.957-.31s-.286,5.672-3.956,8.746a8.879,8.879,0,0,1-3.5,1.835" fill="none" stroke="#f84242" stroke-linecap="round" stroke-linejoin="round" stroke-width="0.715"/>
          <path id="パス_356" data-name="パス 356" d="M86.455,80.045a15.894,15.894,0,0,0-4.218-2.264s-2.145,5.266-.119,9.6a8.8,8.8,0,0,0,1.311,2" fill="none" stroke="#f84242" stroke-linecap="round" stroke-linejoin="round" stroke-width="0.715"/>
          <path id="パス_357" data-name="パス 357" d="M81.165,82.523a16.121,16.121,0,0,0-4.957-.31,15.7,15.7,0,0,0,1.525,5.6" fill="none" stroke="#f84242" stroke-linecap="round" stroke-linejoin="round" stroke-width="0.715"/>
          <path id="パス_358" data-name="パス 358" d="M92.842,93.175l8.507-1.191a1.787,1.787,0,0,1,2.026,1.859.992.992,0,0,1-.691.882L89.029,99.49a3.308,3.308,0,0,1-1.6.1L74.04,97.56h-.286" fill="none" stroke="#65a8ff" stroke-linecap="round" stroke-linejoin="round" stroke-width="0.715"/>
          <rect id="長方形_132" data-name="長方形 132" width="3.336" height="10.247" transform="translate(69.941 88.29)" fill="none" stroke="#65a8ff" stroke-linecap="round" stroke-linejoin="round" stroke-width="0.715"/>
          <path id="パス_359" data-name="パス 359" d="M84.239,93.771h7.506a1.054,1.054,0,0,0,1.072-1,2.7,2.7,0,0,0-2.693-2.812H86.05a7.557,7.557,0,0,1-3.789-1,9.054,9.054,0,0,0-4.695-.906c-2.216.071-3.5,1.6-4.123,1.6" fill="none" stroke="#65a8ff" stroke-linecap="round" stroke-linejoin="round" stroke-width="0.715"/>
          <path id="パス_360" data-name="パス 360" d="M89.768,61.863l1.406,2.621,2.621,1.43L91.173,67.32l-1.406,2.621-1.43-2.621-2.621-1.406,2.621-1.43Z" fill="none" stroke="#65a8ff" stroke-linecap="round" stroke-linejoin="round" stroke-width="0.715"/>
          <path id="パス_361" data-name="パス 361" d="M99.037,71.561l.929,1.692,1.716.929-1.716.929L99.037,76.8l-.929-1.692-1.692-.929,1.692-.929Z" fill="none" stroke="#65a8ff" stroke-linecap="round" stroke-linejoin="round" stroke-width="0.715"/>
          <path id="パス_362" data-name="パス 362" d="M79.282,72.8l.81,1.477,1.5.834-1.5.81-.81,1.5-.81-1.5-1.5-.81,1.5-.834Z" fill="none" stroke="#65a8ff" stroke-linecap="round" stroke-linejoin="round" stroke-width="0.715"/>
        </g>
      </g>
    </g>
  </g>
</svg>
