<svg xmlns="http://www.w3.org/2000/svg" xmlns:xlink="http://www.w3.org/1999/xlink" width="140" height="100" viewBox="0 0 140 100">
  <defs>
    <clipPath id="clip-path">
      <rect id="長方形_129" data-name="長方形 129" width="140" height="100" transform="translate(935.593 619)" fill="#fff" stroke="#707070" stroke-width="1"/>
    </clipPath>
  </defs>
  <g id="マスクグループ_15" data-name="マスクグループ 15" transform="translate(-935.593 -619)" clip-path="url(#clip-path)">
    <g id="Illustration" transform="translate(954.899 619)">
      <g id="グループ_137" data-name="グループ 137">
        <g id="グループ_131" data-name="グループ 131">
          <line id="線_58" data-name="線 58" y2="3.241" transform="translate(23.032 51.505)" fill="none" stroke="#65a8ff" stroke-linecap="round" stroke-linejoin="round" stroke-width="0.694"/>
          <line id="線_59" data-name="線 59" y2="3.241" transform="translate(23.032 58.912)" fill="none" stroke="#65a8ff" stroke-linecap="round" stroke-linejoin="round" stroke-width="0.694"/>
          <line id="線_60" data-name="線 60" x2="3.241" transform="translate(17.708 56.829)" fill="none" stroke="#65a8ff" stroke-linecap="round" stroke-linejoin="round" stroke-width="0.694"/>
          <line id="線_61" data-name="線 61" x2="3.472" transform="translate(24.884 56.829)" fill="none" stroke="#65a8ff" stroke-linecap="round" stroke-linejoin="round" stroke-width="0.694"/>
        </g>
        <g id="グループ_132" data-name="グループ 132">
          <line id="線_62" data-name="線 62" x2="2.616" y2="8.588" transform="translate(73.125 15)" fill="none" stroke="#65a8ff" stroke-linecap="round" stroke-linejoin="round" stroke-width="0.694"/>
          <line id="線_63" data-name="線 63" x2="3.056" y2="10.023" transform="translate(75.833 11.042)" fill="none" stroke="#65a8ff" stroke-linecap="round" stroke-linejoin="round" stroke-width="0.694"/>
          <line id="線_64" data-name="線 64" x2="3.287" y2="10.741" transform="translate(79.19 9.236)" fill="none" stroke="#65a8ff" stroke-linecap="round" stroke-linejoin="round" stroke-width="0.694"/>
          <path id="パス_363" data-name="パス 363" d="M82.477,28.981a4.11,4.11,0,0,1,2.731-5.139l1.273-3.519" fill="none" stroke="#65a8ff" stroke-linecap="round" stroke-linejoin="round" stroke-width="0.694"/>
          <path id="パス_364" data-name="パス 364" d="M90.046,32.037l-.81-2.639,2.639-9.792a2.594,2.594,0,0,0-1.644-3.148,2.479,2.479,0,0,0-3.125,1.736l-.625,2.13-1.088-3.588L82.917,8.588a1.938,1.938,0,0,0-2.176-1.366,1.907,1.907,0,0,0-1.435,2.384l-.417-1.366a1.938,1.938,0,0,0-2.176-1.366,1.907,1.907,0,0,0-1.435,2.384l.556,1.782a1.864,1.864,0,0,0-2.5-1.181,1.913,1.913,0,0,0-1.042,2.361l.949,3.148a1.864,1.864,0,0,0-2.5-1.181A1.913,1.913,0,0,0,69.7,16.551l1.157,3.8" fill="none" stroke="#65a8ff" stroke-linecap="round" stroke-linejoin="round" stroke-width="0.694"/>
          <line id="線_65" data-name="線 65" x2="3.958" y2="8.079" transform="translate(67.87 22.338)" fill="none" stroke="#f84242" stroke-linecap="round" stroke-linejoin="round" stroke-width="0.694"/>
          <line id="線_66" data-name="線 66" x2="4.606" y2="9.421" transform="translate(63.194 21.296)" fill="none" stroke="#f84242" stroke-linecap="round" stroke-linejoin="round" stroke-width="0.694"/>
          <line id="線_67" data-name="線 67" x2="4.954" y2="10.093" transform="translate(59.491 22.269)" fill="none" stroke="#f84242" stroke-linecap="round" stroke-linejoin="round" stroke-width="0.694"/>
          <path id="パス_365" data-name="パス 365" d="M70.579,38.935a4.1,4.1,0,0,0-5.509-1.875l-3.333-1.69" fill="none" stroke="#f84242" stroke-linecap="round" stroke-linejoin="round" stroke-width="0.694"/>
          <path id="パス_366" data-name="パス 366" d="M79.19,47.222l-9.375,4.606a.742.742,0,0,1-1-.347L68.5,50.81a.742.742,0,0,1,.347-1l-2.917-5.949L58.079,39" fill="none" stroke="#f84242" stroke-linecap="round" stroke-linejoin="round" stroke-width="0.694"/>
          <path id="パス_367" data-name="パス 367" d="M58.4,33.843a2.474,2.474,0,0,1,1.435.37l1.9,1.134L56.319,24.329a1.921,1.921,0,0,1,.648-2.477,1.883,1.883,0,0,1,2.662.764L59,21.343a1.921,1.921,0,0,1,.648-2.477,1.883,1.883,0,0,1,2.662.764l.833,1.69a1.865,1.865,0,0,1,1.019-2.569,1.9,1.9,0,0,1,2.361,1l1.458,2.963A1.865,1.865,0,0,1,69,20.139a1.9,1.9,0,0,1,2.361,1l8.125,16.551" fill="none" stroke="#f84242" stroke-linecap="round" stroke-linejoin="round" stroke-width="0.694"/>
        </g>
        <g id="グループ_133" data-name="グループ 133">
          <path id="パス_368" data-name="パス 368" d="M94.1,92.477V63.912a5.617,5.617,0,0,0-5.972-5.694,5.556,5.556,0,0,0-5.139,5.532V80.88A2.919,2.919,0,0,1,80.069,83.8" fill="none" stroke="#65a8ff" stroke-linecap="round" stroke-linejoin="round" stroke-width="0.694"/>
          <path id="パス_369" data-name="パス 369" d="M91.088,92.477V63.843a2.719,2.719,0,0,0-2.616-2.755,2.673,2.673,0,0,0-2.708,2.662V81.181a5.582,5.582,0,0,1-5.579,5.579" fill="none" stroke="#65a8ff" stroke-linecap="round" stroke-linejoin="round" stroke-width="0.694"/>
          <line id="線_68" data-name="線 68" x2="1.852" transform="translate(51.042 95.718)" fill="none" stroke="#f84242" stroke-linecap="round" stroke-linejoin="round" stroke-width="0.694"/>
          <path id="パス_370" data-name="パス 370" d="M65.162,95.718H76.736a4.051,4.051,0,0,0,4.051-4.028A23.236,23.236,0,0,0,57.546,68.4H55.671" fill="none" stroke="#f84242" stroke-linecap="round" stroke-linejoin="round" stroke-width="0.694"/>
          <path id="パス_371" data-name="パス 371" d="M84.144,99.19V95.255h5.324V93.4h6.25v1.852h5.324V99.19Z" fill="none" stroke="#f84242" stroke-linecap="round" stroke-linejoin="round" stroke-width="0.694"/>
          <circle id="楕円形_26" data-name="楕円形 26" cx="6.597" cy="6.597" r="6.597" transform="translate(52.431 86.458)" fill="none" stroke="#65a8ff" stroke-linecap="round" stroke-linejoin="round" stroke-width="0.694"/>
          <circle id="楕円形_27" data-name="楕円形 27" cx="2.894" cy="2.894" r="2.894" transform="translate(56.134 90.162)" fill="none" stroke="#65a8ff" stroke-linecap="round" stroke-linejoin="round" stroke-width="0.694"/>
          <path id="パス_372" data-name="パス 372" d="M50.532,74.352a6.306,6.306,0,0,0,3.727,1.227H74.4" fill="none" stroke="#f84242" stroke-linecap="round" stroke-linejoin="round" stroke-width="0.694"/>
          <path id="パス_373" data-name="パス 373" d="M52.245,70.671a2.918,2.918,0,0,0,2.523,1.435H70.023" fill="none" stroke="#f84242" stroke-linecap="round" stroke-linejoin="round" stroke-width="0.694"/>
          <path id="パス_374" data-name="パス 374" d="M55.671,65.856h3.935V68.4" fill="none" stroke="#f84242" stroke-linecap="round" stroke-linejoin="round" stroke-width="0.694"/>
        </g>
        <g id="グループ_134" data-name="グループ 134">
          <path id="パス_375" data-name="パス 375" d="M32.292,20.023H2.662v-4.63h29.63" fill="none" stroke="#65a8ff" stroke-linecap="round" stroke-linejoin="round" stroke-width="0.694"/>
          <path id="パス_376" data-name="パス 376" d="M21.875,35.3V23.958L23.032,22.8V20.486" fill="none" stroke="#65a8ff" stroke-linecap="round" stroke-linejoin="round" stroke-width="0.694"/>
          <path id="パス_377" data-name="パス 377" d="M15.625,20.486V22.8l1.157,1.157V35.3" fill="none" stroke="#65a8ff" stroke-linecap="round" stroke-linejoin="round" stroke-width="0.694"/>
          <path id="パス_378" data-name="パス 378" d="M31.134,12.616H3.125v2.315" fill="none" stroke="#65a8ff" stroke-linecap="round" stroke-linejoin="round" stroke-width="0.694"/>
          <line id="線_69" data-name="線 69" x2="5.556" transform="translate(16.551 23.727)" fill="none" stroke="#65a8ff" stroke-linecap="round" stroke-linejoin="round" stroke-width="0.694"/>
          <path id="パス_379" data-name="パス 379" d="M23.194.579l1.5,2.778,2.778,1.528L24.7,6.389l-1.5,2.778L21.667,6.389l-2.755-1.5,2.755-1.528Z" fill="none" stroke="#f84242" stroke-linecap="round" stroke-linejoin="round" stroke-width="0.694"/>
          <path id="パス_380" data-name="パス 380" d="M12.384,4.884l.972,1.736,1.736.949-1.736.949-.972,1.759-.949-1.759L9.7,7.569l1.736-.949Z" fill="none" stroke="#f84242" stroke-linecap="round" stroke-linejoin="round" stroke-width="0.694"/>
        </g>
        <g id="グループ_135" data-name="グループ 135">
          <path id="パス_381" data-name="パス 381" d="M61.829,66.111,68.8,59.144a2.521,2.521,0,0,1,3.565,3.565L66.62,68.449" fill="none" stroke="#65a8ff" stroke-linecap="round" stroke-linejoin="round" stroke-width="0.694"/>
          <path id="パス_382" data-name="パス 382" d="M71.6,58.125,89.769,39.954a1.26,1.26,0,1,1,1.782,1.782L73.38,59.907" fill="none" stroke="#65a8ff" stroke-linecap="round" stroke-linejoin="round" stroke-width="0.694"/>
          <line id="線_70" data-name="線 70" x2="3.819" y2="3.819" transform="translate(91.944 42.106)" fill="none" stroke="#65a8ff" stroke-linecap="round" stroke-linejoin="round" stroke-width="0.694"/>
          <line id="線_71" data-name="線 71" y1="3.796" x2="3.819" transform="translate(91.69 36.019)" fill="none" stroke="#65a8ff" stroke-linecap="round" stroke-linejoin="round" stroke-width="0.694"/>
          <line id="線_72" data-name="線 72" y1="5.324" transform="translate(90.625 33.681)" fill="none" stroke="#65a8ff" stroke-linecap="round" stroke-linejoin="round" stroke-width="0.694"/>
          <line id="線_73" data-name="線 73" x2="5.324" transform="translate(92.477 41.088)" fill="none" stroke="#65a8ff" stroke-linecap="round" stroke-linejoin="round" stroke-width="0.694"/>
          <line id="線_74" data-name="線 74" x2="10.185" y2="10.162" transform="translate(83.287 38.056)" fill="none" stroke="#65a8ff" stroke-linecap="round" stroke-linejoin="round" stroke-width="0.694"/>
          <line id="線_75" data-name="線 75" x2="10.185" y2="10.185" transform="translate(80.995 40.324)" fill="none" stroke="#65a8ff" stroke-linecap="round" stroke-linejoin="round" stroke-width="0.694"/>
          <line id="線_76" data-name="線 76" x2="10.185" y2="10.185" transform="translate(78.704 42.616)" fill="none" stroke="#65a8ff" stroke-linecap="round" stroke-linejoin="round" stroke-width="0.694"/>
          <line id="線_77" data-name="線 77" x2="3.819" y2="3.819" transform="translate(85.579 35.764)" fill="none" stroke="#65a8ff" stroke-linecap="round" stroke-linejoin="round" stroke-width="0.694"/>
        </g>
        <g id="グループ_136" data-name="グループ 136">
          <path id="パス_383" data-name="パス 383" d="M50.255,5.972c0-2.269-2.2-4.12-4.931-4.12S40.394,3.7,40.394,5.972a6.74,6.74,0,0,0,.625,3.287h8.634s.625-3.194.625-3.287Z" fill="#65a8ff"/>
          <path id="パス_384" data-name="パス 384" d="M19.583,82.87H33.194a3.283,3.283,0,0,0-3.241-2.708,4.12,4.12,0,0,0-8.241,0c0,2.269.046.6.116.9A3.38,3.38,0,0,0,19.56,82.87Z" fill="#65a8ff"/>
          <path id="パス_385" data-name="パス 385" d="M53.125,37.083,46.2,33.333H41.829l-4.12,2.361V48.542l-2.315,11.9a10.309,10.309,0,0,0,9.537,5.37c7.106,0,9.491-7.292,9.606-10.625l-1.782-9.144L53.1,37.06Z" fill="#f84242"/>
          <line id="線_78" data-name="線 78" x2="51.852" transform="translate(0.463 99.537)" fill="none" stroke="#000" stroke-linecap="round" stroke-linejoin="round" stroke-width="0.926"/>
          <path id="パス_386" data-name="パス 386" d="M49.537,12.037v4a6.077,6.077,0,0,1-4.815,5.787,5.766,5.766,0,0,1-6.759-5.671v-4.12H49.537Z" fill="none" stroke="#000" stroke-linecap="round" stroke-linejoin="round" stroke-width="0.926"/>
          <path id="パス_387" data-name="パス 387" d="M46.065,21.3v2.2a2.487,2.487,0,0,1-2.384,2.523A2.44,2.44,0,0,1,41.2,23.588V21.319" fill="none" stroke="#000" stroke-linecap="round" stroke-linejoin="round" stroke-width="0.926"/>
          <path id="パス_388" data-name="パス 388" d="M41.435,24.769H39.444a11.326,11.326,0,0,0-9.421,5.046l-4.815,7.222H15.278v5.787H25.463a5.844,5.844,0,0,0,4.722-2.384L35.9,34.583V46.134l-3.31,23.1H54.954l-3.31-23.1V34.745" fill="none" stroke="#000" stroke-linecap="round" stroke-linejoin="round" stroke-width="0.926"/>
          <path id="パス_389" data-name="パス 389" d="M14.815,42.361H12.523A2.487,2.487,0,0,1,10,39.977,2.44,2.44,0,0,1,12.431,37.5h2.384" fill="none" stroke="#000" stroke-linecap="round" stroke-linejoin="round" stroke-width="0.926"/>
          <path id="パス_390" data-name="パス 390" d="M48.8,25.324l-1.829,6.389H40.394L38.472,25" fill="none" stroke="#000" stroke-linecap="round" stroke-linejoin="round" stroke-width="0.926"/>
          <line id="線_79" data-name="線 79" x2="14.815" transform="translate(36.343 46.528)" fill="none" stroke="#000" stroke-linecap="round" stroke-linejoin="round" stroke-width="0.926"/>
          <path id="パス_391" data-name="パス 391" d="M48.611,4.583c0-2.269-2.2-4.12-4.931-4.12S38.75,2.315,38.75,4.583a6.74,6.74,0,0,0,.625,3.287h8.634s.625-3.194.625-3.287Z" fill="none" stroke="#000" stroke-linecap="round" stroke-linejoin="round" stroke-width="0.926"/>
          <line id="線_80" data-name="線 80" y2="40.509" transform="translate(12.037 42.824)" fill="none" stroke="#000" stroke-linecap="round" stroke-linejoin="round" stroke-width="0.926"/>
          <line id="線_81" data-name="線 81" y2="8.102" transform="translate(12.037 28.935)" fill="none" stroke="#000" stroke-linecap="round" stroke-linejoin="round" stroke-width="0.926"/>
          <path id="パス_392" data-name="パス 392" d="M2.546,99.236l4.1-12.315a5.974,5.974,0,0,1,10.694,0l4.1,12.315" fill="none" stroke="#000" stroke-linecap="round" stroke-linejoin="round" stroke-width="0.926"/>
          <path id="パス_393" data-name="パス 393" d="M49.537,69.444V94.213H37.963V69.444" fill="none" stroke="#000" stroke-linecap="round" stroke-linejoin="round" stroke-width="0.926"/>
          <path id="パス_394" data-name="パス 394" d="M47.8,99.537a2.669,2.669,0,0,0,0-5.324" fill="none" stroke="#000" stroke-linecap="round" stroke-linejoin="round" stroke-width="0.926"/>
          <path id="パス_395" data-name="パス 395" d="M39.56,94.213a2.669,2.669,0,0,0,0,5.324" fill="none" stroke="#000" stroke-linecap="round" stroke-linejoin="round" stroke-width="0.926"/>
          <line id="線_82" data-name="線 82" y2="28.009" transform="translate(43.75 69.444)" fill="none" stroke="#000" stroke-linecap="round" stroke-linejoin="round" stroke-width="0.926"/>
          <path id="パス_396" data-name="パス 396" d="M46.065,24.7c5.9,0,11.111,4.792,11.111,10.694V51.852H53.009" fill="none" stroke="#000" stroke-linecap="round" stroke-linejoin="round" stroke-width="0.926"/>
          <path id="パス_397" data-name="パス 397" d="M57.176,51.389v2.546c0,1.806-1.968,3.287-3.773,3.287" fill="none" stroke="#000" stroke-linecap="round" stroke-linejoin="round" stroke-width="0.926"/>
          <line id="線_83" data-name="線 83" x2="4.653" y2="2.94" transform="translate(46.968 31.782)" fill="none" stroke="#000" stroke-linecap="round" stroke-linejoin="round" stroke-width="0.926"/>
          <line id="線_84" data-name="線 84" x1="4.514" y2="2.801" transform="translate(35.88 31.782)" fill="none" stroke="#000" stroke-linecap="round" stroke-linejoin="round" stroke-width="0.926"/>
          <path id="パス_398" data-name="パス 398" d="M52.731,54a8.982,8.982,0,1,1-17.963-.069" fill="none" stroke="#000" stroke-linecap="round" stroke-linejoin="round" stroke-width="0.926"/>
          <path id="パス_399" data-name="パス 399" d="M17.361,86.852l-.417-3.981H33.4L31.759,98.5" fill="none" stroke="#000" stroke-linecap="round" stroke-linejoin="round" stroke-width="0.926"/>
          <path id="パス_400" data-name="パス 400" d="M32.407,82.87c.185-3.009-1.713-4.19-3.542-4.19a4.12,4.12,0,0,0-8.241,0c0,2.269.046.6.116.9a4.121,4.121,0,0,0-2.778,3.1" fill="none" stroke="#000" stroke-linecap="round" stroke-linejoin="round" stroke-width="0.926"/>
          <path id="パス_401" data-name="パス 401" d="M38.681,5.185A9.871,9.871,0,0,0,33.8,13.7V25.926" fill="none" stroke="#000" stroke-linecap="round" stroke-linejoin="round" stroke-width="0.926"/>
          <path id="パス_402" data-name="パス 402" d="M53.472,27.315V13.7a9.87,9.87,0,0,0-4.838-8.5" fill="none" stroke="#000" stroke-linecap="round" stroke-linejoin="round" stroke-width="0.926"/>
        </g>
      </g>
    </g>
  </g>
</svg>
