<svg xmlns="http://www.w3.org/2000/svg" width="16.731" height="16.731"><g id="グループ_4199" data-name="グループ 4199" transform="translate(-840.974 -155.705)"><path id="パス_40412" data-name="パス 40412" d="M849.358 155.7a8.365 8.365 0 108.347 8.384 8.365 8.365 0 00-8.347-8.384zm-.035 15.624a7.259 7.259 0 117.275-7.243 7.259 7.259 0 01-7.274 7.248z" fill="#464646" fill-rule="evenodd"/><g id="グループ_4198" data-name="グループ 4198" transform="translate(846.025 159.774)"><path id="パス_40413" data-name="パス 40413" d="M884.854 197.04c-.325 0-.482-.144-.482-.421s.157-.41.482-.41h1.807v-.6l-.193-.314h-1.614c-.325 0-.482-.143-.482-.421s.157-.41.482-.41H886l-1.879-3.094a.914.914 0 01-.1-.385.7.7 0 01.77-.6.688.688 0 01.518.3l2.119 3.818 2.12-3.83a.623.623 0 01.493-.289.728.728 0 01.746.614.741.741 0 01-.1.349l-1.975 3.118h1.24c.325 0 .482.145.482.41s-.157.421-.482.421h-1.747l-.18.29v.626h1.927c.325 0 .482.144.482.41s-.157.421-.482.421h-1.927v1.722a.655.655 0 01-.674.747.672.672 0 01-.7-.747v-1.725z" transform="translate(-884.023 -190.381)" fill="#464646"/></g></g></svg>