<svg xmlns="http://www.w3.org/2000/svg" width="16.323" height="16"><g id="Group_5506" data-name="Group 5506" transform="translate(-803.984 -1237.324)"><g id="注射器のアイコン素材" transform="translate(803.98 1232.256)" fill="#4b4b4b"><path id="Path_41040" data-name="Path 41040" d="M90.671 129.486a.323.323 0 01-.109.073.334.334 0 01-.188.018.323.323 0 01-.17-.091l-2.442-2.442a.325.325 0 01-.073-.109.333.333 0 01-.018-.188.325.325 0 01.091-.17l5.047-5.047-.755-.754-5.046 5.046a1.4 1.4 0 000 1.976l2.442 2.442a1.384 1.384 0 00.462.307 1.4 1.4 0 001.514-.307l5.047-5.046-.755-.754z" transform="translate(-83.833 -112.019)"/><path id="Path_41041" data-name="Path 41041" d="M84.406 375.091a.391.391 0 00-.074.537l.435.435a.39.39 0 00.537-.074l.817-.817-.9-.9z" transform="translate(-81.565 -357.435)"/><path id="Path_41042" data-name="Path 41042" d="M0 428.792l.808.161L2.9 426.87l-.485-.485z" transform="translate(0 -407.885)"/><path id="Path_41043" data-name="Path 41043" d="M262.142 49.488a.952.952 0 10-1.347 1.347l4.706 4.706a.952.952 0 001.347-1.347z" transform="translate(-252.206 -42.734)"/><path id="Path_41044" data-name="Path 41044" d="M371.62 7.838l-2.491-2.491a.952.952 0 10-1.346 1.347l.258.258-.755.755.755.754.754-.754.467.467-.755.754.755.754.754-.754.258.258a.953.953 0 101.347-1.348z" transform="translate(-355.571)"/><rect id="Rectangle_4018" data-name="Rectangle 4018" width="1.275" height=".457" transform="rotate(45 -10.176 17.359)"/><path id="Path_41045" data-name="Path 41045" d="M240.5 274.125l.323-.323-.9-.9-.323.323z" transform="translate(-231.955 -259.293)"/><rect id="Rectangle_4019" data-name="Rectangle 4019" width=".457" height="1.276" transform="rotate(135 .529 9.464)"/></g></g></svg>