<svg xmlns="http://www.w3.org/2000/svg" width="13.412" height="16.46"><g id="グループ_4201" data-name="グループ 4201" transform="translate(-3 -443)"><g id="グループ_3237" data-name="グループ 3237" transform="translate(3 443)"><g id="グループ_3236" data-name="グループ 3236"><g id="グループ_3235" data-name="グループ 3235" fill="#464646"><path id="パス_38217" data-name="パス 38217" d="M1022.854 2033.506a.637.637 0 001.223-.247v-10.643a.637.637 0 00-.183-.447l-3.555-3.6a.628.628 0 00-.457-.192h-8.58a.637.637 0 00-.637.637v15.186a.638.638 0 00.637.639h12.138a.638.638 0 00.637-.639v-.906a.637.637 0 00-1.225-.246.648.648 0 00-.049.246v.269h-10.863v-13.911h7.259v3a.639.639 0 00.637.639h2.969v9.964a.631.631 0 00.049.251z" transform="translate(-1010.666 -2018.381)"/><g id="グループ_3234" data-name="グループ 3234" transform="translate(2.467 3.394)"><path id="パス_38218" data-name="パス 38218" d="M1054.37 2115.042h7.8a.438.438 0 000-.876h-7.8a.438.438 0 000 .876z" transform="translate(-1053.933 -2112.097)"/><path id="パス_38219" data-name="パス 38219" d="M1062.173 2150.465h-7.8a.437.437 0 100 .874h7.8a.437.437 0 100-.874z" transform="translate(-1053.933 -2146.327)"/><path id="パス_38220" data-name="パス 38220" d="M1054.37 2078.774h5.1a.438.438 0 000-.876h-5.1a.438.438 0 000 .876z" transform="translate(-1053.933 -2077.898)"/><path id="パス_40410" data-name="パス 40410" d="M1062.173 2150.465h-7.8a.437.437 0 100 .874h7.8a.437.437 0 100-.874z" transform="translate(-1053.933 -2144.124)"/><path id="パス_40411" data-name="パス 40411" d="M1062.173 2150.465h-7.8a.437.437 0 100 .874h7.8a.437.437 0 100-.874z" transform="translate(-1053.933 -2141.921)"/></g></g></g></g></g></svg>