<svg xmlns="http://www.w3.org/2000/svg" width="17.034" height="16.956"><g id="グループ_4201" data-name="グループ 4201" transform="translate(78.704 -179.453)"><g id="グループ_4200" data-name="グループ 4200" transform="translate(-78.704 179.453)"><path id="パス_804_-_アウトライン" data-name="パス 804 - アウトライン" d="M-77.912 196.406a.792.792 0 01-.679-.384.786.786 0 01-.089-.6 10.749 10.749 0 013.18-5.522 8.1 8.1 0 012.313-1.444 5 5 0 01-1-7 5 5 0 017-1 5 5 0 011 7 5 5 0 01-1 1 8.1 8.1 0 012.316 1.444 10.75 10.75 0 013.178 5.527.791.791 0 01-.576.96.791.791 0 01-.96-.576c-.981-3.917-3.646-6.35-6.957-6.35s-5.977 2.43-6.958 6.347a.79.79 0 01-.768.598zm7.724-15.376a3.422 3.422 0 00-3.422 3.423 3.422 3.422 0 003.422 3.423 3.423 3.423 0 003.423-3.423 3.427 3.427 0 00-3.423-3.423z" transform="translate(78.704 -179.453)" fill="#464646"/></g></g></svg>