<svg xmlns="http://www.w3.org/2000/svg" width="16.843" height="17"><g id="Group_5505" data-name="Group 5505" transform="translate(-801 -251)"><g id="コメントの無料アイコン" transform="translate(801 251)"><g id="Group_5504" data-name="Group 5504"><path id="Path_41036" data-name="Path 41036" d="M40.084 2.124a9.41 9.41 0 0111.91 0 6.768 6.768 0 012.467 5.127 6.713 6.713 0 01-2.232 4.916 8.872 8.872 0 01-4.766 2.233v1.945a.66.66 0 01-.442.6.866.866 0 01-.816-.093L40.624 12.8a7.406 7.406 0 01-2.31-2.53 6.356 6.356 0 01-.7-3.024 6.768 6.768 0 012.47-5.122zm-.375 7.607a6.046 6.046 0 001.9 2.063l4.323 3.13v-1.107a.708.708 0 01.7-.657 7.338 7.338 0 004.468-1.888 5.487 5.487 0 001.83-4.021 5.534 5.534 0 00-2.018-4.2 7.7 7.7 0 00-9.744 0 5.532 5.532 0 00-2.018 4.2 5.2 5.2 0 00.559 2.48z" transform="translate(-37.618)" fill="#4b4b4b"/></g><path id="Path_41037" data-name="Path 41037" d="M126.122 191.906a.827.827 0 11-.827.827.827.827 0 01.827-.827z" transform="translate(-114.211 -185.491)" fill="#4b4b4b"/><path id="Path_41038" data-name="Path 41038" d="M230.358 191.906a.827.827 0 11-.827.827.827.827 0 01.827-.827z" transform="translate(-221.936 -185.491)" fill="#4b4b4b"/><path id="Path_41039" data-name="Path 41039" d="M334.594 191.906a.827.827 0 11-.827.827.827.827 0 01.827-.827z" transform="translate(-329.661 -185.491)" fill="#4b4b4b"/></g></g></svg>