<svg xmlns="http://www.w3.org/2000/svg" width="19.302" height="18.246"><defs><clipPath id="clip-path"><rect id="長方形_3109" data-name="長方形 3109" width="19.302" height="18.246" fill="#5bc0de"/></clipPath></defs><g id="グループ_4202" data-name="グループ 4202" clip-path="url(#clip-path)"><path id="パス_40417" data-name="パス 40417" d="M16.781 2.365A10.49 10.49 0 009.651 0a10.49 10.49 0 00-7.13 2.364A7.629 7.629 0 000 8.145a7.561 7.561 0 002.27 5.543 9.725 9.725 0 006.014 2.537l.211 1.24a.932.932 0 00.667.745.95.95 0 00.262.037.931.931 0 00.7-.316l1.59-1.789a9.3 9.3 0 005.568-2.709A7.6 7.6 0 0019.3 8.145a7.628 7.628 0 00-2.521-5.78m-7.027 11.3a.892.892 0 11.892-.892.89.89 0 01-.892.892m1.7-5.633a2.244 2.244 0 00-1.046 1.91c-.028.321-.07.655-.627.655-.655 0-.655-.46-.655-.655a2.987 2.987 0 011.241-2.51c1.353-1.143 1.59-1.353 1.59-2.175A1.96 1.96 0 009.8 3.385a2.664 2.664 0 00-1.924.809c-.4.446-.446.5-.683.5a.6.6 0 01-.593-.64c0-.376.683-.892.711-.92a3.862 3.862 0 012.538-.906 3.128 3.128 0 013.4 3c0 1.325-.655 1.855-1.8 2.8" transform="translate(0 -.001)" fill="#5bc0de"/></g></svg>