<svg xmlns="http://www.w3.org/2000/svg" width="16.956" height="16.956"><g id="グループ_4200" data-name="グループ 4200" transform="translate(-9.705 -9.705)" fill="#4f4f4f"><path id="パス_40414" data-name="パス 40414" d="M18.183 26.661a8.478 8.478 0 118.478-8.478 8.488 8.488 0 01-8.478 8.478zm0-15.709a7.23 7.23 0 107.231 7.23 7.239 7.239 0 00-7.231-7.229z"/><path id="パス_40415" data-name="パス 40415" d="M62.826 58.937a1.305 1.305 0 011.309 1.3v4.495a1.309 1.309 0 01-2.618 0v-4.494a1.305 1.305 0 011.309-1.301z" transform="translate(-44.63 -42.408)" fill-rule="evenodd"/><path id="パス_40416" data-name="パス 40416" d="M61.422 33.044a1.309 1.309 0 111.309 1.3 1.305 1.305 0 01-1.309-1.3z" transform="translate(-44.548 -18.983)" fill-rule="evenodd"/></g></svg>