<svg xmlns="http://www.w3.org/2000/svg" width="227.722" height="47.007"><defs><clipPath id="clip-path"><rect id="長方形_1196" data-name="長方形 1196" width="227.722" height="47.007" fill="none"/></clipPath></defs><g id="logo2"><g id="グループ_30" data-name="グループ 30" clip-path="url(#clip-path)"><path id="パス_125" data-name="パス 125" d="M20.2 44.444c.512-.55-.625-3.961-.794-4.726a45.6 45.6 0 00-2.379-7.429c-1.593-3.88-3.692-8.541-7.191-11.083-3.642-2.647-6.977-.369-7.632 3.7-.733 4.569 1.449 8.693 4.859 11.6a11.868 11.868 0 004.606 2.778c.727.181 4.107.017 2.649 1.093-.828.61-3.035.274-3.945.124A10.841 10.841 0 014 36.707C.754 33.044-1.172 27.4.79 22.658c1.913-4.619 6.871-5.69 10.949-3.212 4.71 2.861 7.643 8.511 9.007 13.689a22.285 22.285 0 01.789 7.448 8.374 8.374 0 01-.7 3.089c-.063.12-.829 1.25-.639.772" fill="#fece3c"/><path id="パス_126" data-name="パス 126" d="M37.037 44.579c.958.282 4.66-3.358 5.386-3.952a58.133 58.133 0 006.56-6.38c3.817-4.286 8.307-9.718 9.217-15.554 1.246-8.012-7.3-8.075-12.3-4.949s-7.547 9.126-7.973 14.842c-.167 2.24.657 3.572 1.132 5.606.8 3.449-1.761-.247-2.316-1.338-2.726-5.352-1.031-11.47 2.292-16.148 2.932-4.128 7.754-7.538 12.976-7.548 5.9-.012 9.63 4.689 9.357 10.4-.322 6.729-4.628 13.088-9.29 17.675a31.363 31.363 0 01-8.483 6.1 15.3 15.3 0 01-4.422 1.47 7.546 7.546 0 01-2.131-.217" fill="#f04850"/><path id="パス_127" data-name="パス 127" d="M22.094 39.719C22.805 39.6 24 37.5 24.48 36.93A49.89 49.89 0 0027.587 33 47.574 47.574 0 0033.1 22.2C34.778 17.573 38.561 5 32 2.273 25.393-.475 19.079 9.267 17.941 14.38c-1.8 8.069 1.839 16.275 7.945 21.532a35.455 35.455 0 009.588 5.661c1.2.5 4.513 1.111 5.152 2.288.821 1.514-.965 1.316-1.92 1.133a32.081 32.081 0 01-17.738-10.443c-5.244-6.226-7.568-15.141-4.689-22.934 2.3-6.222 10.409-14.931 17.678-10.323 7.234 4.587 4.87 16.851 2.284 23.335a31.394 31.394 0 01-7.085 10.92 20.455 20.455 0 01-4.14 3.175 21.38 21.38 0 01-2.922 1" fill="#7dd8c9"/><path id="パス_128" data-name="パス 128" d="M41.935 31.409c.545 1.956 2.954 2.04 4.565 1.608a11.356 11.356 0 004.957-3.163.822.822 0 00-1.163-1.162 10.2 10.2 0 01-3.73 2.585 4.529 4.529 0 01-2.021.318c-.452-.059-.915-.234-1.023-.623a.823.823 0 00-1.585.437" fill="#f04850"/><path id="パス_129" data-name="パス 129" d="M6.845 33.847a3.42 3.42 0 004.948 1.094c1.881-1.276 2.373-3.552 2.366-5.694a.822.822 0 00-1.643 0 7.757 7.757 0 01-.339 2.57 3.917 3.917 0 01-.488.966 2.077 2.077 0 01-.276.338c-.069.073-.14.144-.215.211-.016.016-.192.166-.1.09a2.938 2.938 0 01-.43.276c-.049.026-.1.052-.151.076.054-.02.054-.02 0 0a2.535 2.535 0 01-.283.094 3.669 3.669 0 01-.236.053c.165-.032-.054 0-.092 0h-.273c-.04 0-.079-.005-.118-.009.089.014.084.013-.014 0a3.927 3.927 0 01-.452-.125c.146.051-.057-.027-.087-.043a3.084 3.084 0 01-.265-.158c-.136-.087.048.065-.073-.061-.053-.055-.108-.108-.161-.162-.12-.123.021.063-.057-.076-.05-.09-.1-.177-.147-.271a.828.828 0 00-1.124-.294.84.84 0 00-.3 1.124" fill="#fece3c"/><path id="パス_130" data-name="パス 130" d="M22.186 25.158a2.483 2.483 0 002.563 2.219 6.344 6.344 0 003.408-.837 9.981 9.981 0 004.3-5.639.829.829 0 00-.574-1.011.839.839 0 00-1.011.574 8.592 8.592 0 01-2.948 4.288 5.419 5.419 0 01-2.315.955c-.442.062-1.74.157-1.776-.549-.054-1.053-1.7-1.059-1.644 0" fill="#7dd8c9"/><rect id="長方形_1195" data-name="長方形 1195" width="159.3" height=".189" transform="translate(65.432 46.818)"/><path id="パス_131" data-name="パス 131" d="M88.979 34.456a2.135 2.135 0 01-1.912.722 2.088 2.088 0 01-2.209-.934 13.83 13.83 0 00-1.4-1.785c-.468-.594-.978-1.359-1.36-1.741a7.888 7.888 0 01-1.4-1.784 21.5 21.5 0 00-1.4-1.785 8.943 8.943 0 01-1.4-1.784c-.383-.382-.765-1.189-1.36-1.784-.127-.212-.425-.51-.722-.935-.17-.467-.6-.679-.935-1.189a1.448 1.448 0 00-1.911-.6 1.715 1.715 0 00-1.147 1.275c-.085.934.042 1.826 0 2.591-.043.892.127 1.784.042 2.634a7.8 7.8 0 000 2.634 11.207 11.207 0 010 2.676c.043.68-.509 1.317-.807 1.826a4.666 4.666 0 01-1.911.68 2.183 2.183 0 01-1.954-.637 2.33 2.33 0 01-.85-1.869 12.29 12.29 0 010-1.784 11.762 11.762 0 010-1.742 6.015 6.015 0 000-1.742 4.781 4.781 0 000-1.741c0-.723-.043-1.1 0-1.742a4.775 4.775 0 010-1.742 8.31 8.31 0 010-1.784 4.783 4.783 0 010-1.742 11.867 11.867 0 000-1.741 8.319 8.319 0 010-1.785c-.17-.467.085-1.019 0-1.741.042-.468-.085-.977 0-1.742-.212-.68 0-.977 0-1.742a7.914 7.914 0 000-1.741 11.586 11.586 0 010-1.742 6.146 6.146 0 010-1.784 3.841 3.841 0 01.85-1.827 3.505 3.505 0 011.954-.68 3.125 3.125 0 011.911.68 3.464 3.464 0 01.807 1.827c.043 1.147-.085 1.954 0 2.888.085 1.062-.085 1.954 0 2.889a26.345 26.345 0 000 3.186c-.085 1.147.765.935 1.062.722.68-.594 1.02-1.019 1.53-1.487a13.837 13.837 0 011.4-1.614A6.486 6.486 0 0077.3 9.6a10.668 10.668 0 011.4-1.614c.255-.468 1.147-1.19 1.444-1.615a13.85 13.85 0 001.4-1.614c.637-.34.892-1.1 1.444-1.657.637-.637 1.317-1.147 2-.977a3.034 3.034 0 011.869.68 1.966 1.966 0 01.892 1.784 3.158 3.158 0 01-.937 2.213c-.339.3-.722 1.062-1.189 1.232-.637.552-.765.935-1.189 1.232a11.083 11.083 0 01-1.19 1.232 16.277 16.277 0 01-1.189 1.232c-.383.3-.85.935-1.19 1.189-.34.638-.977.85-1.189 1.232a4.169 4.169 0 00-1.487 1.487 2.179 2.179 0 00.255 2.124 8.429 8.429 0 001.019 1.275c.17.552.553.467.808.934.552.467.807 1.232 1.486 1.827.595.552.765 1.317 1.487 1.784.34.722 1.147 1.232 1.487 1.827a4.478 4.478 0 001.487 1.784 4.84 4.84 0 001.487 1.784c.637.68.892 1.274 1.486 1.827a7.884 7.884 0 01.638 1.826c.212.935-.34 1.232-.85 1.827"/><path id="パス_132" data-name="パス 132" d="M91.229 7.694a5.367 5.367 0 01-.977-2.294 3.863 3.863 0 01.977-2.336 3.5 3.5 0 012.336-.935 3.011 3.011 0 012.337.935c.679.509.764 1.316.977 2.336a3.053 3.053 0 01-.979 2.294 5.916 5.916 0 01-2.337.934 6.291 6.291 0 01-2.336-.934m4.887 22.726a10.455 10.455 0 01-.042 2.336 2.425 2.425 0 01-.723 1.7 2.739 2.739 0 01-1.784.594 3.3 3.3 0 01-1.784-.594c-.552-.255-.68-.85-.807-1.7a14.139 14.139 0 010-2.336c.042-.637-.085-1.487 0-2.251a13.812 13.812 0 000-2.294 20.59 20.59 0 000-2.294 20.649 20.649 0 010-2.294 5.711 5.711 0 010-2.252 8.274 8.274 0 000-2.294c.085-.807-.128-1.529 0-2.336a2.088 2.088 0 01.807-1.657 2.09 2.09 0 011.784-.6 3.548 3.548 0 011.784.6 2.222 2.222 0 01.723 1.657 10.964 10.964 0 01.042 2.336c.042.935-.042 1.445 0 2.294a6.7 6.7 0 000 2.252 10.343 10.343 0 010 2.294 13.687 13.687 0 000 2.294 13.726 13.726 0 010 2.294 6.67 6.67 0 010 2.251"/><path id="パス_133" data-name="パス 133" d="M119.266 33.4c-.17.892-.3 1.189-.935 1.4a5.849 5.849 0 01-1.742.468 1.331 1.331 0 01-1.274-.468c-.255-.467-.552-.467-.807-1.1-.382-1.02-1.02-1.275-1.359-.892a12.3 12.3 0 01-1.487 1.444 4.751 4.751 0 01-1.615.807 4.305 4.305 0 01-1.911.3 4.2 4.2 0 01-2-.17 9.025 9.025 0 01-1.911-.553 7.768 7.768 0 01-1.742-.934c-.722-.34-.85-.892-1.487-1.359-.6-.68-.807-1.275-1.317-1.912a13.526 13.526 0 01-.849-2.167 8.13 8.13 0 01-.468-2.294 4.532 4.532 0 01-.127-2.294c.17-.637 0-1.656.17-2.506A5.622 5.622 0 0199 18.7a5.708 5.708 0 011.062-2.251c.382-.595.467-.892.722-1.062a2.106 2.106 0 01.892-.935c.6-.467.934-.594 1.444-1.062a15.074 15.074 0 011.614-.764 11.68 11.68 0 011.742-.468 6.984 6.984 0 011.784-.127c.3.042 1.147.127 1.487.17a8.334 8.334 0 011.529.679 2.4 2.4 0 001.062.51c.553.085.935-.212 1.02-1.1V9.393a18.21 18.21 0 000-2.634c-.127-.764.042-1.572 0-2.676a1.839 1.839 0 01.807-1.657 2.4 2.4 0 011.784-.594c.765.212 1.36.169 1.784.594a2.857 2.857 0 01.723 1.657 10.14 10.14 0 01.042 2.549 9.2 9.2 0 010 2.421c0 .68-.042 1.7 0 2.464a9.58 9.58 0 000 2.464 15.957 15.957 0 000 2.464 9.584 9.584 0 000 2.464 23.809 23.809 0 010 2.464 15.405 15.405 0 000 2.421c.085.552-.042 1.4 0 1.827.128.679-.042 1.274.043 1.869.085.467.042 1.317.169 1.826.128.808-.042 1.232.255 1.827.34 1.232.468 1.572.3 2.252m-5.99-14.1c-.042-.382-.552-.892-.722-1.317-.213-.255-.85-.6-1.19-.934-.339-.383-.807-.255-1.317-.6a7.349 7.349 0 01-1.486-.213 4.545 4.545 0 00-2.422.723c-.509.3-.552.594-.892.764a9.639 9.639 0 01-.722 1.02 13.543 13.543 0 00-.892 2.379 7.334 7.334 0 00-.255 2.548 18.756 18.756 0 00.212 2.719c.17.68.213.935.34 1.317a3.079 3.079 0 00.553 1.232 12.218 12.218 0 00.764.977 1.286 1.286 0 00.935.722 6.036 6.036 0 002.294.637 3.548 3.548 0 002.124-.552 12.719 12.719 0 001.529-1.487 21.187 21.187 0 00.977-2c.085-.467.085-1.444.255-2.082a18.319 18.319 0 010-3.058 23.881 23.881 0 00-.085-2.8"/><path id="パス_134" data-name="パス 134" d="M136.937 30.8c-.128.6-.426.722-.6 1.147-.3.255-.34.552-.806 1.062a4.886 4.886 0 01-1.445 1.062 5.761 5.761 0 01-1.657.722c-.467.382-1.316.3-1.741.382a4.178 4.178 0 01-1.741.128c-.723-.128-1.53.17-2.38-.17a4.681 4.681 0 01-2.336-.637 5.724 5.724 0 01-2.082-1.062c-.467-.085-.764-.552-.977-.765a8.961 8.961 0 01-.849-.934 2.582 2.582 0 01-.34-1.36 1.738 1.738 0 01.679-1.444 1.779 1.779 0 011.487-.552 2.035 2.035 0 011.7.722 1.9 1.9 0 001.146.977c.553.382.68.6 1.19.68a7.3 7.3 0 002.762.552 5.365 5.365 0 002.549-.722c.509-.383.763-.51.763-.935.17-.127.17-.637.3-1.317a2.092 2.092 0 00-1.147-2.039 9.182 9.182 0 00-2.421-.892 7.315 7.315 0 01-1.4-.34A26.079 26.079 0 01125 24.3c-.339-.339-.977-.339-1.189-.594-.255-.255-.977-.3-1.147-.722a2.213 2.213 0 01-.934-1.02c-.128-.127-.3-.722-.595-1.147a25.236 25.236 0 01-.425-2.591c0-.468-.085-1.19.212-1.487.17-.467.128-.85.51-1.274a2.576 2.576 0 01.807-1.105c.128-.212.722-.467 1.02-.85a4.52 4.52 0 001.232-.679c.17-.3.849-.17 1.317-.468a6.915 6.915 0 012.8-.382 4.782 4.782 0 001.953.128 3.782 3.782 0 011.955.467 4.109 4.109 0 011.826.765c.51.509.935.637 1.614 1.231a4.029 4.029 0 01.68 1.657A1.794 1.794 0 01136 17.8c-.636.51-1.061.722-1.571.637a1.46 1.46 0 01-1.529-.552 4.525 4.525 0 00-1.148-.977 2.349 2.349 0 01-1.061-.552 10.232 10.232 0 00-2.039-.383 4.51 4.51 0 00-2.167.553c-.637.254-.849.849-.977 1.741.085 1.062.255 1.445.935 1.827a2.56 2.56 0 001.359.552 2.209 2.209 0 001.4.34 6.957 6.957 0 001.572.34 4.686 4.686 0 011.486.51 6.913 6.913 0 011.615.679c.382.213.892.34 1.274.6a2.309 2.309 0 011.147 1.147c.51.467.468 1.147.85 1.912a7.1 7.1 0 01.212 2.081 14.489 14.489 0 01-.424 2.549"/><path id="パス_135" data-name="パス 135" d="M170.791 13.216c-.339.594-.127 1.274-.467 1.7a6.4 6.4 0 01-.807 1.614c-.34.382-.892 1.19-1.1 1.4a6.725 6.725 0 01-1.87 1.444 5.986 5.986 0 01-2.124.935 6.713 6.713 0 01-2.252.51 10.866 10.866 0 01-2.335.17c-.723-.085-1.02.17-1.615 0a9.112 9.112 0 00-2.167 0 1.977 1.977 0 00-1.486.552 2.369 2.369 0 00-.807 1.572c-.043.934 0 1.317 0 2.039a6.448 6.448 0 000 1.571c.17 1.062-.086 2.04 0 2.932a17.567 17.567 0 010 2.973 2.08 2.08 0 01-.807 1.827 1.956 1.956 0 01-1.869.68 2.433 2.433 0 01-1.912-.68 2.406 2.406 0 01-.849-1.827c0-1.147-.043-2.251 0-3.1a24.825 24.825 0 010-3.1 14.666 14.666 0 010-3.058c.042-1.062-.043-2.167 0-3.1 0-.849-.043-1.954 0-3.1a14.773 14.773 0 000-3.058 24.346 24.346 0 010-3.059c.127-1.062-.213-1.954 0-3.058a12.761 12.761 0 01.254-2.464 4.948 4.948 0 011.232-2.082 2.612 2.612 0 011.1-.722 12.831 12.831 0 011.274-.382 12.23 12.23 0 012.634-.213c.807-.042 1.741 0 2.761 0a19.781 19.781 0 002.761 0 14.257 14.257 0 002.294.085 12.756 12.756 0 002.294.468 19.48 19.48 0 012.082.849 4.339 4.339 0 011.826 1.444c.553.34.723 1.063.977 1.445a5.213 5.213 0 00.68 1.572c-.084.637.425 1.062.339 1.7a3.4 3.4 0 01.086 1.742c.084.807-.212 1.189-.128 1.784m-5.437-1.742c-.17-.637.085-1.444-.3-2.039a2.081 2.081 0 00-1.061-1.7 5 5 0 00-1.828-.935 11.2 11.2 0 00-2.123-.255 7.8 7.8 0 01-2 0c-.849.043-1.274 0-2.039 0-.594.043-1.4-.085-1.954.51-.34.34-.3.977-.3 1.614-.17.807.17 1.36 0 2-.043.892.042 1.529 0 2.039a22.883 22.883 0 000 2.464 1.9 1.9 0 00.807 1.019 2.142 2.142 0 001.486.425 12.228 12.228 0 002.167 0 2.972 2.972 0 001.615 0c.679-.085 1.444-.255 2.251-.34a13.019 13.019 0 001.912-1.189 2.276 2.276 0 001.019-1.614 5.429 5.429 0 00.34-2"/><path id="パス_136" data-name="パス 136" d="M189.693 34.456a1.667 1.667 0 01-1.4.68 5.9 5.9 0 01-1.4-.213 4.4 4.4 0 01-1.275-.552 4.954 4.954 0 01-1.147-1.019.675.675 0 00-1.146.042 7.4 7.4 0 01-1.318.935 7.257 7.257 0 01-2.124.807 5.02 5.02 0 01-2.294.212 2.825 2.825 0 01-1.614-.127 3.807 3.807 0 01-1.614-.34 5.512 5.512 0 01-1.444-.68c-.425-.382-.935-.509-1.275-1.062a11.364 11.364 0 01-1.189-2.081 8.9 8.9 0 01-.382-2.337 4.521 4.521 0 01.34-2.379 6.106 6.106 0 01.933-1.826c.256-.468.893-.807 1.4-1.445.552-.212.934-.637 1.784-1.019a4.366 4.366 0 012.039-.722 4.857 4.857 0 012.124-.383c.723.043 1.316-.254 2.719-.254a1.344 1.344 0 001.486-.978 3.66 3.66 0 00-.254-1.656c-.3-.213-.3-.68-.68-1.02a2.426 2.426 0 00-2.464-.849 3.678 3.678 0 00-2.166.382 3.607 3.607 0 00-1.87 1.062 3.9 3.9 0 01-1.784.892c-.721.17-1.1-.212-1.614-.637a2.509 2.509 0 01-.723-1.572 1.677 1.677 0 01.553-1.359 13.208 13.208 0 011.7-1.317c.765-.128 1.19-.637 1.912-.892.594-.085 1.19-.383 2.081-.553.638-.042 1.318-.169 2.081-.169.553-.128.936.254 1.743.127.764-.043 1.189.34 1.742.382a7.327 7.327 0 001.613.68c.3.425 1.106.6 1.36 1.147.085.382.679.807.807 1.1a9.6 9.6 0 01.51 1.232 4.371 4.371 0 01.382 2.634c.043.595-.042 1.19 0 1.912 0 .849-.042 1.4 0 1.954a5.949 5.949 0 010 1.954 9.576 9.576 0 000 1.912 5.507 5.507 0 00.17 2.379 4.849 4.849 0 001.275 2 2.512 2.512 0 01.934 1.529 2.823 2.823 0 01-.51 1.487m-6.8-8.241a2.351 2.351 0 00-.467-1.317 2.089 2.089 0 00-1.232-.51c-.722.085-1.53.213-1.869.255-.68.213-1.062.128-1.4.34a10.009 10.009 0 00-2.124 1.232 4.315 4.315 0 00-.849 2.167 2.824 2.824 0 00.849 2.251 3.2 3.2 0 002.549.807 3.877 3.877 0 001.826-.34 2.927 2.927 0 001.4-1.019 3.825 3.825 0 001.062-1.53c.127-.467.084-1.062.254-2.336"/><path id="パス_137" data-name="パス 137" d="M204.858 14.575c-.17.722-.042 1.1-.382 1.444-.213.34-.553.892-1.147.892a3.638 3.638 0 01-2.039.255 4.433 4.433 0 00-2.124 1.1c-.127.212-.467.51-.765.892-.128.595-.552.765-.68 1.147a4.424 4.424 0 00-.721 2.341 18.515 18.515 0 01-.213 2.422 4.3 4.3 0 000 1.954 7.516 7.516 0 000 1.954 10 10 0 010 1.954 15.621 15.621 0 010 2c.043.637-.553 1.189-.765 1.656-.425.6-1.1.468-1.784.6a4.2 4.2 0 01-1.784-.552c-.425-.51-.935-1.062-.765-1.7 0-.893-.085-1.445-.043-2.337a20.8 20.8 0 010-2.294c-.212-.722.128-1.4 0-2.294.043-.594-.042-1.614 0-2.294a6.949 6.949 0 010-2.294 10.333 10.333 0 000-2.294 5.725 5.725 0 010-2.251c-.212-.68.17-1.657.043-2.336a3.761 3.761 0 01.765-1.657 4.216 4.216 0 011.741-.6 3.467 3.467 0 011.657.637c.468.383.552.722.552 1.657 0 .807.086 1.147.51 1.1.256 0 .467-.637.977-1.316a4.744 4.744 0 01.892-.977c.426-.128.638-.553 1.062-.68a9.732 9.732 0 012.549-.637c.807-.043 1.572 0 1.912.722a2.323 2.323 0 01.552 1.784"/><path id="パス_138" data-name="パス 138" d="M224.271 34.371a1.82 1.82 0 01-1.785.68 1.955 1.955 0 01-1.826-.765 5.1 5.1 0 01-.977-1.274c-.128-.3-.68-.723-.892-1.19-.255-.552-.553-.6-.935-1.232-.51-.255-.552-.722-.892-1.232-.255-.424-.679-.637-.935-1.189-.17-.382-.722-.807-.934-1.232a9.54 9.54 0 00-1.1-1.487.942.942 0 00-.934-.34 1.594 1.594 0 00-1.147.722c-.34.468-.128 1.062-.128 1.827a5.655 5.655 0 00-.042 1.7c0 .765.17 1.36 0 1.7a7.979 7.979 0 010 1.741 2.993 2.993 0 01-.765 1.657c-.3.382-1.316.51-1.784.595a1.948 1.948 0 01-1.784-.595 1.867 1.867 0 01-.765-1.657 7.026 7.026 0 00-.042-1.869c0-.722-.043-1.147 0-1.784a5.014 5.014 0 010-1.784 8.31 8.31 0 010-1.784 5 5 0 010-1.785 12.63 12.63 0 000-1.784 8.707 8.707 0 010-1.826c-.17-.51.084-1.062 0-1.785.042-.467-.086-1.019 0-1.784-.213-.68 0-1.019 0-1.826a8.344 8.344 0 000-1.785 12.159 12.159 0 010-1.784 4.921 4.921 0 010-1.784c0-.68-.043-1.359 0-1.784a8.183 8.183 0 010-1.784A4.65 4.65 0 01206.641 4a3.014 3.014 0 01.765-1.656 3.552 3.552 0 011.784-.6 3.181 3.181 0 011.784.6c.255.425.893.934.765 1.7.042.637-.042 1.317 0 2.081 0 .85-.042 1.445 0 2.04a6.778 6.778 0 010 2.081c.042.51-.042 1.359 0 2.039.042.722-.042 1.444 0 2.082.042.807-.042 1.317 0 2.039a20.757 20.757 0 000 2.294c-.042.467.552.977.849.764a4.161 4.161 0 00.978-.934c.424-.383.467-.595.807-.892.254-.17.466-.6.976-.977.256-.213.553-.595.936-.892.3-.425.806-.68.976-.977.51-.255.553-.468.935-.893.17-.3.764-.637 1.019-.977.638-.552 1.232-.934 1.827-.764a3.217 3.217 0 011.657.679c.552.638.806.977.806 1.615a2.513 2.513 0 01-.806 1.869c-.723.6-1.105.977-1.53 1.359a3.827 3.827 0 01-1.444 1.275c-.382.382-1.1.934-1.827 1.614a1.347 1.347 0 00-.382 1.742c.638.849.68 1.062 1.19 1.444.085.467.764.934.934 1.189a9.814 9.814 0 00.977 1.19c.256.3.425 1.019.935 1.232.51.3.637.934.977 1.189a2.222 2.222 0 00.934 1.147c.128.51.808.722.978 1.232a10.28 10.28 0 01.594 1.7c.213.892-.3 1.19-.764 1.742"/><path id="パス_139" data-name="パス 139" d="M66.658 38.985h2.5a1.78 1.78 0 011.108.317 1.124 1.124 0 01.419.958 1.146 1.146 0 01-.191.666 1.225 1.225 0 01-.543.429v.015a1.12 1.12 0 01.719.45 1.486 1.486 0 01.244.875 1.469 1.469 0 01-.107.565 1.153 1.153 0 01-.339.454 1.711 1.711 0 01-.591.3 2.916 2.916 0 01-.856.111h-2.363zm.9 2.154h1.469a.806.806 0 00.54-.183.662.662 0 00.217-.531.673.673 0 00-.195-.547.879.879 0 00-.562-.159h-1.469zm0 2.255h1.591a.893.893 0 00.637-.213.78.78 0 00.227-.6.747.747 0 00-.227-.587.914.914 0 00-.637-.205h-1.591z"/><path id="パス_140" data-name="パス 140" d="M80.351 43.3a.44.44 0 00.039.216.169.169 0 00.156.064h.086a.562.562 0 00.115-.013v.568a2.04 2.04 0 01-.252.065 1.433 1.433 0 01-.144.022 1.212 1.212 0 01-.123.007.789.789 0 01-.418-.1.5.5 0 01-.216-.352 1.45 1.45 0 01-.6.345 2.366 2.366 0 01-.688.108 1.679 1.679 0 01-.483-.069 1.225 1.225 0 01-.406-.2.971.971 0 01-.282-.339 1.047 1.047 0 01-.1-.479 1.108 1.108 0 01.126-.562.933.933 0 01.331-.338 1.473 1.473 0 01.462-.176 4.975 4.975 0 01.515-.083 3.878 3.878 0 01.424-.062 1.971 1.971 0 00.357-.061.559.559 0 00.245-.133.367.367 0 00.09-.271.42.42 0 00-.085-.257.513.513 0 00-.188-.156.833.833 0 00-.248-.072 2.007 2.007 0 00-.26-.018 1.033 1.033 0 00-.569.144.568.568 0 00-.252.447h-.821a1.225 1.225 0 01.173-.6 1.171 1.171 0 01.385-.382 1.55 1.55 0 01.53-.2 3.182 3.182 0 01.605-.058 2.573 2.573 0 01.54.058 1.526 1.526 0 01.48.187 1.04 1.04 0 01.341.335.923.923 0 01.13.5zm-.821-1.038a1 1 0 01-.461.148 6.062 6.062 0 00-.548.076 1.747 1.747 0 00-.252.061.78.78 0 00-.216.108.477.477 0 00-.148.18.615.615 0 00-.054.271.347.347 0 00.079.23.569.569 0 00.192.148.891.891 0 00.244.075 1.457 1.457 0 00.242.021 1.275 1.275 0 00.295-.036.948.948 0 00.3-.122.769.769 0 00.234-.22.55.55 0 00.094-.328z"/><path id="パス_141" data-name="パス 141" d="M86.878 38.985h.822v1.9h.014a1.107 1.107 0 01.209-.244 1.314 1.314 0 01.27-.184 1.48 1.48 0 01.31-.115 1.368 1.368 0 01.32-.04 1.787 1.787 0 01.768.155 1.524 1.524 0 01.544.425 1.845 1.845 0 01.324.63 2.673 2.673 0 01.108.772 2.759 2.759 0 01-.1.727 1.889 1.889 0 01-.295.623 1.441 1.441 0 01-1.214.594 2.871 2.871 0 01-.379-.025 1.43 1.43 0 01-.363-.1 1.212 1.212 0 01-.314-.188.9.9 0 01-.234-.3h-.015v.511h-.777zm2.867 3.285a1.821 1.821 0 00-.065-.49 1.313 1.313 0 00-.195-.421 1 1 0 00-.324-.3.884.884 0 00-.446-.111.906.906 0 00-.782.36 1.592 1.592 0 00-.263.958 1.894 1.894 0 00.068.522 1.2 1.2 0 00.205.415 1.035 1.035 0 00.328.273.941.941 0 00.444.1.916.916 0 00.475-.116.987.987 0 00.321-.3 1.2 1.2 0 00.179-.417 2.126 2.126 0 00.055-.479"/><path id="パス_142" data-name="パス 142" d="M96.466 40.4h.9l.973 2.781h.015L99.3 40.4h.857l-1.448 3.927c-.067.168-.133.328-.2.482a1.74 1.74 0 01-.237.407 1.026 1.026 0 01-.35.281 1.2 1.2 0 01-.533.1 3.688 3.688 0 01-.568-.043v-.691c.066.01.131.02.194.032a1.022 1.022 0 00.194.018.664.664 0 00.237-.036.4.4 0 00.156-.1.682.682 0 00.1-.162 1.585 1.585 0 00.079-.217l.094-.288z"/><path id="パス_143" data-name="パス 143" d="M106.94 42.414a1.146 1.146 0 00.1.5.91.91 0 00.28.342 1.184 1.184 0 00.415.194 1.986 1.986 0 00.508.062 1.624 1.624 0 00.5-.069 1 1 0 00.338-.177.645.645 0 00.188-.248.749.749 0 00.058-.285.612.612 0 00-.134-.435.773.773 0 00-.292-.2 6.228 6.228 0 00-.637-.19q-.364-.092-.9-.234a1.945 1.945 0 01-.551-.227 1.328 1.328 0 01-.35-.313 1.118 1.118 0 01-.183-.369 1.459 1.459 0 01-.054-.4 1.34 1.34 0 01.162-.674 1.434 1.434 0 01.428-.472 1.89 1.89 0 01.605-.277 2.729 2.729 0 011.445.015 1.865 1.865 0 01.627.313 1.537 1.537 0 01.428.515 1.516 1.516 0 01.158.71h-.9a.866.866 0 00-.339-.7 1.339 1.339 0 00-.77-.205 1.665 1.665 0 00-.325.032 1.006 1.006 0 00-.3.108.676.676 0 00-.227.205.558.558 0 00-.09.325.55.55 0 00.169.428 1.1 1.1 0 00.444.235l.226.06c.132.036.279.076.444.119s.322.086.478.126l.335.09a1.513 1.513 0 01.439.217 1.372 1.372 0 01.314.313 1.308 1.308 0 01.187.378 1.382 1.382 0 01.062.4 1.461 1.461 0 01-.177.738 1.5 1.5 0 01-.465.5 2.006 2.006 0 01-.655.284 3.089 3.089 0 01-.749.09 3.052 3.052 0 01-.829-.108 1.93 1.93 0 01-.677-.332 1.611 1.611 0 01-.461-.572 1.911 1.911 0 01-.18-.825z"/><path id="パス_144" data-name="パス 144" d="M116.543 38.985h.821v.778h-.821zm0 1.419h.821v3.725h-.821z"/><path id="パス_145" data-name="パス 145" d="M123.5 40.4h.619v-1.112h.821V40.4h.743v.612h-.743v1.989a2.008 2.008 0 00.011.223.4.4 0 00.051.158.238.238 0 00.119.1.579.579 0 00.216.032h.173a.8.8 0 00.173-.025v.635l-.267.028a2.311 2.311 0 01-.267.015 1.816 1.816 0 01-.522-.062.7.7 0 01-.31-.179.625.625 0 01-.151-.3 2.3 2.3 0 01-.047-.411v-2.2h-.619z"/><path id="パス_146" data-name="パス 146" d="M131.519 40.4h.619v-1.112h.822V40.4h.743v.612h-.743v1.989c0 .087 0 .161.01.223a.414.414 0 00.051.158.243.243 0 00.119.1.581.581 0 00.217.032h.172a.812.812 0 00.174-.025v.635l-.268.028a2.294 2.294 0 01-.266.015 1.819 1.819 0 01-.523-.062.706.706 0 01-.309-.179.635.635 0 01-.152-.3 2.5 2.5 0 01-.047-.411v-2.2h-.619z"/><path id="パス_147" data-name="パス 147" d="M140.552 42.479a1.429 1.429 0 00.062.418 1.051 1.051 0 00.184.353.875.875 0 00.309.241 1.021 1.021 0 00.447.09.981.981 0 00.58-.155.915.915 0 00.328-.465h.777a1.521 1.521 0 01-.222.54 1.575 1.575 0 01-.383.4 1.639 1.639 0 01-.5.244 2 2 0 01-.58.083 1.962 1.962 0 01-.777-.144 1.611 1.611 0 01-.575-.4 1.7 1.7 0 01-.351-.62 2.493 2.493 0 01-.119-.792 2.237 2.237 0 01.125-.753 1.948 1.948 0 01.361-.627 1.746 1.746 0 01.564-.429 1.727 1.727 0 01.75-.158 1.68 1.68 0 01.79.184 1.744 1.744 0 01.58.486 1.993 1.993 0 01.334.695 2.14 2.14 0 01.054.811zm1.916-.541a1.36 1.36 0 00-.082-.374.947.947 0 00-.188-.313.9.9 0 00-.287-.216.843.843 0 00-.379-.083.989.989 0 00-.392.075.912.912 0 00-.3.209 1.044 1.044 0 00-.2.313 1.109 1.109 0 00-.084.389z"/><path id="パス_148" data-name="パス 148" d="M149.536 40.4h.77v.721h.015a.811.811 0 01.141-.3 1.274 1.274 0 01.252-.263 1.261 1.261 0 01.326-.19.994.994 0 01.369-.073c.1 0 .162 0 .2.007l.112.015v.793a3.389 3.389 0 00-.176-.026 1.542 1.542 0 00-.178-.01.947.947 0 00-.392.082.912.912 0 00-.321.245 1.22 1.22 0 00-.215.4 1.75 1.75 0 00-.08.547v1.773h-.82z"/><path id="パス_149" data-name="パス 149" d="M166.019 42.414a1.16 1.16 0 00.1.5.912.912 0 00.281.342 1.171 1.171 0 00.414.194 2 2 0 00.508.062 1.615 1.615 0 00.5-.069 1.01 1.01 0 00.339-.177.645.645 0 00.188-.248.767.767 0 00.057-.285.617.617 0 00-.133-.435.784.784 0 00-.293-.2 6.152 6.152 0 00-.637-.19q-.363-.092-.9-.234a1.945 1.945 0 01-.551-.227 1.312 1.312 0 01-.35-.313 1.1 1.1 0 01-.183-.369 1.422 1.422 0 01-.055-.4 1.35 1.35 0 01.162-.674 1.445 1.445 0 01.428-.472 1.9 1.9 0 01.605-.277 2.733 2.733 0 011.446.015 1.865 1.865 0 01.627.313 1.534 1.534 0 01.427.515 1.516 1.516 0 01.158.71h-.9a.866.866 0 00-.338-.7 1.343 1.343 0 00-.771-.205 1.672 1.672 0 00-.325.032 1.015 1.015 0 00-.3.108.7.7 0 00-.227.205.558.558 0 00-.09.325.551.551 0 00.17.428 1.092 1.092 0 00.444.235l.226.06c.131.036.279.076.444.119s.322.086.478.126.268.072.334.09a1.519 1.519 0 01.44.217 1.372 1.372 0 01.314.313 1.308 1.308 0 01.187.378 1.38 1.38 0 01.061.4 1.46 1.46 0 01-.176.738 1.519 1.519 0 01-.465.5 2.012 2.012 0 01-.656.284 3.2 3.2 0 01-1.578-.018 1.925 1.925 0 01-.676-.332 1.6 1.6 0 01-.461-.572 1.925 1.925 0 01-.181-.825z"/><path id="パス_150" data-name="パス 150" d="M176.24 42.479a1.429 1.429 0 00.062.418 1.051 1.051 0 00.184.353.875.875 0 00.309.241 1.021 1.021 0 00.447.09.981.981 0 00.58-.155.915.915 0 00.328-.465h.777a1.521 1.521 0 01-.222.54 1.575 1.575 0 01-.383.4 1.639 1.639 0 01-.5.244 2 2 0 01-.58.083 1.962 1.962 0 01-.777-.144 1.611 1.611 0 01-.575-.4 1.7 1.7 0 01-.351-.62 2.493 2.493 0 01-.119-.792 2.237 2.237 0 01.125-.753 1.948 1.948 0 01.361-.627 1.746 1.746 0 01.564-.429 1.727 1.727 0 01.75-.158 1.68 1.68 0 01.79.184 1.744 1.744 0 01.58.486 1.993 1.993 0 01.334.695 2.14 2.14 0 01.054.811zm1.916-.541a1.36 1.36 0 00-.082-.374.947.947 0 00-.188-.313.9.9 0 00-.287-.216.843.843 0 00-.379-.083.989.989 0 00-.392.075.912.912 0 00-.3.209 1.044 1.044 0 00-.2.313 1.108 1.108 0 00-.084.389z"/><path id="パス_151" data-name="パス 151" d="M185.224 40.4h.77v.721h.015a.811.811 0 01.141-.3 1.275 1.275 0 01.252-.263 1.26 1.26 0 01.326-.19.994.994 0 01.369-.073c.1 0 .162 0 .2.007l.112.015v.793a3.389 3.389 0 00-.176-.026 1.542 1.542 0 00-.178-.01.947.947 0 00-.392.082.912.912 0 00-.321.245 1.22 1.22 0 00-.215.4 1.751 1.751 0 00-.08.547v1.773h-.82z"/><path id="パス_152" data-name="パス 152" d="M193.009 40.4h.895l.943 2.86h.014l.908-2.86h.849l-1.332 3.725h-.922z"/><path id="パス_153" data-name="パス 153" d="M202.757 38.985h.822v.778h-.822zm0 1.419h.822v3.725h-.822z"/><path id="パス_154" data-name="パス 154" d="M212.6 41.65a.769.769 0 00-.277-.521.9.9 0 00-.573-.177 1.179 1.179 0 00-.339.053.8.8 0 00-.331.2 1.136 1.136 0 00-.253.41 1.967 1.967 0 00-.1.688 2.07 2.07 0 00.053.461 1.239 1.239 0 00.174.41.939.939 0 00.306.292.865.865 0 00.453.112.827.827 0 00.594-.223 1.044 1.044 0 00.293-.627h.82a1.8 1.8 0 01-.55 1.113 1.682 1.682 0 01-1.157.385 1.9 1.9 0 01-.773-.147 1.646 1.646 0 01-.567-.4 1.723 1.723 0 01-.349-.608 2.413 2.413 0 01-.119-.764 2.633 2.633 0 01.115-.785 1.829 1.829 0 01.346-.638 1.6 1.6 0 01.574-.424 1.908 1.908 0 01.8-.156 2.245 2.245 0 01.615.083 1.63 1.63 0 01.519.248 1.332 1.332 0 01.371.418 1.43 1.43 0 01.172.6z"/><path id="パス_155" data-name="パス 155" d="M220.357 42.479a1.428 1.428 0 00.061.418 1.031 1.031 0 00.183.353.9.9 0 00.311.241 1.018 1.018 0 00.445.09.981.981 0 00.58-.155.915.915 0 00.328-.465h.779a1.56 1.56 0 01-.605.941 1.673 1.673 0 01-.5.244 2.125 2.125 0 01-1.357-.061 1.621 1.621 0 01-.573-.4 1.728 1.728 0 01-.353-.62 2.55 2.55 0 01-.119-.792 2.238 2.238 0 01.127-.753 1.944 1.944 0 01.359-.627 1.754 1.754 0 01.566-.429 1.725 1.725 0 01.749-.158 1.678 1.678 0 01.789.184 1.724 1.724 0 01.58.486 2 2 0 01.336.695 2.14 2.14 0 01.052.811zm1.916-.541a1.293 1.293 0 00-.084-.374.978.978 0 00-.186-.313.906.906 0 00-.289-.216.836.836 0 00-.378-.083 1 1 0 00-.393.075.884.884 0 00-.3.209 1.012 1.012 0 00-.2.313 1.065 1.065 0 00-.082.389z"/><path id="パス_156" data-name="パス 156" d="M226.162 5.854a3.524 3.524 0 00-.28-.81c-.275-.66-.462-.848-.843-.848h-.834v1.089a3.1 3.1 0 00.039.569h-.525a3.185 3.185 0 00.038-.569V2.7a3.64 3.64 0 00-.038-.574 9.5 9.5 0 00.554.014h1.084c.713 0 1.1.338 1.1.955a.908.908 0 01-.271.707.976.976 0 01-.52.25c.193.064.314.193.487.531.106.208.222.458.375.814a4.3 4.3 0 00.222.458zM225.3 3.8a.754.754 0 00.521-.2.633.633 0 00.173-.467c0-.395-.231-.6-.67-.6h-1.118V3.8z"/><circle id="楕円形_1" data-name="楕円形 1" cx="2.5" cy="2.5" r="2.5" transform="translate(222.55 1.465)" fill="none" stroke="#000" stroke-miterlimit="10" stroke-width=".344"/></g></g></svg>