<svg xmlns="http://www.w3.org/2000/svg" width="26.706" height="25.245"><g id="グループ_3329" data-name="グループ 3329" transform="translate(-1270.214 -2825.139)"><g id="グループ_3326" data-name="グループ 3326" transform="translate(1270.214 2825.139)"><path id="パス_38228" data-name="パス 38228" d="M1283.253 2850.384a1.318 1.318 0 01-.363-.051 1.289 1.289 0 01-.923-1.031l-.292-1.716a13.455 13.455 0 01-8.321-3.51 10.922 10.922 0 01.348-15.665c2.394-2.14 5.806-3.271 9.865-3.271s7.471 1.131 9.865 3.271a10.938 10.938 0 01.691 15.313 12.872 12.872 0 01-7.7 3.748l-2.2 2.476a1.289 1.289 0 01-.97.436zm.314-23.73c-3.681 0-6.743 1-8.855 2.885a9.409 9.409 0 00-.3 13.452 12.233 12.233 0 007.956 3.128.758.758 0 01.7.629l.316 1.856 2.088-2.349a.756.756 0 01.468-.248c5.838-.76 9.464-4.439 9.464-9.6a9.059 9.059 0 00-2.983-6.867c-2.111-1.889-5.173-2.886-8.854-2.886z" transform="translate(-1270.214 -2825.139)" fill="#fece3c"/></g><g id="グループ_3328" data-name="グループ 3328" transform="translate(1279.048 2831.452)"><g id="グループ_3327" data-name="グループ 3327" fill="#fece3c"><path id="パス_38229" data-name="パス 38229" d="M1363.093 2895.175c.254.214.669.656.816.79a.468.468 0 01-.027.669.5.5 0 01-.682-.04c-.2-.2-.468-.468-.722-.682a3.671 3.671 0 01-2.582 1.084c-2.582 0-4.147-2.6-4.147-4.937 0-2.649 1.739-4.937 4.147-4.937 2.382 0 4.121 2.3 4.121 4.9a5.623 5.623 0 01-.924 3.153zm-3.2-7.064c-2.02 0-3.144 2.167-3.144 3.947a4.484 4.484 0 00.923 2.783 3.007 3.007 0 012.368-1.111 3.736 3.736 0 012.261.843 4.634 4.634 0 00.722-2.515c.003-1.779-1.107-3.947-3.123-3.947zm.147 6.542a2.082 2.082 0 00-1.726.87 2.644 2.644 0 001.565.562 2.713 2.713 0 001.846-.776 2.9 2.9 0 00-1.683-.656z" transform="translate(-1355.427 -2886.8)"/><path id="パス_38230" data-name="パス 38230" d="M1357.217 2894.638c-2.76 0-4.468-2.729-4.468-5.257 0-2.948 1.963-5.258 4.468-5.258 2.449 0 4.442 2.341 4.442 5.218a6.02 6.02 0 01-.827 3.1c.126.12.26.255.376.371.1.1.19.191.239.235l.026.027a.786.786 0 01-.059 1.122.816.816 0 01-1.12-.056c-.14-.14-.315-.315-.493-.479a3.942 3.942 0 01-2.584.977zm0-9.873c-2.146 0-3.826 2.028-3.826 4.616 0 2.22 1.463 4.616 3.826 4.616a3.313 3.313 0 002.359-.994l.208-.2.222.187c.263.222.539.5.74.7a.182.182 0 00.248.028.147.147 0 000-.205 9.77 9.77 0 01-.244-.241c-.176-.177-.4-.4-.545-.524l-.222-.187.165-.24a5.288 5.288 0 00.866-2.976c.003-2.527-1.701-4.58-3.797-4.58zm-.013 8.964a2.972 2.972 0 01-1.76-.628l-.235-.18.16-.249a2.4 2.4 0 012-1.017 3.241 3.241 0 011.868.712l.335.232-.3.271a3.021 3.021 0 01-2.072.859zm-1.092-.952a2.235 2.235 0 001.092.311 2.2 2.2 0 001.3-.429 2.126 2.126 0 00-1.138-.36 1.862 1.862 0 00-1.254.477zm-1.122-.105l-.245-.308a4.8 4.8 0 01-.992-2.982c0-2.052 1.325-4.268 3.465-4.268s3.452 2.215 3.452 4.268a4.932 4.932 0 01-.774 2.689l-.181.279-.273-.19a3.41 3.41 0 00-2.077-.785 2.7 2.7 0 00-2.122 1zm2.228-6.916c-1.138 0-2.823 1.152-2.823 3.626a4.248 4.248 0 00.636 2.277 3.3 3.3 0 012.334-.926 3.743 3.743 0 012.158.707 4.339 4.339 0 00.5-2.059c.004-1.463-.889-3.626-2.806-3.626z" transform="translate(-1352.749 -2884.123)"/></g></g></g></svg>