<svg xmlns="http://www.w3.org/2000/svg" width="40.156" height="29.485" viewBox="0 0 40.156 29.485">
  <g id="_イヤー_1-2" transform="translate(0.038 0.015)">
    <g id="グループ_76" data-name="グループ 76" transform="translate(-0.038 -0.015)">
      <path id="パス_154" data-name="パス 154" d="M13.176,41.23c.346-.346-.4-2.57-.544-3.114A27.581,27.581,0,0,0,11.1,33.273c-1.038-2.521-2.422-5.585-4.7-7.265-2.372-1.73-4.547-.247-4.992,2.422a8.331,8.331,0,0,0,3.163,7.611A8.245,8.245,0,0,0,7.592,37.87c.494.1,2.669,0,1.73.692-.544.4-1.977.2-2.57.1A7.216,7.216,0,0,1,2.6,36.189C.475,33.768-.81,30.061.475,27c1.236-3.015,4.5-3.707,7.166-2.076,3.064,1.878,4.992,5.585,5.881,8.945a14.87,14.87,0,0,1,.494,4.893,5.741,5.741,0,0,1-.445,2.026c0,.1-.544.84-.4.494Z" transform="translate(0.038 -12.163)" fill="#fece3c"/>
      <path id="パス_155" data-name="パス 155" d="M47.886,35.279c.642.2,3.064-2.175,3.509-2.57a42.65,42.65,0,0,0,4.3-4.151c2.471-2.817,5.436-6.375,6.029-10.181.791-5.239-4.794-5.288-8.056-3.212-3.262,2.026-4.942,5.98-5.189,9.687-.1,1.483.445,2.323.741,3.657.544,2.273-1.137-.148-1.532-.89-1.779-3.509-.692-7.512,1.483-10.576,1.927-2.718,5.09-4.942,8.5-4.942,3.855,0,6.277,3.064,6.128,6.82-.2,4.4-3.015,8.55-6.079,11.565a21.972,21.972,0,0,1-5.535,4,8.5,8.5,0,0,1-2.866.939c-.346,0-1.631-.1-1.384-.148Z" transform="translate(-23.65 -6.113)" fill="#f04850"/>
      <path id="パス_156" data-name="パス 156" d="M24.475,25.939c.445-.1,1.236-1.433,1.581-1.829.692-.84,1.433-1.68,2.026-2.57a31.778,31.778,0,0,0,3.608-7.067c1.087-3.015,3.558-11.219-.741-13.047C26.65-.3,22.5,6.071,21.757,9.382c-1.186,5.288,1.186,10.626,5.189,14.085a23.623,23.623,0,0,0,6.277,3.707c.791.346,2.965.741,3.361,1.483.544.988-.642.84-1.236.741a21.226,21.226,0,0,1-11.614-6.82c-3.41-4.053-4.942-9.884-3.064-14.975C22.2,3.5,27.49-2.182,32.235.833S35.4,11.854,33.717,16.1a19.959,19.959,0,0,1-4.646,7.117A13.668,13.668,0,0,1,26.353,25.3a12.247,12.247,0,0,1-1.927.642Z" transform="translate(-10.025 0.015)" fill="#7dd8c9"/>
      <path id="パス_157" data-name="パス 157" d="M55.475,39.437c.346,1.285,1.927,1.334,2.965,1.038A8.463,8.463,0,0,0,61.7,38.4c.939-.939-.3-1.236-.741-.741a6.306,6.306,0,0,1-2.422,1.68c-.939.3-.89.247-1.334.2s-.593-.148-.692-.4a.54.54,0,0,0-1.038.3h0Z" transform="translate(-28.027 -18.92)" fill="#f04850"/>
      <path id="パス_158" data-name="パス 158" d="M9.1,40.9a2.191,2.191,0,0,0,3.212.692,4.837,4.837,0,0,0,1.532-3.707c0-1.384-.247-.544-.544-.544a.548.548,0,0,0-.544.544,4.759,4.759,0,0,1-.2,1.68,2.607,2.607,0,0,1-.3.642c-.1.2-.1.1-.2.2l-.148.148c-.049.049-.148.1-.049.049-.1.049-.2.148-.3.2a.153.153,0,0,0-.1.049h0a.374.374,0,0,0-.2.049c-.1.049-.1,0-.148,0H10.78a.363.363,0,0,1-.3-.1h-.049c-.049,0-.1-.049-.148-.1h0l-.1-.1c-.1-.1,0,0,0-.049s-.049-.1-.1-.2a.545.545,0,0,0-.741-.2.613.613,0,0,0-.2.741H9.1Z" transform="translate(-4.584 -18.751)" fill="#fece3c"/>
      <path id="パス_159" data-name="パス 159" d="M29.3,29.534a1.594,1.594,0,0,0,1.68,1.433,4.131,4.131,0,0,0,2.224-.544,6.623,6.623,0,0,0,2.817-3.707c.544-1.483-.1-.593-.4-.642a.551.551,0,0,0-.642.4,5.906,5.906,0,0,1-1.927,2.817,2.252,2.252,0,0,1-1.532.642c-.544.1-1.137.1-1.137-.346a.544.544,0,0,0-1.087,0h0Z" transform="translate(-14.801 -13.07)" fill="#7dd8c9"/>
    </g>
  </g>
</svg>
