<svg xmlns="http://www.w3.org/2000/svg" width="19.192" height="15.994"><g id="parameters_settings_filter_slider_ecommerce_icon_224937" transform="translate(0 -1)" fill="#5bc0de"><path id="Path_41028" data-name="Path 41028" d="M7.067 3A2.78 2.78 0 001.73 3H0v1.6h1.73a2.78 2.78 0 005.337 0h12.125V3zM4.4 5a1.2 1.2 0 111.2-1.2A1.2 1.2 0 014.4 5z"/><path id="Path_41029" data-name="Path 41029" d="M14.794 4.25a2.794 2.794 0 00-2.668 2H0v1.6h12.126a2.78 2.78 0 005.337 0h1.73v-1.6h-1.73a2.794 2.794 0 00-2.669-2zm0 4a1.2 1.2 0 111.2-1.2 1.2 1.2 0 01-1.2 1.198z" transform="translate(0 1.948)"/><path id="Path_41030" data-name="Path 41030" d="M7.2 7.5a2.794 2.794 0 00-2.668 2H0v1.6h4.529a2.78 2.78 0 005.337 0h9.327V9.5H9.866a2.794 2.794 0 00-2.666-2zm0 4a1.2 1.2 0 111.2-1.2 1.2 1.2 0 01-1.2 1.2z" transform="translate(0 3.896)"/></g></svg>