<svg xmlns="http://www.w3.org/2000/svg" width="83.803" height="82.13" viewBox="0 0 83.803 82.13">
  <g id="グループ_46" data-name="グループ 46" transform="translate(-688.373 -785.177)">
    <path id="パス_55" data-name="パス 55" d="M739.515,831.546c0,2.251-4.147,4.076-9.262,4.076s-9.262-1.825-9.262-4.076c0-1.8,2.665-3.335,6.358-3.871l3.274,2.76,2.207-2.8C736.691,828.122,739.515,829.689,739.515,831.546Z" fill="#58c6d9"/>
    <path id="パス_56" data-name="パス 56" d="M730.253,786.347a15.56,15.56,0,0,0-15.56,15.561c0,8.593,15.56,28.9,15.56,28.9s15.56-20.3,15.56-28.9A15.56,15.56,0,0,0,730.253,786.347Zm0,23.341a5.557,5.557,0,1,1,5.557-5.557A5.557,5.557,0,0,1,730.253,809.688Z" fill="#f86464"/>
    <g id="グループ_36" data-name="グループ 36">
      <path id="パス_57" data-name="パス 57" d="M753.508,817.507a1.17,1.17,0,0,1-1.053-1.678c2.683-5.566,4.044-10.25,4.044-13.922a26.152,26.152,0,0,0-3.823-13.627,1.17,1.17,0,1,1,2-1.219,28.5,28.5,0,0,1,4.166,14.846c0,4.027-1.439,9.052-4.277,14.938A1.169,1.169,0,0,1,753.508,817.507Z" fill="#263357"/>
    </g>
    <g id="グループ_37" data-name="グループ 37">
      <path id="パス_58" data-name="パス 58" d="M748.639,813.946a1.171,1.171,0,0,1-1.06-1.664c1.985-4.264,2.992-7.755,2.992-10.375a20.3,20.3,0,0,0-2.456-9.675,1.17,1.17,0,0,1,2.056-1.118,22.644,22.644,0,0,1,2.74,10.793c0,2.964-1.08,6.787-3.211,11.362A1.17,1.17,0,0,1,748.639,813.946Z" fill="#263357"/>
    </g>
    <g id="グループ_38" data-name="グループ 38">
      <path id="パス_59" data-name="パス 59" d="M730.253,831.975a1.171,1.171,0,0,1-.929-.458c-.645-.842-15.8-20.721-15.8-29.609a16.73,16.73,0,1,1,33.46,0c0,8.888-15.157,28.767-15.8,29.609A1.168,1.168,0,0,1,730.253,831.975Zm0-44.458a14.408,14.408,0,0,0-14.391,14.391c0,6.92,11.071,22.444,14.391,26.943,3.32-4.5,14.39-20.023,14.39-26.943A14.407,14.407,0,0,0,730.253,787.517Z" fill="#ff778c"/>
    </g>
    <g id="グループ_39" data-name="グループ 39">
      <path id="パス_60" data-name="パス 60" d="M689.543,867.307a1.17,1.17,0,0,1-1.131-1.471l11.856-44.458a1.169,1.169,0,0,1,1.13-.868h16.374a1.17,1.17,0,1,1,0,2.34H702.3L691.27,864.2l18.592-7.3a1.173,1.173,0,0,1,.87.006l19.521,7.97,19.564-7.97a1.178,1.178,0,0,1,.87-.006l18.592,7.3L758.252,822.85H742.731a1.17,1.17,0,1,1,0-2.34H759.15a1.17,1.17,0,0,1,1.131.868l11.855,44.458a1.17,1.17,0,0,1-1.558,1.39l-20.311-7.979-19.573,7.974a1.173,1.173,0,0,1-.883,0l-19.53-7.974-20.311,7.979A1.152,1.152,0,0,1,689.543,867.307Z" fill="#263357"/>
    </g>
    <g id="グループ_40" data-name="グループ 40">
      <path id="パス_61" data-name="パス 61" d="M730.253,811.228a7.1,7.1,0,1,1,7.1-7.1A7.106,7.106,0,0,1,730.253,811.228Zm0-11.855a4.758,4.758,0,1,0,4.758,4.757A4.763,4.763,0,0,0,730.253,799.373Z" fill="#263357"/>
    </g>
    <g id="グループ_41" data-name="グループ 41">
      <path id="パス_62" data-name="パス 62" d="M707,817.507a1.171,1.171,0,0,1-1.055-.662c-2.837-5.885-4.276-10.911-4.276-14.938a28.5,28.5,0,0,1,4.165-14.846,1.17,1.17,0,0,1,2,1.219,26.154,26.154,0,0,0-3.823,13.627c0,3.673,1.361,8.356,4.044,13.922A1.17,1.17,0,0,1,707,817.507Z" fill="#263357"/>
    </g>
    <g id="グループ_42" data-name="グループ 42">
      <path id="パス_63" data-name="パス 63" d="M711.867,813.946a1.17,1.17,0,0,1-1.061-.677c-2.131-4.575-3.211-8.4-3.211-11.362a22.654,22.654,0,0,1,2.739-10.793,1.17,1.17,0,0,1,2.056,1.118,20.306,20.306,0,0,0-2.455,9.675c0,2.62,1.007,6.111,2.992,10.375a1.171,1.171,0,0,1-1.06,1.664Z" fill="#263357"/>
    </g>
    <g id="グループ_43" data-name="グループ 43">
      <path id="パス_64" data-name="パス 64" d="M710.248,859.391q-.06,0-.12-.006a1.17,1.17,0,0,1-1.045-1.283l2.964-28.9a1.17,1.17,0,1,1,2.327.239l-2.963,28.9A1.17,1.17,0,0,1,710.248,859.391Z" fill="#263357"/>
    </g>
    <g id="グループ_44" data-name="グループ 44">
      <path id="パス_65" data-name="パス 65" d="M750.257,859.391a1.17,1.17,0,0,1-1.162-1.051l-2.964-28.9a1.17,1.17,0,0,1,2.328-.239l2.964,28.9a1.17,1.17,0,0,1-1.045,1.283C750.338,859.389,750.3,859.391,750.257,859.391Z" fill="#263357"/>
    </g>
    <g id="グループ_45" data-name="グループ 45">
      <path id="パス_66" data-name="パス 66" d="M730.994,851.981a1.166,1.166,0,0,1-.463-.1l-1.11-.479a1.17,1.17,0,1,1,.926-2.148l.611.263a1.17,1.17,0,0,1,1.011,2.11l-.451.225A1.163,1.163,0,0,1,730.994,851.981Zm34.056-1.815a1.149,1.149,0,0,1-.465-.1l-1.571-.683a1.17,1.17,0,1,1,.933-2.146l1.571.684a1.17,1.17,0,0,1-.468,2.243Zm-69.622-.407a1.17,1.17,0,0,1-.4-2.269l1.609-.589a1.17,1.17,0,0,1,.805,2.2l-1.609.589A1.186,1.186,0,0,1,695.428,849.759Zm29.21-.516a1.167,1.167,0,0,1-.462-.1l-1.573-.678a1.17,1.17,0,0,1,.925-2.149L725.1,847a1.17,1.17,0,0,1-.464,2.245Zm11.916-.041a1.17,1.17,0,0,1-.524-2.217l1.533-.766a1.17,1.17,0,1,1,1.046,2.093l-1.532.766A1.168,1.168,0,0,1,736.554,849.2ZM702.4,847.208a1.17,1.17,0,0,1-.4-2.269l1.609-.589a1.17,1.17,0,0,1,.8,2.2l-1.609.589A1.162,1.162,0,0,1,702.4,847.208Zm55.842,0a1.166,1.166,0,0,1-.466-.1l-1.571-.683a1.17,1.17,0,1,1,.933-2.146l1.571.683a1.17,1.17,0,0,1-.467,2.243Zm-40.422-.9a1.16,1.16,0,0,1-.462-.1l-1.574-.678a1.17,1.17,0,0,1,.925-2.149l1.574.678a1.17,1.17,0,0,1-.463,2.245Zm25.375-.424a1.17,1.17,0,0,1-.524-2.217l1.533-.766a1.17,1.17,0,1,1,1.046,2.093l-1.532.767A1.18,1.18,0,0,1,743.2,845.881Zm-33.822-1.224a1.17,1.17,0,0,1-.4-2.269l1.609-.589a1.17,1.17,0,1,1,.8,2.2l-1.609.588A1.163,1.163,0,0,1,709.373,844.657Zm42.06-.412a1.167,1.167,0,0,1-.466-.1l-1.572-.683a1.17,1.17,0,0,1,.934-2.146L751.9,842a1.17,1.17,0,0,1-.467,2.243Z" fill="#263357"/>
    </g>
  </g>
</svg>
