<svg xmlns="http://www.w3.org/2000/svg" width="81.227" height="94.239" viewBox="0 0 81.227 94.239">
  <g id="グループ_34" data-name="グループ 34" transform="translate(-973.133 -777.853)">
    <path id="パス_39" data-name="パス 39" d="M1043.854,830.245c1.6,3.2-.038,10.807-4.8,12-12.8,3.2-12.8-5.6-12.8-5.6-8.213-.432-19.983.812-28,4.8-6.814,3.391-10.7,8.948-9.6,15.2,6.4,3.2,17.6,4,23.2,4,3.2,1.6,5.6.8,8.8-3.2,3.163,0,5.875-1.479,7.2-.8.684.351,1.073,2.109.8,3.2.8,0,9.6-.8,16-5.6,5.138-3.854,8.719-9.652,8.8-14.4C1053.554,833.727,1049.453,830.245,1043.854,830.245Z" fill="#58c6d9"/>
    <g id="グループ_22" data-name="グループ 22">
      <path id="パス_40" data-name="パス 40" d="M1039.456,858.271a1.232,1.232,0,0,1-.523-2.349c7.568-3.533,12.584-9.7,12.891-13.383.732-8.786-4.2-10.75-8.573-11.479-2.928-.486-4.817.348-6.818,1.231a18.823,18.823,0,0,1-3.077,1.149c-3.364.84-5.789,2.37-6.33,3.993a1.233,1.233,0,0,1-1.256.839c-9.9-.709-30.076,1.078-35.588,12.89a1.233,1.233,0,0,1-2.234-1.043c5.918-12.68,26.392-14.942,37.135-14.359,1.622-2.908,5.821-4.248,7.674-4.711a17,17,0,0,0,2.68-1.011,13.143,13.143,0,0,1,8.22-1.409c7.722,1.287,11.3,6.037,10.624,14.115-.432,5.181-6.582,11.806-14.305,15.412A1.231,1.231,0,0,1,1039.456,858.271Z" fill="#263357"/>
    </g>
    <g id="グループ_23" data-name="グループ 23">
      <path id="パス_41" data-name="パス 41" d="M1034.049,844.426a10.875,10.875,0,0,1-5.626-1.527,1.232,1.232,0,1,1,1.268-2.113c3.635,2.182,8.608,1.268,12.092-2.215a5.776,5.776,0,0,0,1.849-4.646,4.192,4.192,0,0,0-1.661-3.055,1.232,1.232,0,0,1,1.367-2.051,6.609,6.609,0,0,1,2.746,4.864,8.186,8.186,0,0,1-2.558,6.631A13.547,13.547,0,0,1,1034.049,844.426Z" fill="#263357"/>
    </g>
    <g id="グループ_24" data-name="グループ 24">
      <path id="パス_42" data-name="パス 42" d="M1001.185,872.092c-1.979,0-4.18-.064-6.6-.226-.417-.028-.873-.053-1.358-.082-5.28-.3-14.116-.8-17.221-6.126-5.5-9.426-2.184-24.356,2.325-34.277,1.663-3.658,7.957-7.324,11.39-8.144a1.241,1.241,0,0,1,.9.133l12.793,7.423,11.317-7.572a1.239,1.239,0,0,1,.685-.207c3.43,0,10.038,2.377,12.862,5.151l1.008,1a1.232,1.232,0,0,1-1.736,1.749l-1-.989c-2.236-2.2-7.781-4.272-10.773-4.433l-11.63,7.78a1.234,1.234,0,0,1-1.3.041l-13.014-7.55c-3.024.907-8.069,4.026-9.258,6.641-4.265,9.386-7.464,23.4-2.439,32.015,2.437,4.18,10.446,4.636,15.231,4.908.494.028.958.054,1.382.082a80.127,80.127,0,0,0,17.82-.6l.158-.023-1.1-7.217c-11.755-.1-18.348-.238-25.641-5.1a1.232,1.232,0,0,1,1.368-2.05c6.813,4.542,12.87,4.592,24.937,4.692l.407,0a1.23,1.23,0,0,1,1.207,1.046l1.452,9.521a1.231,1.231,0,0,1-1.247,1.418c-.1-.006-.671.076-1.188.151A77.106,77.106,0,0,1,1001.185,872.092Z" fill="#263357"/>
    </g>
    <g id="グループ_25" data-name="グループ 25">
      <path id="パス_43" data-name="パス 43" d="M1014.309,870.514a1.233,1.233,0,0,1-.384-2.4l3.4-1.114a1.231,1.231,0,0,1,.654-.031,37.163,37.163,0,0,0,6.744,1.029,25.809,25.809,0,0,0,6.84-2.675c.787-.489,1.582-2.755,2.074-5.134l-4.7,1.833a1.221,1.221,0,0,1-.628.071l-3.956-.586a1.232,1.232,0,0,1,.361-2.438l3.632.538,6.413-2.5a1.233,1.233,0,0,1,1.671,1.3c-.154,1.23-1.048,7.445-3.567,9.011-1.465.91-5.922,2.863-7.93,3.036-1.692.152-5.873-.723-7.163-1.005l-3.08,1.009A1.245,1.245,0,0,1,1014.309,870.514Z" fill="#263357"/>
    </g>
    <g id="グループ_26" data-name="グループ 26">
      <path id="パス_44" data-name="パス 44" d="M1016.264,862.868a1.229,1.229,0,0,1-.181-.013l-2.374-.352a1.232,1.232,0,0,1,.361-2.437l1.995.3a13.865,13.865,0,0,0,1.93-2.014,10.96,10.96,0,0,1,1.548-1.632c1.318-.978,7.725-1.581,8.98-1.291a2.422,2.422,0,0,1,1.631,1.225,4.76,4.76,0,0,1-.012,3.514,1.233,1.233,0,0,1-2.314-.85,2.607,2.607,0,0,0,.154-1.5,25.347,25.347,0,0,0-7.008.906,13.252,13.252,0,0,0-1.095,1.216c-1.022,1.213-2.079,2.467-3.207,2.863A1.232,1.232,0,0,1,1016.264,862.868Z" fill="#263357"/>
    </g>
    <path id="パス_45" data-name="パス 45" d="M1045.478,802.831q0-.156-.012-.315a5.3,5.3,0,0,0-4.734-4.88,5.675,5.675,0,0,1-8.567-.035,5.291,5.291,0,0,0-4.745,4.577,5.78,5.78,0,0,0-.042.639,5.006,5.006,0,0,0,1.923,3.91l7.088,5.667,7.141-5.635A4.986,4.986,0,0,0,1045.478,802.831Z" fill="#ff778c"/>
    <path id="パス_46" data-name="パス 46" d="M1049.8,816.346c0-.049,0-.1-.006-.148a2.493,2.493,0,0,0-2.229-2.3,2.672,2.672,0,0,1-4.034-.017,2.492,2.492,0,0,0-2.234,2.156,2.546,2.546,0,0,0-.02.3,2.358,2.358,0,0,0,.905,1.841l3.338,2.668,3.363-2.653A2.349,2.349,0,0,0,1049.8,816.346Z" fill="#ff778c"/>
    <g id="グループ_27" data-name="グループ 27">
      <path id="パス_47" data-name="パス 47" d="M992.3,821.766h-.036a20.312,20.312,0,0,1-9.036-2.468,1.234,1.234,0,0,1-.409-1.811,21.112,21.112,0,0,0,2.862-5.387,20.779,20.779,0,0,0,1.2-6.622.9.9,0,0,1,0-.116v-1.327a1.232,1.232,0,0,1,2.464,0v1.4a23.248,23.248,0,0,1-3.711,12.3,17.68,17.68,0,0,0,6.7,1.564,1.232,1.232,0,0,1-.035,2.464Z" fill="#263357"/>
    </g>
    <g id="グループ_28" data-name="グループ 28">
      <path id="パス_48" data-name="パス 48" d="M1014.636,821.427h-.01a1.233,1.233,0,1,1,0-2.465h.009a17.617,17.617,0,0,0,7.172-1.572,23.33,23.33,0,0,1-2.368-4.813c-.988-2.761-2.083-7.24-2.129-7.429a1.232,1.232,0,1,1,2.394-.584c.011.045,1.111,4.545,2.057,7.185a21.09,21.09,0,0,0,2.861,5.39,1.234,1.234,0,0,1-.41,1.813A20.318,20.318,0,0,1,1014.636,821.427Z" fill="#263357"/>
    </g>
    <g id="グループ_29" data-name="グループ 29">
      <path id="パス_49" data-name="パス 49" d="M1003.245,822.742c-7.966,0-14.864-7.419-16.4-17.639a1.233,1.233,0,1,1,2.438-.366c1.354,9,7.227,15.54,13.964,15.54s12.609-6.536,13.964-15.541a1.233,1.233,0,1,1,2.438.368C1018.109,815.323,1011.21,822.742,1003.245,822.742Z" fill="#263357"/>
    </g>
    <g id="グループ_30" data-name="グループ 30">
      <path id="パス_50" data-name="パス 50" d="M1010.292,804.445h-3.286a1.233,1.233,0,0,1,0-2.465h3.286a1.233,1.233,0,1,1,0,2.465Z" fill="#263357"/>
    </g>
    <g id="グループ_31" data-name="グループ 31">
      <path id="パス_51" data-name="パス 51" d="M999.612,804.445h-3.286a1.233,1.233,0,1,1,0-2.465h3.286a1.233,1.233,0,0,1,0,2.465Z" fill="#263357"/>
    </g>
    <g id="グループ_32" data-name="グループ 32">
      <path id="パス_52" data-name="パス 52" d="M1003.245,815.907a7.869,7.869,0,0,1-4.731-1.72,1.232,1.232,0,1,1,1.489-1.964,4.935,4.935,0,0,0,6.484,0,1.232,1.232,0,1,1,1.489,1.964A7.869,7.869,0,0,1,1003.245,815.907Z" fill="#263357"/>
    </g>
    <g id="グループ_33" data-name="グループ 33">
      <path id="パス_53" data-name="パス 53" d="M1018.323,806.792a1.333,1.333,0,0,1-.155-.009,1.232,1.232,0,0,1-1.067-1.054,19.926,19.926,0,0,0-5.076-10.152,1.232,1.232,0,1,1,1.742-1.743,21.223,21.223,0,0,1,4.577,7.243c1.015-5.668-.452-11.251-2.859-14.443-1.261-1.672-2.7-2.553-3.975-2.414a1.237,1.237,0,0,1-1.311-.863c-.21-.682-1.762-2-4.429-2.663-2.406-.6-8.685-1.308-15.015,5.021-4.924,4.925-3.775,12.691-2.22,16.926a8.488,8.488,0,0,0,1.775-1.856,23.861,23.861,0,0,1,5.408-5.165,22.416,22.416,0,0,1,6.032-2.471c3.657-1.123,7.439-2.284,8.317-5.357a1.232,1.232,0,0,1,2.37.677c-1.245,4.359-5.877,5.782-9.963,7.037a20.821,20.821,0,0,0-5.358,2.144,21.377,21.377,0,0,0-4.888,4.682c-1.2,1.486-2.233,2.77-4.211,3.072a1.229,1.229,0,0,1-1.312-.716c-2.107-4.73-3.991-14.417,2.308-20.716,7.218-7.218,14.541-6.37,17.351-5.67,2.631.654,4.8,1.977,5.766,3.45,1.885.127,3.747,1.307,5.323,3.4,3.4,4.506,5.178,13.124,2.01,20.876A1.231,1.231,0,0,1,1018.323,806.792Z" fill="#263357"/>
    </g>
  </g>
</svg>
