<svg xmlns="http://www.w3.org/2000/svg" width="81.955" height="76.536" viewBox="0 0 81.955 76.536">
  <g id="グループ_60" data-name="グループ 60" transform="translate(-402.372 -786.612)">
    <g id="グループ_48" data-name="グループ 48">
      <path id="パス_68" data-name="パス 68" d="M415.58,862.47a1.016,1.016,0,0,1-1.016-1.016v-5.418a1.016,1.016,0,0,1,2.032,0v5.418A1.016,1.016,0,0,1,415.58,862.47Z" fill="#263357"/>
    </g>
    <g id="グループ_49" data-name="グループ 49">
      <path id="パス_69" data-name="パス 69" d="M456.218,863.148h-52.83a1.016,1.016,0,0,1-1.016-1.016v-5.419c0-.025,0-.051,0-.076.979-13.084,13.507-19.391,18.659-19.226a1.014,1.014,0,0,1,.941.736c1.457,5.1,6.777,5.359,7.828,5.359s6.371-.259,7.828-5.359a1.015,1.015,0,0,1,.942-.736c5.151-.2,17.679,6.142,18.658,19.226,0,.025,0,.051,0,.076v5.419A1.016,1.016,0,0,1,456.218,863.148ZM404.4,861.116h50.8v-4.364c-.9-11.779-11.591-16.861-15.868-17.284-1.68,4.462-6.107,6.07-9.531,6.07s-7.85-1.608-9.53-6.07c-4.277.422-14.966,5.505-15.869,17.284Z" fill="#263357"/>
    </g>
    <g id="グループ_50" data-name="グループ 50">
      <path id="パス_70" data-name="パス 70" d="M444.027,862.47a1.016,1.016,0,0,1-1.016-1.016v-5.418a1.016,1.016,0,0,1,2.032,0v5.418A1.016,1.016,0,0,1,444.027,862.47Z" fill="#263357"/>
    </g>
    <path id="パス_71" data-name="パス 71" d="M472.344,793.9l1.389,2.751,3.045.471-2.187,2.171.493,3.042-2.741-1.409-2.741,1.409.493-3.042-2.187-2.171,3.045-.471Z" fill="#f86464"/>
    <path id="パス_72" data-name="パス 72" d="M453.832,803.464l1.389,2.751,3.045.471-2.187,2.171.493,3.042-2.741-1.409-2.741,1.409.493-3.042-2.187-2.171,3.045-.471Z" fill="#f86464"/>
    <path id="パス_73" data-name="パス 73" d="M447.446,793.982l1.389,2.751,3.045.471-2.187,2.171.493,3.042-2.741-1.409-2.741,1.409.493-3.042-2.187-2.171,3.045-.471Z" fill="#f86464"/>
    <path id="パス_74" data-name="パス 74" d="M459.96,793.982l1.389,2.751,3.045.471-2.187,2.171.493,3.042-2.741-1.409-2.741,1.409.493-3.042-2.187-2.171,3.045-.471Z" fill="#f86464"/>
    <path id="パス_75" data-name="パス 75" d="M466.346,803.464l1.389,2.751,3.045.471-2.187,2.171.493,3.042-2.741-1.409L463.6,811.9l.493-3.042-2.187-2.171,3.045-.471Z" fill="#f86464"/>
    <path id="パス_76" data-name="パス 76" d="M418.491,830.637s-6.214-6.466-6.214-15.6c0-7.7,6.088-10.823,8.117-10.146,3.382-4.735,7.724-5.914,14.2-4.735,7.441,1.353,10.861,8.232,11.5,10.146,1.353,4.059,1.107,14.029-5.2,18.932,0-2.1,2.363-9.268,2.363-9.268l-5.865-7.541-8.4,5.6-1.4-2.8c-2.1,3.5-7.7,7.7-9.8,7.7C417.09,825.035,418.491,830.637,418.491,830.637Z" fill="#58c6d9"/>
    <g id="グループ_51" data-name="グループ 51">
      <path id="パス_77" data-name="パス 77" d="M421.108,833.912a1.014,1.014,0,0,1-.541-.156c-.42-.266-10.28-6.637-8.962-19.161.5-4.787,2.8-9.888,7.722-10.346,2.063-4.877,10.2-6.548,16.566-4.729a16.069,16.069,0,0,1,11.549,13.009c2.1,14.725-7.677,20.386-8.1,20.62a1.016,1.016,0,0,1-.995-1.771h0c.367-.209,8.978-5.263,7.079-18.562a14.03,14.03,0,0,0-10.1-11.342c-5.507-1.573-13.113-.124-14.3,4.037a1.016,1.016,0,0,1-.977.737c-4.076,0-5.995,4.421-6.43,8.56-1.187,11.28,7.933,17.171,8.025,17.229a1.016,1.016,0,0,1-.543,1.875Z" fill="#263357"/>
    </g>
    <g id="グループ_52" data-name="グループ 52">
      <path id="パス_78" data-name="パス 78" d="M417.94,823.774a1.016,1.016,0,0,1-.057-2.03,10.266,10.266,0,0,0,3.952-1.441c1.876-1.081,3.881-4.6,4.5-5.867a1.017,1.017,0,0,1,1.875.113,15.173,15.173,0,0,0,1.182,2.669,18.259,18.259,0,0,0,6.792-5.666,1.024,1.024,0,0,1,.87-.49c.5,0,2.02,0,6.506,8.7a1.016,1.016,0,0,1-1.806.931,45.631,45.631,0,0,0-4.445-7.227,22.131,22.131,0,0,1-7.505,5.828,1.276,1.276,0,0,1-1.068.033,4.014,4.014,0,0,1-1.635-2.076c-.983,1.624-2.544,3.835-4.247,4.816a11.913,11.913,0,0,1-4.856,1.709Z" fill="#263357"/>
    </g>
    <g id="グループ_53" data-name="グループ 53">
      <path id="パス_79" data-name="パス 79" d="M429.517,837.649c-6.481,0-12.092-6.033-13.343-14.346a1.016,1.016,0,1,1,2.009-.3c1.1,7.31,5.867,12.616,11.334,12.616s10.234-5.306,11.334-12.616a1.016,1.016,0,1,1,2.01.3C441.61,831.616,436,837.649,429.517,837.649Z" fill="#263357"/>
    </g>
    <g id="グループ_54" data-name="グループ 54">
      <path id="パス_80" data-name="パス 80" d="M425.739,823.864H423.03a1.016,1.016,0,0,1,0-2.032h2.709a1.016,1.016,0,0,1,0,2.032Z" fill="#263357"/>
    </g>
    <g id="グループ_55" data-name="グループ 55">
      <path id="パス_81" data-name="パス 81" d="M435.9,823.864H433.19a1.016,1.016,0,0,1,0-2.032H435.9a1.016,1.016,0,1,1,0,2.032Z" fill="#263357"/>
    </g>
    <g id="グループ_56" data-name="グループ 56">
      <path id="パス_82" data-name="パス 82" d="M429.517,832.729a6.405,6.405,0,0,1-3.853-1.4,1.016,1.016,0,0,1,1.227-1.619,4,4,0,0,0,5.252,0,1.016,1.016,0,1,1,1.228,1.619A6.408,6.408,0,0,1,429.517,832.729Z" fill="#263357"/>
    </g>
    <g id="グループ_57" data-name="グループ 57">
      <path id="パス_83" data-name="パス 83" d="M483.311,846.215H457.573a1.016,1.016,0,0,1,0-2.032H482.3V788.644h-44.7v7.111a1.016,1.016,0,0,1-2.032,0v-8.127a1.016,1.016,0,0,1,1.016-1.016h46.735a1.016,1.016,0,0,1,1.016,1.016V845.2A1.016,1.016,0,0,1,483.311,846.215Z" fill="#263357"/>
    </g>
    <g id="グループ_58" data-name="グループ 58">
      <path id="パス_84" data-name="パス 84" d="M473.151,822.509H451.477a1.016,1.016,0,0,1,0-2.032h21.674a1.016,1.016,0,0,1,0,2.032Z" fill="#263357"/>
    </g>
    <g id="グループ_59" data-name="グループ 59">
      <path id="パス_85" data-name="パス 85" d="M473.151,830.637H451.477a1.016,1.016,0,0,1,0-2.032h21.674a1.016,1.016,0,0,1,0,2.032Z" fill="#263357"/>
    </g>
  </g>
</svg>
