<svg xmlns="http://www.w3.org/2000/svg" width="126.83" height="84.941" viewBox="0 0 126.83 84.941">
  <g id="_イヤー_1-2" transform="translate(0 0.068)">
    <g id="グループ_74" data-name="グループ 74" transform="translate(0 -0.068)">
      <g id="グループ_70" data-name="グループ 70" transform="translate(31.146)">
        <path id="パス_122" data-name="パス 122" d="M61.022,50.749c.538-.538-.615-3.995-.845-4.84A42.873,42.873,0,0,0,57.8,38.38c-1.613-3.918-3.764-8.681-7.3-11.293-3.687-2.689-7.068-.384-7.759,3.764-.768,4.609,1.46,8.835,4.917,11.831a12.817,12.817,0,0,0,4.686,2.842c.768.154,4.148,0,2.689,1.076-.845.615-3.073.307-3.995.154a11.216,11.216,0,0,1-6.453-3.841c-3.3-3.687-5.224-9.449-3.227-14.289,1.921-4.686,6.991-5.762,11.139-3.227,4.763,2.919,7.759,8.681,9.142,13.9a23.115,23.115,0,0,1,.768,7.605,8.924,8.924,0,0,1-.691,3.15c0,.154-.845,1.306-.615.768Z" transform="translate(-40.543 -5.525)" fill="#fece3c"/>
        <path id="パス_123" data-name="パス 123" d="M88.989,48.13c1,.307,4.763-3.38,5.454-3.995a66.3,66.3,0,0,0,6.684-6.453c3.841-4.379,8.45-9.91,9.372-15.825,1.229-8.143-7.452-8.22-12.522-4.993-5.07,3.15-7.682,9.3-8.066,15.057-.154,2.3.691,3.611,1.152,5.685.845,3.534-1.767-.23-2.382-1.383-2.766-5.454-1.076-11.677,2.3-16.44,3-4.225,7.913-7.682,13.213-7.682,5.992,0,9.756,4.763,9.526,10.6-.307,6.837-4.686,13.29-9.449,17.976a34.154,34.154,0,0,1-8.6,6.223,13.217,13.217,0,0,1-4.456,1.46c-.538,0-2.535-.154-2.151-.23Z" transform="translate(-51.379 -2.752)" fill="#f04850"/>
        <path id="パス_124" data-name="パス 124" d="M67.535,40.316c.691-.154,1.921-2.228,2.458-2.842,1.076-1.306,2.228-2.612,3.15-3.995a49.4,49.4,0,0,0,5.608-10.986c1.69-4.686,5.531-17.439-1.152-20.281C70.915-.554,64.462,9.357,63.31,14.5c-1.844,8.22,1.844,16.517,8.066,21.894a36.721,36.721,0,0,0,9.756,5.762c1.229.538,4.609,1.152,5.224,2.3.845,1.536-1,1.306-1.921,1.152a32.995,32.995,0,0,1-18.053-10.6c-5.3-6.3-7.682-15.365-4.763-23.277,2.3-6.3,10.6-15.134,17.976-10.525,7.375,4.686,4.917,17.131,2.3,23.738a31.025,31.025,0,0,1-7.221,11.062,21.246,21.246,0,0,1-4.225,3.227,19.037,19.037,0,0,1-3,1Z" transform="translate(-45.136 0.068)" fill="#7dd8c9"/>
        <path id="パス_125" data-name="パス 125" d="M95.988,40.555c.538,2,3,2.074,4.609,1.613a13.156,13.156,0,0,0,5.07-3.227c1.46-1.46-.461-1.921-1.152-1.152a9.8,9.8,0,0,1-3.764,2.612c-1.46.461-1.383.384-2.074.307s-.922-.23-1.076-.615a.839.839,0,0,0-1.613.461Z" transform="translate(-53.385 -8.621)" fill="#f04850"/>
        <path id="パス_126" data-name="パス 126" d="M49.6,43.013a3.405,3.405,0,0,0,4.993,1.076c1.536-1.152,2.382-3.611,2.382-5.762s-.384-.845-.845-.845a.853.853,0,0,0-.845.845,7.4,7.4,0,0,1-.307,2.612,4.052,4.052,0,0,1-.461,1c-.154.307-.154.154-.307.307l-.23.23c-.077.077-.23.154-.077.077-.154.077-.307.23-.461.307a.238.238,0,0,0-.154.077h0a.581.581,0,0,0-.307.077c-.154.077-.154,0-.23,0h-.538a.564.564,0,0,1-.461-.154h-.077c-.077,0-.154-.077-.23-.154h0l-.154-.154c-.154-.154,0,0,0-.077s-.077-.154-.154-.307a.847.847,0,0,0-1.152-.307.953.953,0,0,0-.307,1.152H49.6Z" transform="translate(-42.642 -8.544)" fill="#fece3c"/>
        <path id="パス_127" data-name="パス 127" d="M69.9,31.574c0,1.383,1.306,2.151,2.612,2.228a6.421,6.421,0,0,0,3.457-.845A10.294,10.294,0,0,0,80.348,27.2c.845-2.3-.154-.922-.615-1a.856.856,0,0,0-1,.615,9.18,9.18,0,0,1-3,4.379,3.5,3.5,0,0,1-2.382,1c-.845.154-1.767.154-1.767-.538a.846.846,0,0,0-1.69,0h0Z" transform="translate(-47.347 -5.94)" fill="#7dd8c9"/>
      </g>
      <g id="グループ_73" data-name="グループ 73" transform="translate(0 48.066)">
        <rect id="長方形_93" data-name="長方形 93" width="124.606" height="0.154" transform="translate(0 36.721)"/>
        <g id="グループ_71" data-name="グループ 71" transform="translate(1.468)">
          <path id="パス_128" data-name="パス 128" d="M19.341,88.1a1.614,1.614,0,0,1-1.46.538,1.475,1.475,0,0,1-1.69-.691,12.546,12.546,0,0,0-1.076-1.383,10.846,10.846,0,0,0-1.076-1.306,6.1,6.1,0,0,1-1.076-1.383c-.307-.461-.768-1-1.076-1.383a5.082,5.082,0,0,1-1.076-1.383c-.307-.307-.615-.922-1.076-1.383-.077-.154-.307-.384-.538-.691-.154-.384-.461-.538-.691-.922a1.141,1.141,0,0,0-1.46-.461,1.3,1.3,0,0,0-.845,1v2a17.311,17.311,0,0,1,0,2,8.62,8.62,0,0,0,0,2,18.625,18.625,0,0,1,0,2.074A2.846,2.846,0,0,1,5.59,88.1a4.756,4.756,0,0,1-1.46.538,1.857,1.857,0,0,1-1.536-.461,1.684,1.684,0,0,1-.615-1.46,8.254,8.254,0,0,1,0-1.383V84.032a7.415,7.415,0,0,0,0-1.306,7.4,7.4,0,0,0,0-1.306V80.114c0-.384-.154-1.076,0-1.306a4.17,4.17,0,0,1,0-1.383,7.4,7.4,0,0,1,0-1.306V74.813a8.311,8.311,0,0,1,0-1.383c-.154-.384,0-.768,0-1.306V70.818a3.729,3.729,0,0,1,0-1.306,7.286,7.286,0,0,0,0-1.306,7.286,7.286,0,0,1,0-1.306,4.113,4.113,0,0,1,0-1.383,2.906,2.906,0,0,1,.615-1.383A3.366,3.366,0,0,1,4.13,63.6a2.1,2.1,0,0,1,1.46.538A2.558,2.558,0,0,1,6.2,65.518v6.914c0,.845.615.691.845.538A16.215,16.215,0,0,0,8.2,71.817a12.132,12.132,0,0,1,1.076-1.229,4,4,0,0,0,1.076-1.229,7.194,7.194,0,0,1,1.076-1.229c.23-.384.845-.922,1.076-1.229a13.61,13.61,0,0,0,1.076-1.229c.461-.23.691-.845,1.076-1.306a2,2,0,0,1,1.536-.768,2.425,2.425,0,0,1,1.46.538,1.633,1.633,0,0,1,.691,1.383,2.673,2.673,0,0,1-.691,1.69c-.23.23-.538.845-.922.922a10.186,10.186,0,0,1-.922.922,3.5,3.5,0,0,1-.922.922c-.23.307-.691.615-.922.922-.307.23-.615.691-.922.922-.23.461-.768.615-.922.922-.461.384-.845.538-1.152,1.152A1.434,1.434,0,0,0,11.2,75.5c.23.23.461.691.768,1,.154.461.461.384.615.691.461.384.615.922,1.152,1.383.461.461.615,1,1.152,1.383.23.538.845.922,1.152,1.383a2.956,2.956,0,0,0,1.152,1.383,3.828,3.828,0,0,0,1.152,1.383,10.972,10.972,0,0,0,1.152,1.383,5.831,5.831,0,0,1,.461,1.383c.154.691-.23.922-.615,1.383Z" transform="translate(-1.911 -62.752)"/>
          <path id="パス_129" data-name="パス 129" d="M26.668,67.522a5.341,5.341,0,0,1-.768-1.767,2.5,2.5,0,0,1,.768-1.767,2.434,2.434,0,0,1,1.767-.691,2.564,2.564,0,0,1,1.767.691c.538.384.615,1,.768,1.767a2.248,2.248,0,0,1-.768,1.767,3.878,3.878,0,0,1-1.767.691A5.626,5.626,0,0,1,26.668,67.522Zm3.764,17.439a6.738,6.738,0,0,1,0,1.767,1.721,1.721,0,0,1-.538,1.306,1.894,1.894,0,0,1-1.383.461,2.7,2.7,0,0,1-1.383-.461c-.461-.23-.538-.615-.615-1.306V83.194a6.8,6.8,0,0,0,0-1.767,6.773,6.773,0,0,0,0-1.767,6.8,6.8,0,0,1,0-1.767,6.738,6.738,0,0,1,0-1.767,13.5,13.5,0,0,0,0-1.767,13.561,13.561,0,0,1,0-1.767,1.537,1.537,0,0,1,.615-1.306,1.475,1.475,0,0,1,1.383-.461,3.256,3.256,0,0,1,1.383.461,1.583,1.583,0,0,1,.538,1.306,6.773,6.773,0,0,1,0,1.767v1.767a6.8,6.8,0,0,0,0,1.767,6.8,6.8,0,0,1,0,1.767,6.773,6.773,0,0,0,0,1.767,6.8,6.8,0,0,1,0,1.767A6.8,6.8,0,0,1,30.433,84.961Z" transform="translate(-7.471 -62.682)"/>
          <path id="パス_130" data-name="パス 130" d="M50.033,87.1c-.154.691-.23.922-.691,1.076a8.4,8.4,0,0,1-1.306.384,1.059,1.059,0,0,1-1-.384c-.23-.384-.461-.384-.615-.845-.307-.768-.768-1-1.076-.691a7.9,7.9,0,0,1-1.152,1.076,3.665,3.665,0,0,1-1.229.615,3.872,3.872,0,0,1-1.46.23,5.764,5.764,0,0,1-1.536-.154,8.115,8.115,0,0,1-1.46-.461,5.379,5.379,0,0,1-1.306-.691c-.538-.23-.615-.691-1.152-1.076-.461-.538-.615-1-1-1.46a7.125,7.125,0,0,1-.615-1.69,6.576,6.576,0,0,1-.384-1.767,3.322,3.322,0,0,1-.077-1.767c.154-.461,0-1.306.154-1.921a3.71,3.71,0,0,1,.461-1.921,4.653,4.653,0,0,1,.845-1.767,8.848,8.848,0,0,1,.538-.845,1.507,1.507,0,0,1,.691-.691,13.136,13.136,0,0,0,1.076-.845,8.915,8.915,0,0,1,1.229-.615c.307-.077,1-.307,1.306-.384a4.5,4.5,0,0,1,1.383-.077,6.818,6.818,0,0,1,1.152.154,5.3,5.3,0,0,1,1.152.538,2.074,2.074,0,0,0,.845.384c.461,0,.691-.154.768-.845V68.434a17.31,17.31,0,0,0,0-2,18.553,18.553,0,0,1,0-2.074,1.582,1.582,0,0,1,.615-1.306,1.792,1.792,0,0,1,1.383-.461c.615.154,1.076.154,1.383.461a1.8,1.8,0,0,1,.538,1.306,8.031,8.031,0,0,1,0,1.921,14.75,14.75,0,0,1,0,1.844v1.921a8.024,8.024,0,0,0,0,1.921,8.031,8.031,0,0,0,0,1.921,16.019,16.019,0,0,0,0,1.921V77.73a14.707,14.707,0,0,0,0,1.844v1.383a9.245,9.245,0,0,1,0,1.46,4.254,4.254,0,0,0,.154,1.383,3.722,3.722,0,0,0,.23,1.383c.23.922.384,1.229.23,1.767ZM45.423,76.27c0-.307-.461-.691-.538-1a4.788,4.788,0,0,0-.922-.691c-.23-.307-.615-.23-1-.461a5.227,5.227,0,0,1-1.152-.154,4.027,4.027,0,0,0-1.844.538c-.384.23-.461.461-.691.615-.154.307-.461.615-.538.768-.461.615-.384,1.229-.691,1.844a6.678,6.678,0,0,0-.23,1.921,9.1,9.1,0,0,0,.154,2.074c.154.538.154.691.23,1a2.062,2.062,0,0,0,.461.922c.23.23.307.461.615.768a1.075,1.075,0,0,0,.691.538,4.289,4.289,0,0,0,1.767.461,2.194,2.194,0,0,0,1.613-.461A5.459,5.459,0,0,0,44.5,83.8a14.324,14.324,0,0,0,.768-1.536,4.3,4.3,0,0,1,.23-1.613V76.116Z" transform="translate(-9.325 -62.519)"/>
          <path id="パス_131" data-name="パス 131" d="M68.706,87.56c-.077.461-.307.538-.461.845-.23.23-.23.461-.615.845-.23.384-.768.615-1.076.845-.384.154-.845.538-1.306.538-.384.307-1,.23-1.306.307-.615.077-.845.23-1.306.077a5.276,5.276,0,0,1-1.844-.154,4.289,4.289,0,0,1-1.767-.461,4.1,4.1,0,0,1-1.613-.845c-.384,0-.615-.461-.768-.615a4.97,4.97,0,0,1-.615-.691,1.715,1.715,0,0,1-.23-1.076,1.246,1.246,0,0,1,.538-1.076,1.563,1.563,0,0,1,1.152-.461,1.685,1.685,0,0,1,1.306.538,1.4,1.4,0,0,0,.845.768c.461.307.538.461.922.538a7.2,7.2,0,0,0,2.151.461,4.812,4.812,0,0,0,1.921-.538c.384-.307.615-.384.615-.691.154-.077.154-.461.23-1a1.6,1.6,0,0,0-.845-1.536,6.564,6.564,0,0,0-1.844-.691,9.281,9.281,0,0,1-1.076-.23,15.174,15.174,0,0,1-2-.615c-.23-.23-.768-.23-.922-.461-.23-.23-.768-.23-.845-.538a1.713,1.713,0,0,1-.691-.768c-.077-.077-.23-.538-.461-.845a12.21,12.21,0,0,1-.307-2,2.624,2.624,0,0,1,.154-1.152c.154-.384.077-.615.384-1a1.735,1.735,0,0,1,.615-.845c.077-.154.538-.384.768-.615a2.36,2.36,0,0,0,.922-.538c.154-.23.615-.154,1-.384a5.053,5.053,0,0,1,2.151-.307,3.273,3.273,0,0,0,1.536.077,2.414,2.414,0,0,1,1.536.384,3.077,3.077,0,0,1,1.383.615c.384.384.691.461,1.229.922a3.626,3.626,0,0,1,.538,1.306,1.745,1.745,0,0,1-.461,1.229,1.473,1.473,0,0,1-1.229.461.963.963,0,0,1-1.152-.461,6.945,6.945,0,0,0-.845-.768,1.554,1.554,0,0,1-.845-.461,4.966,4.966,0,0,0-1.536-.307,2.922,2.922,0,0,0-1.69.461c-.461.23-.615.615-.768,1.306a1.325,1.325,0,0,0,.691,1.383c.461.384.615.307,1.076.461a1.505,1.505,0,0,0,1.076.23c.384,0,.845.307,1.229.23a2.923,2.923,0,0,1,1.152.384,3.334,3.334,0,0,1,1.229.538,5.793,5.793,0,0,1,1,.461,1.516,1.516,0,0,1,.845.845c.384.384.384.845.615,1.46a5.752,5.752,0,0,1,.154,1.613,16.637,16.637,0,0,1-.307,1.921Z" transform="translate(-14.401 -64.974)"/>
          <path id="パス_132" data-name="パス 132" d="M101.264,71.681c-.23.461-.077,1-.384,1.306a6.125,6.125,0,0,1-.615,1.229c-.23.307-.691.922-.845,1.076a4.451,4.451,0,0,1-1.46,1.076,6.02,6.02,0,0,1-1.613.691,4.557,4.557,0,0,1-1.767.384,13.714,13.714,0,0,1-1.767.154c-.538,0-.768.154-1.229,0h-1.69a1.563,1.563,0,0,0-1.152.461,1.6,1.6,0,0,0-.615,1.229v1.536a6.512,6.512,0,0,0,0,1.229,10.768,10.768,0,0,1,0,2.228v2.3a1.578,1.578,0,0,1-.615,1.383,1.682,1.682,0,0,1-1.46.538,1.55,1.55,0,0,1-1.46-.538,1.809,1.809,0,0,1-.615-1.383V81.822a12.3,12.3,0,0,1,0-2.382V74.677c0-.615.077-1.536,0-2.382a12.326,12.326,0,0,1,0-2.382c.077-.845-.154-1.536,0-2.382a5.71,5.71,0,0,1,.23-1.921c0-.461.538-1.076.922-1.613a1.787,1.787,0,0,1,.845-.538c.307-.077.461-.154,1-.307a8.117,8.117,0,0,1,2-.154h2.151a19.962,19.962,0,0,0,2.151,0,6.8,6.8,0,0,0,1.767,0,8.745,8.745,0,0,0,1.767.384c.461.23,1.076.384,1.613.615A3.755,3.755,0,0,1,99.8,65.074c.461.23.538.845.768,1.076a3.529,3.529,0,0,0,.538,1.229c0,.461.307.845.23,1.306a1.9,1.9,0,0,1,0,1.306,9.322,9.322,0,0,0-.077,1.383Zm-4.148-1.306c-.154-.461,0-1.076-.23-1.536,0-.615-.307-.922-.845-1.306a3.894,3.894,0,0,0-1.383-.691c-.461,0-1.152-.23-1.613-.23a10.242,10.242,0,0,1-1.536,0H89.972a2.309,2.309,0,0,0-1.536.384c-.23.23-.23.768-.23,1.229-.154.615.154,1.076,0,1.536v3.457c.077.307.23.461.615.768a1.6,1.6,0,0,0,1.152.307,12.35,12.35,0,0,0,1.69,0,2.228,2.228,0,0,0,1.229,0c.538,0,1.076-.23,1.767-.23a5.844,5.844,0,0,0,1.46-.922,1.971,1.971,0,0,0,.768-1.229A4.62,4.62,0,0,0,97.116,70.375Z" transform="translate(-20.917 -62.616)"/>
          <path id="パス_133" data-name="パス 133" d="M120.865,90.281c-.307.461-.615.461-1.076.538-.307,0-.691-.154-1.076-.154s-.691-.307-1-.461a2.658,2.658,0,0,1-.845-.768.5.5,0,0,0-.845,0,4.621,4.621,0,0,1-1,.691,6.943,6.943,0,0,1-1.613.615,3.676,3.676,0,0,1-1.767.154,2.993,2.993,0,0,1-1.229-.077,2.342,2.342,0,0,1-1.229-.23,2.838,2.838,0,0,1-1.076-.538c-.307-.307-.691-.384-1-.845a8.643,8.643,0,0,1-.922-1.613c0-.538-.384-1.076-.307-1.767a3.718,3.718,0,0,1,.23-1.844,3.852,3.852,0,0,1,.691-1.383c.23-.384.691-.615,1.076-1.076.461-.154.691-.461,1.383-.768a2.859,2.859,0,0,1,1.536-.538,3.563,3.563,0,0,1,1.613-.307c.538,0,1-.23,2.074-.23a1.116,1.116,0,0,0,1.152-.768c0-.461,0-1.076-.23-1.306-.23-.154-.23-.538-.538-.768a1.836,1.836,0,0,0-1.921-.615,3.039,3.039,0,0,0-1.69.307,2.829,2.829,0,0,0-1.46.845,3.129,3.129,0,0,1-1.383.691c-.538.154-.845-.154-1.229-.461a1.759,1.759,0,0,1-.538-1.229,1.354,1.354,0,0,1,.461-1.076,4.936,4.936,0,0,1,1.306-1c.615-.077.922-.461,1.46-.691a10.978,10.978,0,0,0,1.613-.461c.461,0,1-.154,1.613-.154.461-.077.691.23,1.306.077a4.665,4.665,0,0,1,1.306.307,9.693,9.693,0,0,0,1.229.538c.23.307.845.461,1.076.845,0,.307.538.615.615.845a8,8,0,0,1,.384.922,3.655,3.655,0,0,1,.307,2v3a10.243,10.243,0,0,1,0,1.536,4.644,4.644,0,0,0,0,1.46,3.707,3.707,0,0,0,.154,1.844,3.787,3.787,0,0,0,1,1.536,2.089,2.089,0,0,1,.691,1.152,2.923,2.923,0,0,1-.384,1.152Zm-5.224-6.3a1.618,1.618,0,0,0-.384-1,1.6,1.6,0,0,0-.922-.384,6.452,6.452,0,0,0-1.46.23c-.538.154-.845.077-1.076.23a10.021,10.021,0,0,0-1.613.922,2.8,2.8,0,0,0-.615,1.69,2.169,2.169,0,0,0,.615,1.767,2.337,2.337,0,0,0,1.921.615,2.774,2.774,0,0,0,1.383-.23,2.547,2.547,0,0,0,1.076-.768,3.718,3.718,0,0,0,.845-1.152,12.106,12.106,0,0,1,.23-1.767Z" transform="translate(-25.998 -64.93)"/>
          <path id="パス_134" data-name="パス 134" d="M137.414,75.021c-.154.538,0,.845-.307,1.076-.154.23-.461.691-.845.691a2.984,2.984,0,0,1-1.536.23,3.607,3.607,0,0,0-1.613.845c-.077.154-.384.384-.615.691-.077.461-.461.615-.538.845a3.051,3.051,0,0,0-.538,1.767,6.606,6.606,0,0,1-.154,1.844,5.122,5.122,0,0,0,0,1.536v1.536a5.122,5.122,0,0,1,0,1.536,5.143,5.143,0,0,1,0,1.536c0,.461-.461.922-.615,1.306-.307.461-.845.384-1.383.461a2.275,2.275,0,0,1-1.383-.461c-.307-.384-.691-.845-.615-1.306V87.389a6.774,6.774,0,0,1,0-1.767,13.505,13.505,0,0,1,0-1.767V82.088a6.8,6.8,0,0,1,0-1.767,6.8,6.8,0,0,0,0-1.767,4.517,4.517,0,0,1,0-1.767c-.154-.538.154-1.306,0-1.767a2.957,2.957,0,0,1,.615-1.306,3.29,3.29,0,0,1,1.306-.461,2.678,2.678,0,0,1,1.306.461c.384.307.461.538.461,1.306s0,.845.384.845c.23,0,.384-.461.768-1a3.122,3.122,0,0,1,.691-.768c.307-.077.461-.461.845-.538a7.8,7.8,0,0,1,1.921-.461c.615,0,1.229,0,1.46.538a1.792,1.792,0,0,1,.461,1.383Z" transform="translate(-30.946 -64.957)"/>
          <path id="パス_135" data-name="パス 135" d="M155.823,87.775a1.421,1.421,0,0,1-1.383.538,1.337,1.337,0,0,1-1.383-.615,4.355,4.355,0,0,1-.768-1c-.077-.23-.538-.538-.691-.922-.23-.461-.461-.461-.691-.922-.384-.23-.461-.538-.691-.922-.23-.307-.538-.461-.691-.922-.154-.307-.538-.615-.691-.922a8.633,8.633,0,0,0-.845-1.152.62.62,0,0,0-.691-.23,1.03,1.03,0,0,0-.845.538c-.23.384-.077.845-.077,1.383a7.4,7.4,0,0,0,0,1.306c0,.615.154,1.076,0,1.306v1.306a2.291,2.291,0,0,1-.615,1.306c-.23.307-1,.384-1.383.461-.615.154-.922-.154-1.383-.461a1.622,1.622,0,0,1-.615-1.306V83.7a4.17,4.17,0,0,1,0-1.383,4.17,4.17,0,0,1,0-1.383,8.311,8.311,0,0,1,0-1.383V78.172a8.311,8.311,0,0,1,0-1.383,4.149,4.149,0,0,1,0-1.383V74.023a4.17,4.17,0,0,1,0-1.383,8.253,8.253,0,0,0,0-1.383,8.182,8.182,0,0,1,0-1.383,4.113,4.113,0,0,1,0-1.383V65.727a4.644,4.644,0,0,1,0-1.46,2.3,2.3,0,0,1,.615-1.306,3.276,3.276,0,0,1,1.383-.461,2.471,2.471,0,0,1,1.383.461c.23.307.691.691.615,1.306v3.15a11.249,11.249,0,0,1,0,1.613v6.453c0,.384.461.768.615.615a3.46,3.46,0,0,0,.768-.691c.307-.307.384-.461.615-.691.23-.154.384-.461.768-.768a5.865,5.865,0,0,0,.691-.691c.23-.307.615-.538.768-.768a1.983,1.983,0,0,0,.691-.691c.154-.23.615-.461.768-.768a1.629,1.629,0,0,1,1.383-.615,2.789,2.789,0,0,1,1.306.538,1.587,1.587,0,0,1,.615,1.229,2.417,2.417,0,0,1-.615,1.46c-.538.461-.845.768-1.152,1.076a3.348,3.348,0,0,1-1.076,1c-.307.307-.845.691-1.383,1.229a1,1,0,0,0-.307,1.306c.461.615.538.845.922,1.076,0,.384.615.691.691.922a9.753,9.753,0,0,0,.768.922c.23.23.307.768.691.922.384.23.461.691.768.922a1.493,1.493,0,0,0,.691.845c.077.384.615.538.768.922a5.357,5.357,0,0,1,.461,1.306c.154.691-.23.922-.615,1.306Z" transform="translate(-34.452 -62.5)"/>
        </g>
        <g id="グループ_72" data-name="グループ 72" transform="translate(1.921 29.807)">
          <path id="パス_136" data-name="パス 136" d="M2.5,101.4H4.421a1.38,1.38,0,0,1,.845.23.809.809,0,0,1,.307.768c0,.384,0,.384-.154.538a.767.767,0,0,1-.384.307h0a.578.578,0,0,1,.538.384c.154.154.154.384.154.691s0,.307-.077.461c0,.154-.154.23-.23.384l-.461.23c-.154,0-.384.077-.691.077H2.5V101.4Zm.691,1.69H4.344c.154,0,.307,0,.384-.154a.587.587,0,0,0,.154-.384c0-.154,0-.307-.154-.384a.824.824,0,0,0-.461-.154H3.115v1.076Zm0,1.767H4.421c.23,0,.384,0,.461-.154a.824.824,0,0,0,.154-.461c0-.23,0-.384-.154-.461a1.092,1.092,0,0,0-.461-.154H3.191v1.229Z" transform="translate(-2.5 -101.323)"/>
          <path id="パス_137" data-name="パス 137" d="M15.635,105v.154h.23v.461h-.307c-.154,0-.23,0-.307-.077-.077,0-.154-.154-.154-.307a.664.664,0,0,1-.461.23c-.154,0-.384.077-.538.077h-.384a.4.4,0,0,1-.307-.154c-.077,0-.154-.154-.23-.23a.576.576,0,0,1-.077-.384.974.974,0,0,1,.077-.461q.115-.23.23-.23a1.3,1.3,0,0,0,.384-.154h1c.077,0,.154,0,.154-.077v-.461c0-.077-.077-.077-.154-.154a.106.106,0,0,0-.154,0h-.23a.974.974,0,0,0-.461.077c-.077,0-.154.154-.23.307H13.1a.564.564,0,0,1,.154-.461.6.6,0,0,1,.307-.307c.154,0,.23-.154.384-.154h.845a1.3,1.3,0,0,1,.384.154.346.346,0,0,1,.23.23,3.327,3.327,0,0,1,.077.384v1.46Zm-.615-.768a3.327,3.327,0,0,1-.384.077h-.615s-.154,0-.154.077a.268.268,0,0,0-.077.154v.384a.268.268,0,0,0,.154.077h.538a.282.282,0,0,0,.23-.077c.077-.077.154-.077.154-.154v-.691Z" transform="translate(-4.957 -101.624)"/>
          <path id="パス_138" data-name="パス 138" d="M23.1,101.4h.615v1.46h0s.077-.154.154-.154a1.105,1.105,0,0,0,.23-.154.379.379,0,0,0,.23-.077h.23a.924.924,0,0,1,.615.154.767.767,0,0,1,.384.307c.077.154.23.307.23.461s.077.384.077.615v.538c0,.154-.154.307-.23.461a.767.767,0,0,1-.384.307,1.11,1.11,0,0,1-.538.154H24.1c-.154,0-.154-.077-.23-.154s-.154-.154-.154-.23h0v.384H23.1V101.4Zm2.228,2.535v-.384a.4.4,0,0,0-.154-.307c0-.077-.154-.154-.23-.23-.077,0-.23-.077-.307-.077a.7.7,0,0,0-.615.307,1.147,1.147,0,0,0-.23.768v.384a.4.4,0,0,0,.154.307c0,.077.154.154.23.23a.462.462,0,0,0,.307.077.835.835,0,0,0,.384-.077c.077,0,.154-.154.23-.23a.582.582,0,0,1,.154-.307v-.384Z" transform="translate(-7.275 -101.323)"/>
          <path id="パス_139" data-name="パス 139" d="M32.8,102.8h.691l.768,2.151h0l.691-2.151h.691l-1.076,3c0,.154-.077.23-.154.384a.4.4,0,0,1-.154.307c0,.077-.154.154-.23.23a3.327,3.327,0,0,1-.384.077h-.461v-.538h.461a.238.238,0,0,0,.154-.077.238.238,0,0,1,.077-.154v-.384l-1-2.842Z" transform="translate(-9.523 -101.648)"/>
          <path id="パス_140" data-name="パス 140" d="M43.168,103.989a.576.576,0,0,0,.077.384.346.346,0,0,0,.23.23c.077,0,.23.154.307.154h.768c.077,0,.23-.077.23-.154,0,0,.077-.154.154-.154v-.23c0-.154,0-.23-.077-.307s-.154-.154-.23-.154a1.092,1.092,0,0,1-.461-.154,3.9,3.9,0,0,1-.691-.154,1.092,1.092,0,0,1-.461-.154.346.346,0,0,1-.23-.23c0-.077-.077-.154-.154-.307v-.307a.648.648,0,0,1,.154-.538,1.349,1.349,0,0,1,.307-.384c.154-.154.307-.154.461-.23h.538a1.909,1.909,0,0,1,.615.077c.154,0,.307.154.461.23a.767.767,0,0,1,.307.384,1.11,1.11,0,0,1,.154.538h-.691a.6.6,0,0,0-.23-.538,1.447,1.447,0,0,0-.615-.154h-.23a.282.282,0,0,0-.23.077s-.154.077-.154.154v.23a.307.307,0,0,0,.154.307c.154.077.23.154.307.154h.154a.582.582,0,0,1,.307.154.693.693,0,0,1,.384.077h.23a.4.4,0,0,1,.307.154c.077,0,.154.154.23.23,0,.077.077.154.154.307s0,.23,0,.307a.648.648,0,0,1-.154.538.926.926,0,0,1-.384.384,3.747,3.747,0,0,1-.538.23H44.09a1.691,1.691,0,0,1-.615-.077,1.147,1.147,0,0,1-.538-.23c-.154-.077-.23-.23-.384-.461a1.447,1.447,0,0,1-.154-.615h.691Z" transform="translate(-11.748 -101.3)"/>
          <path id="パス_141" data-name="パス 141" d="M53.2,101.4h.615v.615H53.2Zm0,1.076h.615v2.842H53.2Z" transform="translate(-14.251 -101.323)"/>
          <path id="パス_142" data-name="パス 142" d="M60.277,102.545h.461V101.7h.615v.845h.538v.461h-.538v1.844c0,.077,0,0,.077,0h.461v.461h-.845c-.077,0-.154-.077-.23-.154s-.077-.154-.154-.23,0-.23,0-.307v-1.69H60.2v-.461Z" transform="translate(-15.873 -101.393)"/>
          <path id="パス_143" data-name="パス 143" d="M68.377,102.545h.461V101.7h.615v.845h.538v.461h-.538v1.844c0,.077,0,0,.077,0h.461v.461h-.845c-.077,0-.154-.077-.23-.154s-.077-.154-.154-.23,0-.23,0-.307v-1.69H68.3v-.461Z" transform="translate(-17.751 -101.393)"/>
          <path id="パス_144" data-name="パス 144" d="M77.368,104.321v.307a.582.582,0,0,0,.154.307c0,.077.154.154.23.154h.307a.649.649,0,0,0,.461-.154c.154-.154.23-.23.23-.384h.615a.587.587,0,0,1-.154.384.6.6,0,0,1-.307.307.587.587,0,0,1-.384.154H78.06a1.5,1.5,0,0,1-.615-.077c-.154,0-.307-.154-.461-.307a1.607,1.607,0,0,1-.307-.461,1.5,1.5,0,0,1-.077-.615,1.691,1.691,0,0,1,.077-.615,1.412,1.412,0,0,1,.768-.768,1.424,1.424,0,0,1,.538-.154.924.924,0,0,1,.615.154,2.037,2.037,0,0,1,.461.384.7.7,0,0,1,.23.538v.615H77.215Zm1.46-.384v-.307c0-.077-.077-.154-.154-.23s-.154-.154-.23-.154h-.615c-.077,0-.154.077-.23.154,0,0-.154.154-.154.23v.307H78.9Z" transform="translate(-19.674 -101.555)"/>
          <path id="パス_145" data-name="パス 145" d="M86.7,102.767h.615v.538h0a.282.282,0,0,1,.077-.23l.23-.23a1.105,1.105,0,0,0,.23-.154c.077-.077.154,0,.307,0h.23v.615h-.615c-.077,0-.154.077-.23.154,0,.077-.154.154-.154.307v1.767h-.615V102.69Z" transform="translate(-22.015 -101.614)"/>
          <path id="パス_146" data-name="パス 146" d="M103.268,103.989a.576.576,0,0,0,.077.384.346.346,0,0,0,.23.23c.077,0,.23.154.307.154h.768c.077,0,.23-.077.23-.154,0,0,.077-.154.154-.154v-.23c0-.154,0-.23-.077-.307s-.154-.154-.23-.154a1.092,1.092,0,0,1-.461-.154,3.9,3.9,0,0,1-.691-.154,1.092,1.092,0,0,1-.461-.154.346.346,0,0,1-.23-.23c0-.077-.077-.154-.154-.307v-.307a.648.648,0,0,1,.154-.538,1.349,1.349,0,0,1,.307-.384c.154-.154.307-.154.461-.23h.538a1.909,1.909,0,0,1,.615.077c.154,0,.307.154.461.23a.767.767,0,0,1,.307.384,1.11,1.11,0,0,1,.154.538h-.691a.6.6,0,0,0-.23-.538,1.447,1.447,0,0,0-.615-.154h-.23a.282.282,0,0,0-.23.077s-.154.077-.154.154v.23a.307.307,0,0,0,.154.307c.154.077.23.154.307.154h.154a.582.582,0,0,1,.307.154.693.693,0,0,1,.384.077h.23a.4.4,0,0,1,.307.154c.077,0,.154.154.23.23,0,.077.077.154.154.307s0,.23,0,.307a.648.648,0,0,1-.154.538.926.926,0,0,1-.384.384,3.747,3.747,0,0,1-.538.23h-.538a1.691,1.691,0,0,1-.615-.077,1.147,1.147,0,0,1-.538-.23c-.154-.077-.23-.23-.384-.461a1.447,1.447,0,0,1-.154-.615h.691Z" transform="translate(-25.677 -101.3)"/>
          <path id="パス_147" data-name="パス 147" d="M113.668,104.321v.307a.582.582,0,0,0,.154.307c0,.077.154.154.23.154h.307a.649.649,0,0,0,.461-.154c.154-.154.23-.23.23-.384h.615a.587.587,0,0,1-.154.384.6.6,0,0,1-.307.307.587.587,0,0,1-.384.154h-.461a1.5,1.5,0,0,1-.615-.077c-.154,0-.307-.154-.461-.307a1.607,1.607,0,0,1-.307-.461,1.5,1.5,0,0,1-.077-.615,1.692,1.692,0,0,1,.077-.615,1.412,1.412,0,0,1,.768-.768,1.424,1.424,0,0,1,.538-.154.924.924,0,0,1,.615.154,2.037,2.037,0,0,1,.461.384.7.7,0,0,1,.23.538v.615h-2.074Zm1.46-.384v-.307c0-.077-.077-.154-.154-.23s-.154-.154-.23-.154h-.615c-.077,0-.154.077-.23.154,0,0-.154.154-.154.23v.307h1.46Z" transform="translate(-28.088 -101.555)"/>
          <path id="パス_148" data-name="パス 148" d="M123,102.767h.615v.538h0a.282.282,0,0,1,.077-.23l.23-.23a1.105,1.105,0,0,0,.23-.154c.077-.077.154,0,.307,0h.23v.615h-.615c-.077,0-.154.077-.23.154,0,.077-.154.154-.154.307v1.767h-.615V102.69Z" transform="translate(-30.429 -101.614)"/>
          <path id="パス_149" data-name="パス 149" d="M130.877,102.8h.691l.691,2.228h0l.691-2.228h.615l-1,2.842h-.691L130.8,102.8Z" transform="translate(-32.237 -101.648)"/>
          <path id="パス_150" data-name="パス 150" d="M140.8,101.4h.615v.615H140.8Zm0,1.076h.615v2.842H140.8Z" transform="translate(-34.554 -101.323)"/>
          <path id="パス_151" data-name="パス 151" d="M150.151,103.7a.422.422,0,0,0-.23-.384.824.824,0,0,0-.461-.154h-.23c-.077,0-.154.077-.23.154-.077,0-.154.154-.23.307,0,.154-.077.307-.077.538v.384c0,.154,0,.23.154.307,0,.077.154.154.23.23a.576.576,0,0,0,.384.077.564.564,0,0,0,.461-.154.548.548,0,0,0,.23-.461h.615a1.042,1.042,0,0,1-.461.845,1.225,1.225,0,0,1-.922.307c-.384,0-.461,0-.615-.077-.154,0-.307-.154-.461-.307a.664.664,0,0,1-.23-.461c0-.154-.077-.384-.077-.615a1.691,1.691,0,0,1,.077-.615.876.876,0,0,1,.23-.461.979.979,0,0,1,.461-.307,1.447,1.447,0,0,1,.615-.154h.461a.587.587,0,0,1,.384.154.6.6,0,0,1,.307.307,1.092,1.092,0,0,1,.154.461h-.615Z" transform="translate(-36.223 -101.624)"/>
          <path id="パス_152" data-name="パス 152" d="M158.468,104.321v.307a.582.582,0,0,0,.154.307c0,.077.154.154.23.154h.307a.649.649,0,0,0,.461-.154c.154-.154.23-.23.23-.384h.615a.587.587,0,0,1-.154.384.6.6,0,0,1-.307.307.587.587,0,0,1-.384.154h-.461a1.5,1.5,0,0,1-.615-.077c-.154,0-.307-.154-.461-.307a1.607,1.607,0,0,1-.307-.461,1.5,1.5,0,0,1-.077-.615,1.691,1.691,0,0,1,.077-.615,1.412,1.412,0,0,1,.768-.768,1.424,1.424,0,0,1,.538-.154.924.924,0,0,1,.615.154,2.037,2.037,0,0,1,.461.384.7.7,0,0,1,.23.538v.615h-2.074Zm1.46-.384v-.307c0-.077-.077-.154-.154-.23s-.154-.154-.23-.154h-.615c-.077,0-.154.077-.23.154,0,0-.154.154-.154.23v.307h1.383Z" transform="translate(-38.471 -101.555)"/>
        </g>
      </g>
    </g>
    <g id="グループ_75" data-name="グループ 75" transform="translate(122.839 45.156)">
      <path id="パス_153" data-name="パス 153" d="M162.944,62.342c0-.154,0-.23-.23-.615-.23-.538-.384-.615-.615-.615h-.615v1.306H161.1V59.5h1.306c.538,0,.845.23.845.768s0,.384-.23.538a1.679,1.679,0,0,1-.384.23c.154,0,.23.154.384.384a4.531,4.531,0,0,0,.307.615c0,.154.154.23.154.384h-.461Zm-.691-1.613c.154,0,.307,0,.384-.154a.587.587,0,0,0,.154-.384c0-.307-.154-.461-.538-.461h-.845v1Z" transform="translate(-160.178 -58.962)"/>
      <circle id="楕円形_19" data-name="楕円形 19" cx="1.921" cy="1.921" r="1.921" fill="none" stroke="#000" stroke-miterlimit="10" stroke-width="0.3"/>
    </g>
  </g>
</svg>
