<svg xmlns="http://www.w3.org/2000/svg" width="86.082" height="107.674" viewBox="0 0 86.082 107.674">
  <g id="Icons" transform="translate(33.666 0.212)">
    <path id="パス_163" data-name="パス 163" d="M79.7,68.8a8.328,8.328,0,0,0-9.6,1.1c-8.2-7.3-26.5,5.9-.6,22.1a1.271,1.271,0,0,0,1.2,0c.5-.3,11.5-7.3,12.9-13.3a8.517,8.517,0,0,0-3.9-9.9h0Z" transform="translate(-60.646)" fill="#f86464"/>
    <g id="グループ_102" data-name="グループ 102" transform="translate(-32.084 43.3)">
      <path id="パス_164" data-name="パス 164" d="M10.892,72.9H7.605C4.2,72.9,1.5,75.4,1.5,78.4s2.7,6.5,6.105,6.5H54.333" transform="translate(13.584 -43.3)" fill="none" stroke="#263357" stroke-linecap="round" stroke-linejoin="round" stroke-width="3"/>
      <line id="線_9" data-name="線 9" x1="9" y2="0.1" transform="translate(37 29.6)" fill="none" stroke="#263357" stroke-linecap="round" stroke-linejoin="round" stroke-width="3"/>
      <path id="パス_165" data-name="パス 165" d="M55.128,84.9H16.584c-3.493,0-6.384,2.5-6.384,5.5s2.891,5.5,6.384,5.5H56.333" transform="translate(8.234 -43.3)" fill="none" stroke="#263357" stroke-linecap="round" stroke-linejoin="round" stroke-width="3"/>
      <path id="パス_166" data-name="パス 166" d="M110.333,61.9h-8.406c-8.861,0-10-4.8-23.515-11.1-14.882-3-31.354-7.5-31.354-7.5-6.021,4.5,2.386,9.5,3.635,10.5A96.381,96.381,0,0,0,62.28,60.4l2.5,2.8" transform="translate(-36.12 -43.3)" fill="none" stroke="#263357" stroke-linecap="round" stroke-linejoin="round" stroke-width="3"/>
      <line id="線_10" data-name="線 10" x2="11" transform="translate(36 18.6)" fill="none" stroke="#263357" stroke-linecap="round" stroke-linejoin="round" stroke-width="3"/>
      <path id="パス_167" data-name="パス 167" d="M25.242,97.2a4.9,4.9,0,0,0,3.644,8.4s44.168,1.7,56.977-2.3c9.827-3.8,11.815-9.9,20.869-9.9" transform="translate(-23.733 -43.3)" fill="none" stroke="#263357" stroke-linecap="round" stroke-linejoin="round" stroke-width="3"/>
    </g>
    <g id="グループ_103" data-name="グループ 103" transform="translate(-8.584 1.447)">
      <path id="パス_168" data-name="パス 168" d="M20.5,29.3a132.2,132.2,0,0,1-9.8,35c8.8,3.2,21.5,2.2,27.9-2.8-6.4-11-9.2-22.8-10.3-35.2A7.911,7.911,0,0,1,22,29.4c-2.6,0-1,0-1.5-.2Z" transform="translate(-4.2 -1.447)" fill="#61c4f2"/>
      <path id="パス_169" data-name="パス 169" d="M25.6,76.9H18.2a5.015,5.015,0,0,0-5,5c0,2.7.9,2,2,2H28.8a2.006,2.006,0,0,0,2-2,5.015,5.015,0,0,0-5-5Z" transform="translate(-4.2 -1.447)" fill="none" stroke="#263357" stroke-linecap="round" stroke-linejoin="round" stroke-width="3"/>
      <path id="パス_170" data-name="パス 170" d="M29.8,13.9c0-.1,3.1-7.2-3.6-11.2A8.73,8.73,0,0,0,13.5,13l.3.8" transform="translate(-4.2 -1.447)" fill="none" stroke="#263357" stroke-linecap="round" stroke-linejoin="round" stroke-width="3"/>
      <path id="パス_171" data-name="パス 171" d="M21.9,23.6c6.8,0,10.4-10.8,6.1-13.4-1.7-1.1-4.7-.6-6.1-3-2.1,3.5-8,.9-8,6.7s3.2,9.8,8,9.8" transform="translate(-4.2 -1.447)" fill="none" stroke="#263357" stroke-linecap="round" stroke-linejoin="round" stroke-width="3"/>
      <path id="パス_172" data-name="パス 172" d="M13.7,11.1C2.3,15.7,7.9,23.2,4.2,24.8c5.6.1,10.6-.9,9.4-13.7Z" transform="translate(-4.2 -1.447)" fill="none" stroke="#263357" stroke-linecap="round" stroke-linejoin="round" stroke-width="3"/>
      <path id="パス_173" data-name="パス 173" d="M30,11.1c11.3,4.6,5.8,12.1,9.4,13.7-5.6.1-10.6-.9-9.4-13.7Z" transform="translate(-4.2 -1.447)" fill="none" stroke="#263357" stroke-linecap="round" stroke-linejoin="round" stroke-width="3"/>
      <path id="パス_174" data-name="パス 174" d="M27.2,77.2c.4-4.8,1-10.9,1.1-11.5" transform="translate(-4.2 -1.447)" fill="none" stroke="#263357" stroke-linecap="round" stroke-linejoin="round" stroke-width="3"/>
      <line id="線_11" data-name="線 11" x2="1.1" y2="11.6" transform="translate(10.8 64.553)" fill="none" stroke="#263357" stroke-linecap="round" stroke-linejoin="round" stroke-width="3"/>
      <line id="線_12" data-name="線 12" y1="11" transform="translate(17.3 65.453)" fill="none" stroke="#263357" stroke-linecap="round" stroke-linejoin="round" stroke-width="3"/>
      <path id="パス_175" data-name="パス 175" d="M28.9,27A45.358,45.358,0,0,0,40.2,44.8" transform="translate(-4.2 -1.447)" fill="none" stroke="#263357" stroke-linecap="round" stroke-linejoin="round" stroke-width="3"/>
      <path id="パス_176" data-name="パス 176" d="M11.5,48.7a18.828,18.828,0,0,1,4.2-22l.2.2" transform="translate(-4.2 -1.447)" fill="none" stroke="#263357" stroke-linecap="round" stroke-linejoin="round" stroke-width="3"/>
      <path id="パス_177" data-name="パス 177" d="M16.5,26.9h0c-1.1,14-4.4,24.3-10.3,34.4,7.9,6.1,24.8,5.9,32.5,0C32.1,50,29.5,39.8,28.4,27.1h0" transform="translate(-4.2 -1.447)" fill="none" stroke="#263357" stroke-linecap="round" stroke-linejoin="round" stroke-width="3"/>
    </g>
  </g>
</svg>
