<svg height="17" width="16.843" xmlns="http://www.w3.org/2000/svg"><g fill="#4b4b4b"><path d="m40.084 2.124a9.41 9.41 0 0 1 11.91 0 6.768 6.768 0 0 1 2.467 5.127 6.713 6.713 0 0 1 -2.232 4.916 8.872 8.872 0 0 1 -4.766 2.233v1.945a.66.66 0 0 1 -.442.6.866.866 0 0 1 -.816-.093l-5.581-4.052a7.406 7.406 0 0 1 -2.31-2.53 6.356 6.356 0 0 1 -.7-3.024 6.768 6.768 0 0 1 2.47-5.122zm-.375 7.607a6.046 6.046 0 0 0 1.9 2.063l4.323 3.13v-1.107a.708.708 0 0 1 .7-.657 7.338 7.338 0 0 0 4.468-1.888 5.487 5.487 0 0 0 1.83-4.021 5.534 5.534 0 0 0 -2.018-4.2 7.7 7.7 0 0 0 -9.744 0 5.532 5.532 0 0 0 -2.018 4.2 5.2 5.2 0 0 0 .559 2.48z" transform="translate(-37.618)"/><path d="m126.122 191.906a.827.827 0 1 1 -.827.827.827.827 0 0 1 .827-.827z" transform="translate(-114.211 -185.491)"/><path d="m230.358 191.906a.827.827 0 1 1 -.827.827.827.827 0 0 1 .827-.827z" transform="translate(-221.936 -185.491)"/><path d="m334.594 191.906a.827.827 0 1 1 -.827.827.827.827 0 0 1 .827-.827z" transform="translate(-329.661 -185.491)"/></g></svg>