<svg height="16" width="16.323" xmlns="http://www.w3.org/2000/svg"><g fill="#4b4b4b" transform="translate(-.004 -5.068)"><path d="m90.671 129.486a.323.323 0 0 1 -.109.073.334.334 0 0 1 -.188.018.323.323 0 0 1 -.17-.091l-2.442-2.442a.325.325 0 0 1 -.073-.109.333.333 0 0 1 -.018-.188.325.325 0 0 1 .091-.17l5.047-5.047-.755-.754-5.046 5.046a1.4 1.4 0 0 0 0 1.976l2.442 2.442a1.384 1.384 0 0 0 .462.307 1.4 1.4 0 0 0 1.514-.307l5.047-5.046-.755-.754z" transform="translate(-83.833 -112.019)"/><path d="m84.406 375.091a.391.391 0 0 0 -.074.537l.435.435a.39.39 0 0 0 .537-.074l.817-.817-.9-.9z" transform="translate(-81.565 -357.435)"/><path d="m0 428.792.808.161 2.092-2.083-.485-.485z" transform="translate(0 -407.885)"/><path d="m262.142 49.488a.952.952 0 1 0 -1.347 1.347l4.706 4.706a.952.952 0 0 0 1.347-1.347z" transform="translate(-252.206 -42.734)"/><path d="m371.62 7.838-2.491-2.491a.952.952 0 1 0 -1.346 1.347l.258.258-.755.755.755.754.754-.754.467.467-.755.754.755.754.754-.754.258.258a.953.953 0 1 0 1.347-1.348z" transform="translate(-355.571)"/><path d="m0 0h1.275v.457h-1.275z" transform="matrix(.70710678 .70710678 -.70710678 .70710678 9.294185 12.279852)"/><path d="m240.5 274.125.323-.323-.9-.9-.323.323z" transform="translate(-231.955 -259.293)"/><path d="m0 0h.457v1.276h-.457z" transform="matrix(-.70710678 .70710678 -.70710678 -.70710678 7.595118 15.781999)"/></g></svg>