<svg height="18.869" width="15.624" xmlns="http://www.w3.org/2000/svg"><g fill="#f04850"><path d="m3510.667 345.367a7.8 7.8 0 0 0 -6.542-4.744v-1.254h.635a.839.839 0 0 0 .838-.838v-.341a.839.839 0 0 0 -.838-.838h-2.6a.839.839 0 0 0 -.838.838v.341a.839.839 0 0 0 .838.838h.635v1.256a7.807 7.807 0 1 0 7.868 4.742zm-2.712 7.527a6.344 6.344 0 1 1 1.858-4.486 6.3 6.3 0 0 1 -1.858 4.486z" transform="translate(-3495.657 -337.351)"/><path d="m3790.63 591.158a.734.734 0 0 0 -1.009.244l-2.3 3.762a1.159 1.159 0 1 0 1.261.751l2.288-3.748a.734.734 0 0 0 -.24-1.009z" transform="translate(-3779.688 -585.247)"/><path d="m3997.788 453.17 1.187.685a.6.6 0 0 0 .822-.22l.061-.105a.6.6 0 0 0 -.22-.822l-1.187-.685a.6.6 0 0 0 -.822.22l-.061.105a.6.6 0 0 0 .22.822z" transform="translate(-3986.007 -449.32)"/></g></svg>