<svg xmlns="http://www.w3.org/2000/svg" width="20.662" height="20.575" viewBox="0 0 20.662 20.575"><g transform="translate(-108.561 -68.545)"><g transform="translate(108.561 68.545)"><ellipse cx="10.331" cy="10.132" rx="10.331" ry="10.132" transform="translate(0 0.186)" fill="#fff"/><path d="M118.849,89.12a10.287,10.287,0,1,1,10.287-10.287A10.3,10.3,0,0,1,118.849,89.12Zm0-19.735a9.448,9.448,0,1,0,9.448,9.448A9.458,9.458,0,0,0,118.849,69.385Z" transform="translate(-108.562 -68.545)" fill="#5d5d5d"/></g><g transform="translate(114.02 73.897)"><ellipse cx="4.768" cy="4.967" rx="4.768" ry="4.967" transform="translate(0.104)" fill="#fff"/><path d="M191.391,157.2a4.829,4.829,0,1,1,4.829-4.829A4.834,4.834,0,0,1,191.391,157.2Zm0-8.608a3.779,3.779,0,1,0,3.779,3.779A3.783,3.783,0,0,0,191.391,148.595Z" transform="translate(-186.562 -147.368)" fill="#5d5d5d"/></g><circle cx="1.225" cy="1.225" r="1.225" transform="translate(121.873 72.215)" fill="#5d5d5d"/></g></svg>