<svg height="18.246" width="19.302" xmlns="http://www.w3.org/2000/svg" xmlns:xlink="http://www.w3.org/1999/xlink"><clipPath id="a"><path d="m0 0h19.302v18.246h-19.302z"/></clipPath><g clip-path="url(#a)"><path d="m16.781 2.365a10.49 10.49 0 0 0 -7.13-2.365 10.49 10.49 0 0 0 -7.13 2.364 7.629 7.629 0 0 0 -2.521 5.781 7.561 7.561 0 0 0 2.27 5.543 9.725 9.725 0 0 0 6.014 2.537l.211 1.24a.932.932 0 0 0 .667.745.95.95 0 0 0 .262.037.931.931 0 0 0 .7-.316l1.59-1.789a9.3 9.3 0 0 0 5.568-2.709 7.6 7.6 0 0 0 2.018-5.288 7.628 7.628 0 0 0 -2.521-5.78m-7.027 11.3a.892.892 0 1 1 .892-.892.89.89 0 0 1 -.892.892m1.7-5.633a2.244 2.244 0 0 0 -1.046 1.91c-.028.321-.07.655-.627.655-.655 0-.655-.46-.655-.655a2.987 2.987 0 0 1 1.241-2.51c1.353-1.143 1.59-1.353 1.59-2.175a1.96 1.96 0 0 0 -2.155-1.872 2.664 2.664 0 0 0 -1.924.809c-.4.446-.446.5-.683.5a.6.6 0 0 1 -.593-.64c0-.376.683-.892.711-.92a3.862 3.862 0 0 1 2.538-.906 3.128 3.128 0 0 1 3.4 3c0 1.325-.655 1.855-1.8 2.8" fill="#5bc0de" transform="translate(0 -.001)"/></g></svg>