<svg height="16.46" width="13.412" xmlns="http://www.w3.org/2000/svg"><g fill="#464646"><path d="m1022.854 2033.506a.637.637 0 0 0 1.223-.247v-10.643a.637.637 0 0 0 -.183-.447l-3.555-3.6a.628.628 0 0 0 -.457-.192h-8.58a.637.637 0 0 0 -.637.637v15.186a.638.638 0 0 0 .637.639h12.138a.638.638 0 0 0 .637-.639v-.906a.637.637 0 0 0 -1.225-.246.648.648 0 0 0 -.049.246v.269h-10.863v-13.911h7.259v3a.639.639 0 0 0 .637.639h2.969v9.964a.631.631 0 0 0 .049.251z" transform="translate(-1010.666 -2018.381)"/><path d="m1054.37 2115.042h7.8a.438.438 0 0 0 0-.876h-7.8a.438.438 0 0 0 0 .876z" transform="translate(-1051.466 -2108.703)"/><path d="m1062.173 2150.465h-7.8a.437.437 0 1 0 0 .874h7.8a.437.437 0 1 0 0-.874z" transform="translate(-1051.466 -2142.933)"/><path d="m1054.37 2078.774h5.1a.438.438 0 0 0 0-.876h-5.1a.438.438 0 0 0 0 .876z" transform="translate(-1051.466 -2074.504)"/><path d="m1062.173 2150.465h-7.8a.437.437 0 1 0 0 .874h7.8a.437.437 0 1 0 0-.874z" transform="translate(-1051.466 -2140.73)"/><path d="m1062.173 2150.465h-7.8a.437.437 0 1 0 0 .874h7.8a.437.437 0 1 0 0-.874z" transform="translate(-1051.466 -2138.527)"/></g></svg>