<svg xmlns="http://www.w3.org/2000/svg" width="16.58" height="16.099"><path id="パス_38156" data-name="パス 38156" d="M16.58 8.593a1.7 1.7 0 00-1.719-1.681h-3.987c-.225 0-.432.035-.582.033a.7.7 0 01-.136-.011l-.021-.006-.005-.015a.439.439 0 01-.009-.1c0-.029 0-.069.008-.109l.981-2.371a1.819 1.819 0 00.139-.7 1.858 1.858 0 00-1.187-1.723 1.939 1.939 0 00-.712-.136 1.9 1.9 0 00-1.761 1.168L5.924 7.039c-.111.255-.2.495-.288.7a1.841 1.841 0 01-.413.679.776.776 0 01-.275.157 1.455 1.455 0 01-.466.065 1.905 1.905 0 00-.353.034H1.441A1.425 1.425 0 000 10.085v6.387a1.425 1.425 0 001.441 1.408h1.994a.792.792 0 00.8-.783v-.649a2.947 2.947 0 00.447.211 5.788 5.788 0 002.01.292h6.193a1.7 1.7 0 001.719-1.68 1.611 1.611 0 00-.124-.616 1.685 1.685 0 001.18-1.6 1.625 1.625 0 00-.231-.831 1.359 1.359 0 00.43-.613 2.252 2.252 0 00.118-.766 1.293 1.293 0 00-.1-.475 1.641 1.641 0 00-.174-.321 1.675 1.675 0 00.877-1.456zm-1.718.851h-.286a.43.43 0 00-.3.121.407.407 0 000 .586.43.43 0 00.3.122.453.453 0 01.214.051.646.646 0 01.251.244.6.6 0 01.091.282 1.257 1.257 0 01-.12.6.458.458 0 01-.126.145.519.519 0 01-.205.085.416.416 0 00-.325.3.406.406 0 00.141.42.835.835 0 01.32.652.864.864 0 01-.872.852h-.2a.421.421 0 00-.4.267.407.407 0 00.115.457.834.834 0 01.3.635.863.863 0 01-.872.851H6.692a5.355 5.355 0 01-1.565-.189 2.071 2.071 0 01-.718-.37 1.743 1.743 0 01-.174-.17V9.5a1.014 1.014 0 01.247-.028 2.127 2.127 0 00.954-.2 1.636 1.636 0 00.5-.385 2.774 2.774 0 00.444-.744c.113-.26.21-.526.325-.789l.005-.01 1.665-4.093a1.053 1.053 0 01.976-.642 1.066 1.066 0 01.394.076 1.028 1.028 0 01.658.954 1 1 0 01-.077.385l-1 2.428a.4.4 0 00-.027.1 1.927 1.927 0 00-.019.263 1.1 1.1 0 00.08.436.8.8 0 00.186.271.871.871 0 00.39.21 1.431 1.431 0 00.362.041c.24 0 .457-.035.582-.033h3.987a.852.852 0 110 1.7z" transform="translate(0 -1.781)" fill="#5bc0de"/></svg>