<svg height="16.731" width="16.731" xmlns="http://www.w3.org/2000/svg"><g fill="#464646" transform="translate(-840.974 -155.705)"><path d="m849.358 155.7a8.365 8.365 0 1 0 8.347 8.384 8.365 8.365 0 0 0 -8.347-8.384zm-.035 15.624a7.259 7.259 0 1 1 7.275-7.243 7.259 7.259 0 0 1 -7.274 7.248z" fill-rule="evenodd"/><path d="m884.854 197.04c-.325 0-.482-.144-.482-.421s.157-.41.482-.41h1.807v-.6l-.193-.314h-1.614c-.325 0-.482-.143-.482-.421s.157-.41.482-.41h1.146l-1.879-3.094a.914.914 0 0 1 -.1-.385.7.7 0 0 1 .77-.6.688.688 0 0 1 .518.3l2.119 3.818 2.12-3.83a.623.623 0 0 1 .493-.289.728.728 0 0 1 .746.614.741.741 0 0 1 -.1.349l-1.975 3.118h1.24c.325 0 .482.145.482.41s-.157.421-.482.421h-1.747l-.18.29v.626h1.927c.325 0 .482.144.482.41s-.157.421-.482.421h-1.927v1.722a.655.655 0 0 1 -.674.747.672.672 0 0 1 -.7-.747v-1.725z" transform="translate(-37.998 -30.607)"/></g></svg>