<svg height="16.956" width="17.034" xmlns="http://www.w3.org/2000/svg"><path d="m-77.912 196.406a.792.792 0 0 1 -.679-.384.786.786 0 0 1 -.089-.6 10.749 10.749 0 0 1 3.18-5.522 8.1 8.1 0 0 1 2.313-1.444 5 5 0 0 1 -1-7 5 5 0 0 1 7-1 5 5 0 0 1 1 7 5 5 0 0 1 -1 1 8.1 8.1 0 0 1 2.316 1.444 10.75 10.75 0 0 1 3.178 5.527.791.791 0 0 1 -.576.96.791.791 0 0 1 -.96-.576c-.981-3.917-3.646-6.35-6.957-6.35s-5.977 2.43-6.958 6.347a.79.79 0 0 1 -.768.598zm7.724-15.376a3.422 3.422 0 0 0 -3.422 3.423 3.422 3.422 0 0 0 3.422 3.423 3.423 3.423 0 0 0 3.423-3.423 3.427 3.427 0 0 0 -3.423-3.423z" fill="#464646" transform="translate(78.704 -179.453)"/></svg>