<svg height="16.956" width="16.956" xmlns="http://www.w3.org/2000/svg"><g fill="#4f4f4f" transform="translate(-9.705 -9.705)"><path d="m18.183 26.661a8.478 8.478 0 1 1 8.478-8.478 8.488 8.488 0 0 1 -8.478 8.478zm0-15.709a7.23 7.23 0 1 0 7.231 7.23 7.239 7.239 0 0 0 -7.231-7.229z"/><g fill-rule="evenodd"><path d="m62.826 58.937a1.305 1.305 0 0 1 1.309 1.3v4.495a1.309 1.309 0 0 1 -2.618 0v-4.494a1.305 1.305 0 0 1 1.309-1.301z" transform="translate(-44.63 -42.408)"/><path d="m61.422 33.044a1.309 1.309 0 1 1 1.309 1.3 1.305 1.305 0 0 1 -1.309-1.3z" transform="translate(-44.548 -18.983)"/></g></g></svg>